<svg xmlns="http://www.w3.org/2000/svg" width="231.84" height="228.582" viewBox="0 0 231.84 228.582">
  <g id="bacteria" transform="matrix(0.996, -0.087, 0.087, 0.996, -0.353, 14.639)" opacity="0.118">
    <g id="XMLID_107_" transform="translate(0 4.053)">
      <g id="Groupe_132" data-name="Groupe 132">
        <path id="Tracé_1143" data-name="Tracé 1143" d="M214.233,100.453c.783,10.127-6.342,19.118-15.907,20.078a16.966,16.966,0,0,1-17.009-9.995l-8.681.765-6.554,3.162a4.949,4.949,0,0,0-2.737,3.8,57.808,57.808,0,0,1-3.3,12.767,4.925,4.925,0,0,0,.283,4.192l2.335,4.175,6.492,4.356a11.674,11.674,0,1,1-7.377,12.511l-7.2-4.825-4.529-.553a5.215,5.215,0,0,0-4.237,1.428,58.6,58.6,0,0,1-12.829,9.269,5.152,5.152,0,0,0-2.7,4.237l-.575,9.172,2.848,11.3A14.5,14.5,0,1,1,118.51,189.9l-2.861-11.366-4.418-7.1A6.47,6.47,0,0,0,105.7,168.4h-.035A58.559,58.559,0,0,1,94.35,167.3a6.46,6.46,0,0,0-5.961,1.871l-5.838,6.16-6.536,13.559a11.673,11.673,0,1,1-13.1-6.209l6.576-13.648,1.291-9.159a4.867,4.867,0,0,0-1.738-4.462,58.773,58.773,0,0,1-13.223-15.156,4.854,4.854,0,0,0-4.117-2.322l-9.146-.088-10.012,3.149a16.329,16.329,0,1,1-4.966-13.634L38.2,124.015l7.761-5.532a3.994,3.994,0,0,0,1.654-3.6q-.192-2.342-.195-4.728a57.889,57.889,0,0,1,5.3-24.248,3.981,3.981,0,0,0-.04-3.4l-2.3-4.7-6.24-4.71A11.673,11.673,0,1,1,52.2,61.018l6.917,5.218,6.97,1.243a58.382,58.382,0,0,1,17.482-11.2L85.2,46.336,83.139,36.067a16.737,16.737,0,0,1-12.409-12.5C68.846,14.742,74.909,6.149,84.276,4.376s18.481,3.936,20.365,12.759a15.875,15.875,0,0,1-7.173,16.655l1.95,9.685,4.789,7.642a1.712,1.712,0,0,0,1.451.8h.009a57.848,57.848,0,0,1,30.006,8.349,1.689,1.689,0,0,0,1.583.088l7.5-3.476,8.756-9.473a11.671,11.671,0,1,1,10.645,9.844L155.4,66.723l-2.844,7.651a1.691,1.691,0,0,0,.221,1.583,57.939,57.939,0,0,1,8.111,15.691,4.973,4.973,0,0,0,3.348,3.215l7.12,1.994,9.252-.818A17.883,17.883,0,0,1,195.5,83.851c9.566-.96,17.955,6.474,18.733,16.6Z" transform="translate(0 -4.053)" fill="#1b2953"/>
      </g>
    </g>
    <g id="XMLID_8_" transform="translate(62.54 67.032)">
      <g id="Groupe_133" data-name="Groupe 133">
        <circle id="Ellipse_200" data-name="Ellipse 200" cx="43.127" cy="43.127" r="43.127" fill="#a3aabf"/>
      </g>
    </g>
    <path id="Tracé_1144" data-name="Tracé 1144" d="M154.561,189.59a43.137,43.137,0,0,1,36.555-42.63,43.127,43.127,0,1,0,0,85.26,43.138,43.138,0,0,1-36.555-42.63Z" transform="translate(-78.876 -79.431)" fill="#394774"/>
    <g id="Groupe_134" data-name="Groupe 134" transform="translate(20.822 7.192)">
      <circle id="Ellipse_201" data-name="Ellipse 201" cx="12.281" cy="12.281" r="12.281" fill="#1b2953"/>
      <circle id="Ellipse_202" data-name="Ellipse 202" cx="8.112" cy="8.112" r="8.112" transform="translate(0.812 166.058)" fill="#1b2953"/>
      <circle id="Ellipse_203" data-name="Ellipse 203" cx="11.948" cy="11.948" r="11.948" transform="translate(145.918 175.547)" fill="#1b2953"/>
      <circle id="Ellipse_204" data-name="Ellipse 204" cx="11.14" cy="11.14" r="11.14" transform="translate(60.468 79.935)" fill="#1b2953"/>
      <circle id="Ellipse_205" data-name="Ellipse 205" cx="7.582" cy="7.582" r="7.582" transform="translate(72.967 118.093)" fill="#1b2953"/>
      <circle id="Ellipse_206" data-name="Ellipse 206" cx="6.367" cy="6.367" r="6.367" transform="translate(97.991 96.601)" fill="#1b2953"/>
    </g>
  </g>
</svg>
