<svg xmlns="http://www.w3.org/2000/svg" width="210.065" height="207.008" viewBox="0 0 210.065 207.008">
  <g id="bacteria" transform="matrix(0.998, 0.07, -0.07, 0.998, 13.797, -4.043)" opacity="0.118">
    <g id="XMLID_107_" transform="translate(0 4.053)">
      <g id="Groupe_132" data-name="Groupe 132">
        <path id="Tracé_1143" data-name="Tracé 1143" d="M196.977,92.688c.72,9.312-5.831,17.578-14.626,18.461a15.6,15.6,0,0,1-15.639-9.19l-7.982.7-6.026,2.907a4.55,4.55,0,0,0-2.517,3.493A53.152,53.152,0,0,1,147.15,120.8a4.528,4.528,0,0,0,.26,3.855l2.147,3.838,5.969,4.005a10.734,10.734,0,1,1-6.782,11.5l-6.616-4.436-4.164-.508a4.8,4.8,0,0,0-3.9,1.313,53.882,53.882,0,0,1-11.8,8.523,4.737,4.737,0,0,0-2.484,3.9l-.529,8.433,2.619,10.389a13.334,13.334,0,1,1-12.914,3.318l-2.631-10.45-4.062-6.53a5.949,5.949,0,0,0-5.083-2.785h-.033a53.843,53.843,0,0,1-10.405-1.017,5.94,5.94,0,0,0-5.481,1.72L75.9,161.532,69.892,174a10.732,10.732,0,1,1-12.048-5.709l6.046-12.548,1.187-8.421a4.475,4.475,0,0,0-1.6-4.1,54.039,54.039,0,0,1-12.158-13.935,4.463,4.463,0,0,0-3.786-2.135l-8.409-.081-9.206,2.9a15.014,15.014,0,1,1-4.566-12.536l9.771-3.074,7.136-5.087a3.673,3.673,0,0,0,1.521-3.306q-.177-2.153-.179-4.347a53.226,53.226,0,0,1,4.871-22.295,3.66,3.66,0,0,0-.037-3.127l-2.114-4.322-5.737-4.33A10.733,10.733,0,1,1,48,56.43l6.36,4.8,6.408,1.143a53.679,53.679,0,0,1,16.074-10.3l1.5-9.141-1.9-9.442a15.389,15.389,0,0,1-11.41-11.5C63.3,13.881,68.876,5.98,77.488,4.35S94.48,7.969,96.213,16.081a14.6,14.6,0,0,1-6.6,15.313l1.793,8.9,4.4,7.026a1.574,1.574,0,0,0,1.334.736h.008a53.189,53.189,0,0,1,27.589,7.677,1.553,1.553,0,0,0,1.456.081l6.9-3.2,8.051-8.71a10.731,10.731,0,1,1,9.787,9.051l-8.051,8.71-2.615,7.035a1.555,1.555,0,0,0,.2,1.456,53.272,53.272,0,0,1,7.457,14.427,4.572,4.572,0,0,0,3.078,2.956l6.547,1.834,8.506-.752a16.442,16.442,0,0,1,13.691-11.206c8.8-.882,16.509,5.953,17.224,15.264Z" transform="translate(0 -4.053)" fill="#1b2953"/>
      </g>
    </g>
    <g id="XMLID_8_" transform="translate(57.502 61.96)">
      <g id="Groupe_133" data-name="Groupe 133">
        <circle id="Ellipse_200" data-name="Ellipse 200" cx="39.653" cy="39.653" r="39.653" fill="#a3aabf"/>
      </g>
    </g>
    <path id="Tracé_1144" data-name="Tracé 1144" d="M153.5,186.116a39.663,39.663,0,0,1,33.61-39.2,39.654,39.654,0,1,0,0,78.392,39.663,39.663,0,0,1-33.61-39.2Z" transform="translate(-83.914 -84.503)" fill="#394774"/>
    <g id="Groupe_134" data-name="Groupe 134" transform="translate(19.144 6.939)">
      <circle id="Ellipse_201" data-name="Ellipse 201" cx="11.292" cy="11.292" r="11.292" fill="#1b2953"/>
      <circle id="Ellipse_202" data-name="Ellipse 202" cx="7.459" cy="7.459" r="7.459" transform="translate(0.747 152.683)" fill="#1b2953"/>
      <circle id="Ellipse_203" data-name="Ellipse 203" cx="10.986" cy="10.986" r="10.986" transform="translate(134.164 161.407)" fill="#1b2953"/>
      <circle id="Ellipse_204" data-name="Ellipse 204" cx="10.242" cy="10.242" r="10.242" transform="translate(55.597 73.496)" fill="#1b2953"/>
      <circle id="Ellipse_205" data-name="Ellipse 205" cx="6.971" cy="6.971" r="6.971" transform="translate(67.09 108.581)" fill="#1b2953"/>
      <circle id="Ellipse_206" data-name="Ellipse 206" cx="5.854" cy="5.854" r="5.854" transform="translate(90.098 88.82)" fill="#1b2953"/>
    </g>
  </g>
</svg>
