<svg xmlns="http://www.w3.org/2000/svg" width="190.809" height="188.568" viewBox="0 0 190.809 188.568">
  <g id="Illustration" transform="translate(-199.573 -2868.102)">
    <g id="bacteria" transform="translate(391.086 3031.988) rotate(170)" opacity="0.118">
      <g id="XMLID_107_" transform="translate(0 4.053)">
        <g id="Groupe_132" data-name="Groupe 132">
          <path id="Tracé_1143" data-name="Tracé 1143" d="M165.078,78.334c.6,7.8-4.887,14.732-12.258,15.471a13.073,13.073,0,0,1-13.106-7.7l-6.689.59-5.05,2.437a3.814,3.814,0,0,0-2.109,2.927,44.544,44.544,0,0,1-2.546,9.838,3.8,3.8,0,0,0,.218,3.231l1.8,3.217,5,3.357a9,9,0,1,1-5.684,9.64l-5.544-3.718-3.489-.426a4.018,4.018,0,0,0-3.265,1.1,45.157,45.157,0,0,1-9.886,7.143,3.97,3.97,0,0,0-2.082,3.265l-.443,7.068,2.195,8.707a11.174,11.174,0,1,1-10.823,2.781l-2.2-8.758-3.4-5.473a4.986,4.986,0,0,0-4.26-2.334h-.027a45.123,45.123,0,0,1-8.72-.852,4.978,4.978,0,0,0-4.594,1.441l-4.5,4.747-5.037,10.448a8.994,8.994,0,1,1-10.1-4.784l5.067-10.516,1-7.057a3.75,3.75,0,0,0-1.339-3.438A45.288,45.288,0,0,1,43.011,109a3.74,3.74,0,0,0-3.173-1.789l-7.047-.068-7.715,2.426a12.583,12.583,0,1,1-3.827-10.506l8.189-2.576,5.981-4.263a3.078,3.078,0,0,0,1.274-2.77q-.148-1.8-.15-3.643A44.607,44.607,0,0,1,40.625,67.13a3.068,3.068,0,0,0-.031-2.621l-1.772-3.622-4.808-3.629a8.995,8.995,0,1,1,6.209-9.31l5.33,4.021,5.371.958a44.986,44.986,0,0,1,13.471-8.632l1.261-7.661-1.591-7.913A12.9,12.9,0,0,1,54.5,19.088c-1.452-6.8,3.22-13.42,10.438-14.786S79.18,7.335,80.632,14.133A12.233,12.233,0,0,1,75.1,26.966l1.5,7.463L80.3,40.318a1.319,1.319,0,0,0,1.118.617h.007a44.575,44.575,0,0,1,23.121,6.434,1.3,1.3,0,0,0,1.22.068l5.779-2.678,6.747-7.3a8.993,8.993,0,1,1,8.2,7.586l-6.747,7.3-2.191,5.9a1.3,1.3,0,0,0,.17,1.22,44.645,44.645,0,0,1,6.25,12.091,3.832,3.832,0,0,0,2.58,2.477l5.486,1.537,7.129-.63a13.78,13.78,0,0,1,11.474-9.392c7.371-.739,13.835,4.989,14.435,12.793Z" transform="translate(0 -4.053)" fill="#1b2953"/>
        </g>
      </g>
      <g id="XMLID_8_" transform="translate(48.19 52.582)">
        <g id="Groupe_133" data-name="Groupe 133">
          <circle id="Ellipse_200" data-name="Ellipse 200" cx="33.232" cy="33.232" r="33.232" fill="#a3aabf"/>
        </g>
      </g>
      <path id="Tracé_1144" data-name="Tracé 1144" d="M151.545,179.695a33.24,33.24,0,0,1,28.167-32.849,33.232,33.232,0,1,0,0,65.7A33.24,33.24,0,0,1,151.545,179.695Z" transform="translate(-93.226 -93.881)" fill="#394774"/>
      <g id="Groupe_134" data-name="Groupe 134" transform="translate(16.044 6.471)">
        <circle id="Ellipse_201" data-name="Ellipse 201" cx="9.464" cy="9.464" r="9.464" fill="#1b2953"/>
        <circle id="Ellipse_202" data-name="Ellipse 202" cx="6.251" cy="6.251" r="6.251" transform="translate(0.626 127.957)" fill="#1b2953"/>
        <circle id="Ellipse_203" data-name="Ellipse 203" cx="9.207" cy="9.207" r="9.207" transform="translate(112.438 135.269)" fill="#1b2953"/>
        <circle id="Ellipse_204" data-name="Ellipse 204" cx="8.584" cy="8.584" r="8.584" transform="translate(46.594 61.594)" fill="#1b2953"/>
        <circle id="Ellipse_205" data-name="Ellipse 205" cx="5.843" cy="5.843" r="5.843" transform="translate(56.225 90.997)" fill="#1b2953"/>
        <circle id="Ellipse_206" data-name="Ellipse 206" cx="4.906" cy="4.906" r="4.906" transform="translate(75.508 74.437)" fill="#1b2953"/>
      </g>
    </g>
  </g>
</svg>
