<svg id="bacteria" xmlns="http://www.w3.org/2000/svg" width="90.854" height="89.335" viewBox="0 0 90.854 89.335">
  <g id="XMLID_107_" transform="translate(0 0)">
    <g id="Groupe_132" data-name="Groupe 132">
      <path id="Tracé_1143" data-name="Tracé 1143" d="M.025,44.924a7.813,7.813,0,0,0,6.744,8.512A7.193,7.193,0,0,0,13.98,49.2l3.681.324,2.779,1.341A2.1,2.1,0,0,1,21.6,52.475,24.509,24.509,0,0,0,23,57.888a2.088,2.088,0,0,1-.12,1.777l-.99,1.77-2.752,1.847a4.95,4.95,0,1,0,3.127,5.3l3.051-2.046,1.92-.234a2.211,2.211,0,0,1,1.8.606,24.846,24.846,0,0,0,5.439,3.93,2.184,2.184,0,0,1,1.146,1.8l.244,3.889-1.207,4.791a6.148,6.148,0,1,0,5.955,1.53l1.213-4.819L43.7,75.018a2.743,2.743,0,0,1,2.344-1.284h.015a24.829,24.829,0,0,0,4.8-.469,2.739,2.739,0,0,1,2.527.793l2.475,2.612,2.771,5.749a4.949,4.949,0,1,0,5.556-2.632L61.393,74l-.547-3.883a2.063,2.063,0,0,1,.737-1.892A24.918,24.918,0,0,0,67.189,61.8a2.058,2.058,0,0,1,1.746-.984l3.877-.037,4.245,1.335a6.923,6.923,0,1,0,2.106-5.781l-4.506-1.417-3.291-2.346a1.694,1.694,0,0,1-.7-1.524q.082-.993.082-2A24.543,24.543,0,0,0,68.5,38.759a1.688,1.688,0,0,1,.017-1.442l.975-1.993,2.646-2A4.949,4.949,0,1,0,68.723,28.2L65.79,30.417l-2.955.527a24.752,24.752,0,0,0-7.412-4.749L54.73,21.98l.876-4.354a7.1,7.1,0,0,0,5.261-5.3A6.933,6.933,0,0,0,55.123,4.19,7.33,7.33,0,0,0,46.489,9.6,6.731,6.731,0,0,0,49.53,16.66L48.7,20.767l-2.031,3.24a.726.726,0,0,1-.615.339h0a24.526,24.526,0,0,0-12.722,3.54.716.716,0,0,1-.671.038l-3.18-1.474-3.712-4.016a4.948,4.948,0,1,0-4.513,4.174l3.712,4.016,1.206,3.244a.717.717,0,0,1-.094.671,24.565,24.565,0,0,0-3.439,6.652,2.108,2.108,0,0,1-1.419,1.363L18.2,43.4l-3.922-.347a7.582,7.582,0,0,0-6.313-5.167A7.389,7.389,0,0,0,.025,44.924Z" transform="translate(0 -4.053)" fill="#eb5569"/>
    </g>
  </g>
  <g id="XMLID_8_" transform="translate(27.769 26.702)">
    <g id="Groupe_133" data-name="Groupe 133">
      <ellipse id="Ellipse_200" data-name="Ellipse 200" cx="18.285" cy="18.285" rx="18.285" ry="18.285" fill="#f58a97"/>
    </g>
  </g>
  <path id="Tracé_1144" data-name="Tracé 1144" d="M156.914,164.748a18.289,18.289,0,0,0-15.5-18.074,18.285,18.285,0,1,1,0,36.148,18.29,18.29,0,0,0,15.5-18.074Z" transform="translate(-98.149 -119.761)" fill="#f07281"/>
  <g id="Groupe_134" data-name="Groupe 134" transform="translate(10.029 1.331)">
    <ellipse id="Ellipse_201" data-name="Ellipse 201" cx="5.207" cy="5.207" rx="5.207" ry="5.207" transform="translate(61.583)" fill="#eb5569"/>
    <ellipse id="Ellipse_202" data-name="Ellipse 202" cx="3.439" cy="3.439" rx="3.439" ry="3.439" transform="translate(64.774 70.405)" fill="#eb5569"/>
    <ellipse id="Ellipse_203" data-name="Ellipse 203" cx="5.066" cy="5.066" rx="5.066" ry="5.066" transform="translate(0 74.428)" fill="#eb5569"/>
    <ellipse id="Ellipse_204" data-name="Ellipse 204" cx="4.723" cy="4.723" rx="4.723" ry="4.723" transform="translate(36.914 33.89)" fill="#eb5569"/>
    <ellipse id="Ellipse_205" data-name="Ellipse 205" cx="3.215" cy="3.215" rx="3.215" ry="3.215" transform="translate(34.631 50.068)" fill="#eb5569"/>
    <ellipse id="Ellipse_206" data-name="Ellipse 206" cx="2.699" cy="2.699" rx="2.699" ry="2.699" transform="translate(25.052 40.957)" fill="#eb5569"/>
  </g>
</svg>
