<svg xmlns="http://www.w3.org/2000/svg" width="90.854" height="89.335" viewBox="0 0 90.854 89.335">
  <g id="bacteria" transform="translate(0 -4.053)">
    <g id="XMLID_107_" transform="translate(0 4.053)">
      <g id="Groupe_132" data-name="Groupe 132" transform="translate(0)">
        <path id="Tracé_1143" data-name="Tracé 1143" d="M90.829,44.924a7.813,7.813,0,0,1-6.744,8.512A7.193,7.193,0,0,1,76.874,49.2l-3.681.324-2.779,1.341a2.1,2.1,0,0,0-1.161,1.611,24.509,24.509,0,0,1-1.4,5.413,2.088,2.088,0,0,0,.12,1.777l.99,1.77,2.752,1.847a4.95,4.95,0,1,1-3.127,5.3l-3.051-2.046-1.92-.234a2.211,2.211,0,0,0-1.8.606,24.846,24.846,0,0,1-5.439,3.93,2.184,2.184,0,0,0-1.146,1.8l-.244,3.889L56.2,81.318a6.148,6.148,0,1,1-5.955,1.53l-1.213-4.819-1.873-3.011a2.743,2.743,0,0,0-2.344-1.284H44.8a24.829,24.829,0,0,1-4.8-.469,2.739,2.739,0,0,0-2.527.793L35,76.669l-2.771,5.749a4.949,4.949,0,1,1-5.556-2.632L29.461,74l.547-3.883a2.063,2.063,0,0,0-.737-1.892A24.918,24.918,0,0,1,23.665,61.8a2.058,2.058,0,0,0-1.746-.984l-3.877-.037L13.8,62.112a6.923,6.923,0,1,1-2.106-5.781L16.2,54.914l3.291-2.346a1.694,1.694,0,0,0,.7-1.524q-.082-.993-.082-2a24.543,24.543,0,0,1,2.246-10.281,1.688,1.688,0,0,0-.017-1.442l-.975-1.993-2.646-2A4.949,4.949,0,1,1,22.132,28.2l2.932,2.212,2.955.527a24.752,24.752,0,0,1,7.412-4.749l.694-4.215-.876-4.354a7.1,7.1,0,0,1-5.261-5.3A6.933,6.933,0,0,1,35.731,4.19,7.33,7.33,0,0,1,44.365,9.6a6.731,6.731,0,0,1-3.041,7.061l.827,4.106,2.031,3.24a.726.726,0,0,0,.615.339h0a24.526,24.526,0,0,1,12.722,3.54.716.716,0,0,0,.671.038l3.18-1.474,3.712-4.016A4.948,4.948,0,1,1,69.6,26.607l-3.712,4.016-1.206,3.244a.717.717,0,0,0,.094.671,24.565,24.565,0,0,1,3.439,6.652,2.108,2.108,0,0,0,1.419,1.363l3.019.846,3.922-.347a7.582,7.582,0,0,1,6.313-5.167,7.389,7.389,0,0,1,7.942,7.039Z" transform="translate(0 -4.053)" fill="#eb5569"/>
      </g>
    </g>
    <g id="XMLID_8_" transform="translate(26.515 30.755)">
      <g id="Groupe_133" data-name="Groupe 133">
        <circle id="Ellipse_200" data-name="Ellipse 200" cx="18.285" cy="18.285" r="18.285" fill="#f58a97"/>
      </g>
    </g>
    <path id="Tracé_1144" data-name="Tracé 1144" d="M146.989,164.748a18.289,18.289,0,0,1,15.5-18.074,18.285,18.285,0,1,0,0,36.148,18.29,18.29,0,0,1-15.5-18.074Z" transform="translate(-114.901 -115.708)" fill="#f07281"/>
    <g id="Groupe_134" data-name="Groupe 134" transform="translate(8.828 5.384)">
      <circle id="Ellipse_201" data-name="Ellipse 201" cx="5.207" cy="5.207" r="5.207" fill="#eb5569"/>
      <circle id="Ellipse_202" data-name="Ellipse 202" cx="3.439" cy="3.439" r="3.439" transform="translate(0.344 70.405)" fill="#eb5569"/>
      <circle id="Ellipse_203" data-name="Ellipse 203" cx="5.066" cy="5.066" r="5.066" transform="translate(61.866 74.428)" fill="#eb5569"/>
      <circle id="Ellipse_204" data-name="Ellipse 204" cx="4.723" cy="4.723" r="4.723" transform="translate(25.637 33.89)" fill="#eb5569"/>
      <circle id="Ellipse_205" data-name="Ellipse 205" cx="3.215" cy="3.215" r="3.215" transform="translate(30.936 50.068)" fill="#eb5569"/>
      <circle id="Ellipse_206" data-name="Ellipse 206" cx="2.699" cy="2.699" r="2.699" transform="translate(41.546 40.957)" fill="#eb5569"/>
    </g>
  </g>
</svg>
