<svg xmlns="http://www.w3.org/2000/svg" id="prefix__logo" width="54.67" height="54.67" viewBox="0 0 54.67 54.67">
    <defs>
        <style>
            .prefix__cls-1{fill:#107c82}.prefix__cls-3{fill:#21abab}.prefix__cls-4{fill:#13969d}
        </style>
    </defs>
    <ellipse id="prefix__Ellipse_183" cx="2" cy="1.5" class="prefix__cls-1" data-name="Ellipse 183" rx="2" ry="1.5" transform="translate(29.67 33.588)"/>
    <circle id="prefix__Ellipse_184" cx="3.5" cy="3.5" r="3.5" class="prefix__cls-1" data-name="Ellipse 184" transform="translate(17.67 26.588)"/>
    <circle id="prefix__Ellipse_185" cx="2" cy="2" r="2" class="prefix__cls-1" data-name="Ellipse 185" transform="translate(23.67 17.588)"/>
    <path id="prefix__Tracé_1137" d="M53.906 26.571a1.764 1.764 0 1 1 0 3.527h-2.645a23 23 0 0 0-6.455 1.234 16.531 16.531 0 0 1-2.107 5.59 25.42 25.42 0 0 0 4.285 6.56l1.614 1.6h.018a2.645 2.645 0 1 1-2.645 2.645v-.018l-1.6-1.614a25.13 25.13 0 0 0-6.3-4.162 16.621 16.621 0 0 1-6.737 2.866 23 23 0 0 0-1.234 6.462v2.645a1.764 1.764 0 1 1-3.527 0v-2.645a23 23 0 0 0-1.234-6.455 16.621 16.621 0 0 1-6.739-2.865 25.13 25.13 0 0 0-6.3 4.159l-1.6 1.614v.018a2.645 2.645 0 1 1-2.645-2.645h.018l1.614-1.6a25.421 25.421 0 0 0 4.285-6.56 16.531 16.531 0 0 1-2.107-5.59A23 23 0 0 0 5.409 30.1H2.764a1.764 1.764 0 0 1 0-3.527h2.645a23 23 0 0 0 6.455-1.234 16.531 16.531 0 0 1 2.107-5.59 25.421 25.421 0 0 0-4.285-6.56l-1.614-1.6h-.018A2.645 2.645 0 1 1 10.7 8.936v.018l1.6 1.614a25.13 25.13 0 0 0 6.3 4.162 16.621 16.621 0 0 1 6.737-2.866 23 23 0 0 0 1.234-6.455V2.764a1.764 1.764 0 1 1 3.527 0v2.645a23 23 0 0 0 1.234 6.455 16.621 16.621 0 0 1 6.737 2.866 25.13 25.13 0 0 0 6.3-4.162l1.6-1.614v-.018a2.645 2.645 0 1 1 2.645 2.645H48.6l-1.614 1.6a25.42 25.42 0 0 0-4.285 6.56 16.531 16.531 0 0 1 2.107 5.59 23 23 0 0 0 6.455 1.234zm-14.99-.882a2.645 2.645 0 1 0-2.645 2.645 2.645 2.645 0 0 0 2.645-2.644zm-4.409 10.582a1.764 1.764 0 1 0-1.764 1.764 1.764 1.764 0 0 0 1.764-1.764zM28.335 20.4a1.764 1.764 0 1 0-1.764 1.764 1.764 1.764 0 0 0 1.764-1.764zM25.69 30.98a3.527 3.527 0 1 0-3.527 3.527 3.527 3.527 0 0 0 3.527-3.527z" data-name="Tracé 1137" transform="translate(-1 -1)" style="fill:#34c1ad"/>
    <ellipse id="prefix__Ellipse_186" cx="2.5" cy="3" class="prefix__cls-1" data-name="Ellipse 186" rx="2.5" ry="3" transform="translate(32.67 21.588)"/>
    <path id="prefix__Tracé_1138" d="M30.108 16a14.108 14.108 0 1 0 14.109 14.108A14.108 14.108 0 0 0 30.108 16zm-6.172 20.281a3.527 3.527 0 1 1 3.527-3.527 3.527 3.527 0 0 1-3.527 3.527zm4.409-12.345a1.764 1.764 0 1 1 1.764-1.764 1.764 1.764 0 0 1-1.764 1.764zm6.172 15.872a1.764 1.764 0 1 1 1.764-1.764 1.764 1.764 0 0 1-1.764 1.764zm3.527-9.7a2.645 2.645 0 1 1 2.645-2.645 2.645 2.645 0 0 1-2.645 2.645z" class="prefix__cls-3" data-name="Tracé 1138" transform="translate(-2.773 -2.773)"/>
    <path id="prefix__Tracé_1139" d="M24.409 30a4.409 4.409 0 1 0 4.409 4.409A4.409 4.409 0 0 0 24.409 30zm0 7.936a3.527 3.527 0 1 1 3.527-3.527 3.527 3.527 0 0 1-3.527 3.527z" class="prefix__cls-4" data-name="Tracé 1139" transform="translate(-3.246 -4.429)"/>
    <path id="prefix__Tracé_1140" d="M29.645 20a2.645 2.645 0 1 0 2.645 2.645A2.645 2.645 0 0 0 29.645 20zm0 4.409a1.764 1.764 0 1 1 1.764-1.764 1.764 1.764 0 0 1-1.764 1.764z" class="prefix__cls-4" data-name="Tracé 1140" transform="translate(-4.074 -3.246)"/>
    <path id="prefix__Tracé_1141" d="M36.645 38a2.645 2.645 0 1 0 2.645 2.645A2.645 2.645 0 0 0 36.645 38zm0 4.409a1.764 1.764 0 1 1 1.764-1.764 1.764 1.764 0 0 1-1.764 1.764z" class="prefix__cls-4" data-name="Tracé 1141" transform="translate(-4.902 -5.375)"/>
    <path id="prefix__Tracé_1142" d="M40.527 25a3.527 3.527 0 1 0 3.527 3.527A3.527 3.527 0 0 0 40.527 25zm0 6.172a2.645 2.645 0 1 1 2.645-2.645 2.645 2.645 0 0 1-2.645 2.645z" class="prefix__cls-4" data-name="Tracé 1142" transform="translate(-5.256 -3.838)"/>
    <circle id="prefix__Ellipse_187" cx="1.5" cy="1.5" r="1.5" class="prefix__cls-3" data-name="Ellipse 187" transform="translate(5.67 6.588)"/>
    <ellipse id="prefix__Ellipse_188" cx="2" cy="1.5" class="prefix__cls-3" data-name="Ellipse 188" rx="2" ry="1.5" transform="translate(45.67 6.588)"/>
    <circle id="prefix__Ellipse_189" cx="2" cy="2" r="2" class="prefix__cls-3" data-name="Ellipse 189" transform="translate(45.67 44.588)"/>
    <ellipse id="prefix__Ellipse_190" cx="1.5" cy="2" class="prefix__cls-4" data-name="Ellipse 190" rx="1.5" ry="2" transform="translate(34.67 29.588)"/>
    <ellipse id="prefix__Ellipse_191" cx="2" cy="1.5" class="prefix__cls-4" data-name="Ellipse 191" rx="2" ry="1.5" transform="translate(16.67 20.588)"/>
    <circle id="prefix__Ellipse_192" cx="2" cy="2" r="2" class="prefix__cls-4" data-name="Ellipse 192" transform="translate(28.67 16.588)"/>
    <ellipse id="prefix__Ellipse_193" cx="1.5" cy="2" class="prefix__cls-3" data-name="Ellipse 193" rx="1.5" ry="2" transform="translate(5.67 44.588)"/>
    <circle id="prefix__Ellipse_194" cx="1" cy="1" r="1" class="prefix__cls-3" data-name="Ellipse 194" transform="translate(51.67 26.588)"/>
    <ellipse id="prefix__Ellipse_195" cx=".5" cy="1" class="prefix__cls-4" data-name="Ellipse 195" rx=".5" ry="1" transform="translate(27.67 25.588)"/>
    <ellipse id="prefix__Ellipse_196" cx="1" cy=".5" class="prefix__cls-4" data-name="Ellipse 196" rx="1" ry=".5" transform="translate(24.67 36.588)"/>
    <circle id="prefix__Ellipse_197" cx="1" cy="1" r="1" class="prefix__cls-3" data-name="Ellipse 197" transform="translate(.67 26.588)"/>
    <circle id="prefix__Ellipse_198" cx="1" cy="1" r="1" class="prefix__cls-3" data-name="Ellipse 198" transform="translate(26.67 .588)"/>
    <circle id="prefix__Ellipse_199" cx="1" cy="1" r="1" class="prefix__cls-3" data-name="Ellipse 199" transform="translate(26.67 51.588)"/>
</svg>
