<svg xmlns="http://www.w3.org/2000/svg" width="552.407" height="500.512" viewBox="0 0 552.407 500.512">
  <g id="illustration" transform="translate(-285.122 -1741)">
    <g id="_12-Mask" data-name="12-Mask" transform="translate(550.122 1916.512)">
      <path id="Tracé_844" data-name="Tracé 844" d="M44.24,96.221A66.609,66.609,0,0,1,21.78,77.806l1.171-.9V34.322S38.918,29,76.175,29,129.4,34.322,129.4,34.322V76.9l1.171.9a66.609,66.609,0,0,1-22.46,18.415,73.576,73.576,0,0,1-63.868,0Z" transform="translate(67.529 120.056)" fill="#f5f5f5"/>
      <ellipse id="Ellipse_129" data-name="Ellipse 129" cx="9.062" cy="15.262" rx="9.062" ry="15.262" transform="translate(98.214 111.781)" fill="#5e3616"/>
      <ellipse id="Ellipse_130" data-name="Ellipse 130" cx="9.062" cy="15.262" rx="9.062" ry="15.262" transform="translate(170.71 111.781)" fill="#5e3616"/>
      <path id="Tracé_845" data-name="Tracé 845" d="M165.618,59.676c-1.6,2.182-27.73,37.15-63.815,37.15V64.892L69.868,91.5v26.612H59.224a10.677,10.677,0,0,0-10.645,10.645v5.322A28.741,28.741,0,0,0,53.848,150c-1.6-.639-26.559-11.443-26.559-37.2A57.482,57.482,0,0,1,48.579,70.215,45.841,45.841,0,0,1,6,43.6S48.579,38.28,69.868,27.636,101.8,1.024,144.381,1.024A62.724,62.724,0,0,1,197.6,27.636a23.062,23.062,0,0,1,21.29-10.645c15.967,0,42.579,10.645,42.579,42.579v45.772a21.234,21.234,0,0,1-4.686,13.309l-16.6,20.754-.585.053a25.985,25.985,0,0,0,.585-5.376v-5.322a10.677,10.677,0,0,0-10.645-10.645H218.894V96.826c-26.612,0-26.612-42.579-26.612-42.579s-15.967,26.612-31.934,26.612Z" transform="translate(-0.678 -0.994)" fill="#5e3616"/>
      <path id="Tracé_846" data-name="Tracé 846" d="M194.96,74.868H184.315V53.579C157.7,53.579,157.7,11,157.7,11S141.737,37.612,125.77,37.612l5.269-21.183c-1.6,2.182-27.729,37.15-63.815,37.15V21.645L35.289,48.257V74.868H24.645A10.677,10.677,0,0,0,14,85.513v5.322a28.741,28.741,0,0,0,5.269,15.914l.053.053A41.19,41.19,0,0,0,40.612,122.77a76.945,76.945,0,0,0,14.8,32.839l1.171-.9V112.125S72.546,106.8,109.8,106.8s53.224,5.322,53.224,5.322V154.7l1.171.9a76.945,76.945,0,0,0,14.8-32.839,39.444,39.444,0,0,0,26.026-26.559,25.981,25.981,0,0,0,.585-5.376V85.513A10.677,10.677,0,0,0,194.96,74.868ZM72.546,101.48c-5.855,0-10.645-7.132-10.645-15.967s4.79-15.967,10.645-15.967,10.645,7.132,10.645,15.967S78.4,101.48,72.546,101.48Zm74.513,0c-5.855,0-10.645-7.132-10.645-15.967s4.79-15.967,10.645-15.967S157.7,76.678,157.7,85.513,152.914,101.48,147.059,101.48Z" transform="translate(33.901 42.253)" fill="#f2c4b2"/>
      <path id="Tracé_847" data-name="Tracé 847" d="M93.845,67.124a10.6,10.6,0,0,0,4.9,8.942C96.666,78.833,85.6,91.5,61.911,91.5S27.156,78.833,25.08,76.066a10.6,10.6,0,0,0,4.9-8.942V41.63a73.576,73.576,0,0,0,63.868,0Z" transform="translate(81.793 174.647)" fill="#f2b59d"/>
      <path id="Tracé_848" data-name="Tracé 848" d="M292.407,99.408v22.673H5V99.408A31.987,31.987,0,0,1,29.536,68.325l79.037-18.788a10.732,10.732,0,0,0,3.3-1.437c2.076,2.768,13.146,15.435,36.831,15.435S183.459,50.868,185.534,48.1a10.73,10.73,0,0,0,3.3,1.437l79.037,18.788A31.987,31.987,0,0,1,292.407,99.408Z" transform="translate(-5 202.613)" fill="#34c1ad"/>
      <path id="Tracé_849" data-name="Tracé 849" d="M58.224,109.876a12.2,12.2,0,0,1,8.7-11.709L211.284,54.858l-22.45-5.322a10.73,10.73,0,0,1-3.3-1.437c-2.076,2.768-13.146,15.435-36.831,15.435S113.949,50.867,111.873,48.1a10.73,10.73,0,0,1-3.3,1.437L29.536,68.329A31.987,31.987,0,0,0,5,99.412v22.673H70.433a12.209,12.209,0,0,1-12.209-12.209Z" transform="translate(-5 202.608)" fill="#21abab"/>
      <path id="Tracé_850" data-name="Tracé 850" d="M93.845,41.63a73.576,73.576,0,0,1-63.868,0V67.124a10.6,10.6,0,0,1-4.9,8.942A37.826,37.826,0,0,0,37.13,85.7L93.845,50.252Z" transform="translate(81.793 174.647)" fill="#ed9776"/>
      <path id="Tracé_851" data-name="Tracé 851" d="M106.243,52.692a10.874,10.874,0,0,1-6.919-5.322c-.1.117-.234.2-.325.325s-.218.255-.319.389c-1.022,1.363-10.6,13.306-32.573,13.306S34.556,49.446,33.534,48.083c-.1-.133-.208-.261-.319-.389s-.224-.208-.325-.325a10.874,10.874,0,0,1-6.919,5.322l-1.863.442a6.919,6.919,0,0,0,1.1,1.6c2.693,3.444,15.046,17.282,40.9,17.282S104.321,58.174,107,54.715a6.92,6.92,0,0,0,1.1-1.6Z" transform="translate(77.592 199.457)" fill="#e3e3e3"/>
      <path id="Tracé_852" data-name="Tracé 852" d="M26.645,25H21.322A5.322,5.322,0,0,0,16,30.322v5.322c0,5.881,4.764,15.967,10.645,15.967h0Z" transform="translate(42.546 102.766)" fill="#f2a283"/>
      <path id="Tracé_853" data-name="Tracé 853" d="M46,25h5.322a5.322,5.322,0,0,1,5.322,5.322v5.322c0,5.881-4.79,15.967-10.645,15.967h0Z" transform="translate(172.217 102.766)" fill="#f2a283"/>
      <path id="Tracé_854" data-name="Tracé 854" d="M31.289,14A57.482,57.482,0,0,0,10,56.579c0,25.76,24.962,36.565,26.559,37.2a28.741,28.741,0,0,1-5.269-15.914V72.546A10.677,10.677,0,0,1,41.934,61.9H52.579V35.289L20.645,45.934A46.624,46.624,0,0,1,31.289,14Z" transform="translate(16.612 55.22)" fill="#3b220e"/>
      <path id="Tracé_855" data-name="Tracé 855" d="M46,19V40.289H56.645A10.677,10.677,0,0,1,67.289,50.934V29.645Z" transform="translate(172.217 76.832)" fill="#3b220e"/>
      <path id="Tracé_856" data-name="Tracé 856" d="M49.934,13,18,39.612V50.257L49.934,23.645Z" transform="translate(51.191 50.898)" fill="#d9896d"/>
      <path id="Tracé_857" data-name="Tracé 857" d="M66.934,21.645s0,42.579,26.612,42.579V53.579C66.934,53.579,66.934,11,66.934,11S52.729,34.653,37.714,37.34L35,48.257C50.967,48.257,66.934,21.645,66.934,21.645Z" transform="translate(124.671 42.253)" fill="#d9896d"/>
      <path id="Tracé_858" data-name="Tracé 858" d="M83.988,27.4,87.815,12.02C86.218,14.2,60.086,49.17,24,49.17V59.815C52.868,59.815,75.329,37.461,83.988,27.4Z" transform="translate(77.125 46.662)" fill="#d9896d"/>
      <path id="Tracé_859" data-name="Tracé 859" d="M41.645,37.693v-.048C41.645,31.764,39.26,27,36.322,27S31,31.764,31,37.645v.048c1.74,0,3.486-.048,5.322-.048S39.9,37.645,41.645,37.693Z" transform="translate(107.381 111.411)" fill="#d9896d"/>
      <path id="Tracé_860" data-name="Tracé 860" d="M76.174,91.606a53.385,53.385,0,0,1-11.422-1.144A26.394,26.394,0,0,1,44.24,64.537V29.292A115.262,115.262,0,0,0,22.951,33.06V75.639l-1.171.9A66.609,66.609,0,0,0,44.24,94.959a73.576,73.576,0,0,0,63.868,0,66.609,66.609,0,0,0,22.46-18.415l-1.171-.9S102.786,91.606,76.174,91.606Z" transform="translate(67.529 121.318)" fill="#d4d4d4"/>
      <path id="Tracé_861" data-name="Tracé 861" d="M27.156,43.145a2.661,2.661,0,0,1-.841-5.184,135.625,135.625,0,0,1,76.195,0,2.662,2.662,0,0,1-1.682,5.051,130.43,130.43,0,0,0-72.831,0A2.577,2.577,0,0,1,27.156,43.145Z" transform="translate(79.291 135.184)" fill="#d4d4d4"/>
      <path id="Tracé_862" data-name="Tracé 862" d="M27.156,47.145a2.661,2.661,0,0,1-.841-5.184,135.624,135.624,0,0,1,76.195,0,2.662,2.662,0,0,1-1.682,5.051,130.429,130.429,0,0,0-72.831,0,2.576,2.576,0,0,1-.841.133Z" transform="translate(79.291 152.473)" fill="#d4d4d4"/>
      <path id="Tracé_863" data-name="Tracé 863" d="M85.256,54.967H74.612V44.322a5.322,5.322,0,1,0-10.645,0V54.967H53.322a5.322,5.322,0,0,0,0,10.645H63.967V76.257a5.322,5.322,0,1,0,10.645,0V65.612H85.256a5.322,5.322,0,0,0,0-10.645Z" transform="translate(180.861 163.279)" fill="#34c1ad"/>
      <path id="Tracé_865" data-name="Tracé 865" d="M170.493,22.852a2.661,2.661,0,0,0-3.635.99L146.633,59.289A215.024,215.024,0,0,0,94.66,54.435a215.023,215.023,0,0,0-51.946,4.854L22.489,23.842a2.67,2.67,0,1,0-4.63,2.661L38.776,63.132V105a2.661,2.661,0,0,0,2.661,2.661,2.051,2.051,0,0,0,.314-.064c-.484-.575-1.017-1.1-1.485-1.693l1.171-.9V62.419S57.4,57.1,94.66,57.1s53.224,5.322,53.224,5.322V105l1.171.9c-.468.591-1,1.118-1.485,1.693a2.05,2.05,0,0,0,.314.064A2.661,2.661,0,0,0,150.545,105V63.132l20.944-36.65a2.661,2.661,0,0,0-1-3.63Z" transform="translate(49.043 91.959)" fill="#bfbfbf"/>
      <path id="Tracé_866" data-name="Tracé 866" d="M25.653,34.366c-.112.032-.218.059-.33.08-1.6.287-2.821-2.251-2.821-3.97,0-.484.181-11.975,15.967-11.975S54.436,29.991,54.436,30.475a4.2,4.2,0,0,1-1.794,3.593c-1.166.708-2.289.048-3.193-1.064-.442-.532-.782-1.213-1.256-1.724a5.9,5.9,0,0,0-1.6-1.134,23.535,23.535,0,0,0-4.407-2.007,12.742,12.742,0,0,0-11.864,2.613A16.925,16.925,0,0,1,25.653,34.366Z" transform="translate(70.65 74.671)" fill="#3b220e"/>
      <path id="Tracé_867" data-name="Tracé 867" d="M64.285,34.366c.112.032.218.059.33.08,1.6.287,2.821-2.251,2.821-3.97,0-.484-.181-11.975-15.967-11.975S35.5,29.991,35.5,30.475A4.2,4.2,0,0,0,37.3,34.068c1.16.708,2.289.048,3.193-1.064.442-.532.782-1.213,1.251-1.724a5.982,5.982,0,0,1,1.6-1.134,23.732,23.732,0,0,1,4.412-2.007,12.742,12.742,0,0,1,11.864,2.613,16.851,16.851,0,0,0,4.673,3.614Z" transform="translate(126.83 74.671)" fill="#3b220e"/>
    </g>
    <g id="Groupe_145" data-name="Groupe 145" transform="translate(-69.878)">
      <g id="_30-Doctor" data-name="30-Doctor" transform="translate(378.051 1741)">
        <path id="Tracé_439" data-name="Tracé 439" d="M44.218,11.62V55.052H36.146A16.194,16.194,0,0,0,20,71.2V30.833A50.681,50.681,0,0,1,44.218,11.62Z" transform="translate(60.728 74.113)" fill="#40240f"/>
        <path id="Tracé_440" data-name="Tracé 440" d="M65.218,30.833V71.2A16.194,16.194,0,0,0,49.073,55.052H41V11.62A50.681,50.681,0,0,1,65.218,30.833Z" transform="translate(209.256 74.113)" fill="#40240f"/>
        <path id="Tracé_441" data-name="Tracé 441" d="M111.116,51.95l6.539,24.622H45V52.354h64.582Z" transform="translate(237.547 359.358)" fill="#13969d"/>
        <path id="Tracé_442" data-name="Tracé 442" d="M93.437,55v64.582H45V55Z" transform="translate(237.547 380.93)" fill="#f2c4b2"/>
        <path id="Tracé_443" data-name="Tracé 443" d="M327.253,60.511,245.395,37.1,181.943,84.729,118.491,37.1,36.633,60.511,10.8,157.384H77v88.8H286.889v-88.8h64.582l1.534-.4ZM246.525,221.967H222.307a16.194,16.194,0,0,1-16.146-16.146V157.384h56.509v48.437a16.194,16.194,0,0,1-16.146,16.146Z" transform="translate(-4.342 254.327)" fill="#34c1ad"/>
        <path id="Tracé_444" data-name="Tracé 444" d="M213.747,82.784V94.005a24.162,24.162,0,0,1-10.818,20.182l-13.4,8.961A179.878,179.878,0,0,0,116.873,107a179.878,179.878,0,0,0-72.655,16.146l-13.4-8.961A24.162,24.162,0,0,1,20,94.005V82.784A16.194,16.194,0,0,1,36.146,66.639h8.073V23.207a169.262,169.262,0,0,1,72.655-13.078,169.261,169.261,0,0,1,72.655,13.078V66.639H197.6a16.194,16.194,0,0,1,16.146,16.146Z" transform="translate(60.728 62.526)" fill="#f2c4b2"/>
        <path id="Tracé_445" data-name="Tracé 445" d="M189.528,86.733a169.261,169.261,0,0,0-72.655-13.078A169.262,169.262,0,0,0,44.218,86.733,50.681,50.681,0,0,0,20,105.946V65.582A64.582,64.582,0,0,1,84.582,1h64.582a64.582,64.582,0,0,1,64.582,64.582v40.364A50.681,50.681,0,0,0,189.528,86.733Z" transform="translate(60.728 -1)" fill="#34c1ad"/>
        <path id="Tracé_446" data-name="Tracé 446" d="M44.218,27.766V11.62A50.681,50.681,0,0,0,20,30.833V46.979A50.681,50.681,0,0,1,44.218,27.766Z" transform="translate(60.728 74.113)" fill="#241408"/>
        <path id="Tracé_447" data-name="Tracé 447" d="M41,11.62V27.766A50.681,50.681,0,0,1,65.218,46.979V30.833A50.681,50.681,0,0,0,41,11.62Z" transform="translate(209.256 74.113)" fill="#241408"/>
        <path id="Tracé_448" data-name="Tracé 448" d="M95.655,26.275A169.262,169.262,0,0,1,168.31,39.353V23.207A169.262,169.262,0,0,0,95.655,10.129,169.262,169.262,0,0,0,23,23.207V39.353A169.262,169.262,0,0,1,95.655,26.275Z" transform="translate(81.946 62.526)" fill="#f2a283"/>
        <path id="Tracé_449" data-name="Tracé 449" d="M91.509,52v48.437a16.194,16.194,0,0,1-16.146,16.146H51.146A16.194,16.194,0,0,1,35,100.437V52Z" transform="translate(166.819 359.712)" fill="#13969d"/>
        <path id="Tracé_450" data-name="Tracé 450" d="M151.044,44.88,87.592,92.509,24.14,44.88,55.3,36,87.592,60.218,119.883,36Z" transform="translate(90.009 246.547)" fill="#13969d"/>
        <path id="Tracé_451" data-name="Tracé 451" d="M127.946,87.228a73.914,73.914,0,0,1-64.582,0A73.018,73.018,0,0,1,23,38.146,179.879,179.879,0,0,1,95.655,22,179.878,179.878,0,0,1,168.31,38.146,73.018,73.018,0,0,1,127.946,87.228Z" transform="translate(81.946 147.528)" fill="#13969d"/>
        <path id="Tracé_452" data-name="Tracé 452" d="M92.582,30.08V77.871L60.291,102.089,28,77.871V30.08A73.914,73.914,0,0,0,92.582,30.08Z" transform="translate(117.31 204.676)" fill="#f2b59d"/>
        <rect id="Rectangle_55" data-name="Rectangle 55" width="46" height="64" transform="translate(27.202 435.509)" fill="#f2c4b2"/>
        <path id="Tracé_453" data-name="Tracé 453" d="M82.655,52V76.218H10L16.458,52Z" transform="translate(-10 359.712)" fill="#13969d"/>
        <path id="Tracé_454" data-name="Tracé 454" d="M93.437,55H45v64.582H69.218V87.291A16.146,16.146,0,0,1,85.364,71.146h8.073Z" transform="translate(237.547 380.93)" fill="#f2a283"/>
        <path id="Tracé_455" data-name="Tracé 455" d="M13,55H61.437v64.582H37.218V87.291A16.146,16.146,0,0,0,21.073,71.146H13Z" transform="translate(11.218 380.93)" fill="#f2a283"/>
        <path id="Tracé_456" data-name="Tracé 456" d="M92.582,30.08A73.914,73.914,0,0,1,28,30.08V77.871l5.7,4.27,58.883-39.25Z" transform="translate(117.31 204.676)" fill="#f2a283"/>
        <path id="Tracé_457" data-name="Tracé 457" d="M41,18V50.291l7.217-3.609A16.146,16.146,0,0,0,57.146,32.24V26.073A8.073,8.073,0,0,0,49.073,18Z" transform="translate(209.256 119.237)" fill="#d9896d"/>
        <path id="Tracé_458" data-name="Tracé 458" d="M37.146,18V50.291l-7.217-3.609A16.146,16.146,0,0,1,21,32.24V26.073A8.073,8.073,0,0,1,29.073,18Z" transform="translate(67.801 119.237)" fill="#d9896d"/>
        <ellipse id="Ellipse_95" data-name="Ellipse 95" cx="4.036" cy="8.073" rx="4.036" ry="8.073" transform="translate(173.565 153.383)" fill="#d9896d"/>
        <path id="Tracé_459" data-name="Tracé 459" d="M37.194,28.062a2.582,2.582,0,0,1-.339.081c-1.615.291-2.85-2.277-2.85-4.036,0-.492.186-12.109,16.146-12.109S66.3,23.614,66.3,24.106a4.262,4.262,0,0,1-1.816,3.633c-1.171.718-2.317.048-3.229-1.049-.444-.549-.807-1.227-1.267-1.744A6.143,6.143,0,0,0,58.369,23.8,23.756,23.756,0,0,0,53.9,21.773a12.916,12.916,0,0,0-12,2.64A17.088,17.088,0,0,1,37.194,28.062Z" transform="translate(159.782 76.779)" fill="#43251a"/>
        <path id="Tracé_460" data-name="Tracé 460" d="M55.1,28.062a2.583,2.583,0,0,0,.339.081c1.615.291,2.85-2.277,2.85-4.036,0-.492-.186-12.109-16.146-12.109S26,23.614,26,24.106a4.262,4.262,0,0,0,1.816,3.633c1.171.718,2.317.048,3.229-1.049.444-.549.807-1.227,1.267-1.744A6.143,6.143,0,0,1,33.929,23.8a23.758,23.758,0,0,1,4.464-2.026,12.916,12.916,0,0,1,12,2.64A17.09,17.09,0,0,0,55.1,28.062Z" transform="translate(103.162 76.779)" fill="#43251a"/>
        <ellipse id="Ellipse_96" data-name="Ellipse 96" cx="8.073" cy="16.146" rx="8.073" ry="16.146" transform="translate(205.856 125.128)" fill="#43251a"/>
        <ellipse id="Ellipse_97" data-name="Ellipse 97" cx="8.073" cy="16.146" rx="8.073" ry="16.146" transform="translate(133.201 125.128)" fill="#43251a"/>
        <path id="Tracé_461" data-name="Tracé 461" d="M173.383,49.437h-88.8A24.218,24.218,0,0,1,84.582,1,64.582,64.582,0,0,0,20,65.582v40.364A50.681,50.681,0,0,1,44.218,86.733a169.262,169.262,0,0,1,72.655-13.078,169.262,169.262,0,0,1,72.655,13.078,50.681,50.681,0,0,1,24.218,19.213V89.8A40.364,40.364,0,0,0,173.383,49.437Z" transform="translate(60.728 -1)" fill="#21abab"/>
        <path id="Tracé_462" data-name="Tracé 462" d="M189.528,21.207A169.262,169.262,0,0,0,116.873,8.129,169.261,169.261,0,0,0,44.218,21.207,50.681,50.681,0,0,0,20,40.42V56.566A50.681,50.681,0,0,1,44.218,37.353a169.262,169.262,0,0,1,72.655-13.078,169.262,169.262,0,0,1,72.655,13.078,50.681,50.681,0,0,1,24.218,19.213V40.42a50.681,50.681,0,0,0-24.218-19.213Z" transform="translate(60.728 48.38)" fill="#13969d"/>
        <path id="Tracé_463" data-name="Tracé 463" d="M61.146,68.146V52H45V76.218h72.655l-2.147-8.073Z" transform="translate(237.547 359.712)" fill="#107c82"/>
        <path id="Tracé_464" data-name="Tracé 464" d="M66.509,68.146H12.155L10,76.218H82.655V52H66.509Z" transform="translate(-10 359.712)" fill="#107c82"/>
        <path id="Tracé_465" data-name="Tracé 465" d="M45,101.509V45h0A16.146,16.146,0,0,1,61.146,61.146v40.364Z" transform="translate(237.547 310.202)" fill="#21abab"/>
        <path id="Tracé_466" data-name="Tracé 466" d="M33.146,101.509V45h0A16.146,16.146,0,0,0,17,61.146v40.364Z" transform="translate(39.509 310.202)" fill="#21abab"/>
        <path id="Tracé_467" data-name="Tracé 467" d="M64.294,46.147l2.422-1.615L55.3,36,24.14,44.88,87.592,92.509l8.493-6.378L63.608,59.064a8.073,8.073,0,0,1,.686-12.916Z" transform="translate(90.009 246.547)" fill="#107c82"/>
        <path id="Tracé_468" data-name="Tracé 468" d="M188.528,151.946H164.31a16.146,16.146,0,0,1-16.081-15.484C72.28,121.883,19,87.364,19,47V176.165H228.892V143.873c-8.832,0-17.51-.283-26.059-.767A16.145,16.145,0,0,1,188.528,151.946Z" transform="translate(53.655 324.348)" fill="#21abab"/>
        <rect id="Rectangle_56" data-name="Rectangle 56" width="55" height="18" transform="translate(201.202 408.509)" fill="#107c82"/>
        <path id="Tracé_469" data-name="Tracé 469" d="M47.767,22.871A160.273,160.273,0,0,0,23,31.985,73.018,73.018,0,0,0,63.364,81.068a73.914,73.914,0,0,0,64.582,0c.557-.266,1.082-.605,1.615-.88C86.726,77.952,52.345,53.709,47.767,22.871Z" transform="translate(81.946 153.689)" fill="#107c82"/>
        <path id="Tracé_470" data-name="Tracé 470" d="M43.718,61.755V220.3l-21.457,7.153a4.036,4.036,0,0,0-2.761,3.835v40.364h8.073V234.189l20.182-6.725,20.182,6.725v37.458h8.073V231.283a4.036,4.036,0,0,0-2.761-3.835L51.791,220.3V61.755A20.182,20.182,0,0,1,71.973,41.573H88.119V33.5H71.973A28.255,28.255,0,0,0,43.718,61.755Z" transform="translate(57.191 228.865)" fill="#e3e3e3"/>
        <path id="Tracé_471" data-name="Tracé 471" d="M52.146,33.5H36v8.073H52.146A20.182,20.182,0,0,1,72.327,61.755V182.846H80.4V61.755A28.255,28.255,0,0,0,52.146,33.5Z" transform="translate(173.892 228.865)" fill="#e3e3e3"/>
        <path id="Tracé_1151" data-name="Tracé 1151" d="M65.454,55.623H49.038V39.208a8.208,8.208,0,0,0-16.415,0V55.623H16.208a8.208,8.208,0,1,0,0,16.415H32.623V88.454a8.208,8.208,0,0,0,16.415,0V72.038H65.454a8.208,8.208,0,1,0,0-16.415Z" transform="translate(-31.051 129.276)" fill="#34c1ad"/>
      </g>
    </g>
  </g>
</svg>
