<svg xmlns="http://www.w3.org/2000/svg" id="prefix___20-World" width="94.187" height="94.179" data-name="20-World" viewBox="0 0 94.187 94.179">
    <defs>
        <style>
            .prefix__cls-1{fill:#c74841}.prefix__cls-3{fill:#ad3a34}.prefix__cls-4{fill:#21abab}.prefix__cls-8{fill:#bfbfbf}
        </style>
    </defs>
    <path id="prefix__Tracé_701" d="M56.557 47l4.481 2.993A47.043 47.043 0 0 1 52 60.186V50.038z" class="prefix__cls-1" data-name="Tracé 701" transform="translate(25.476 22.881)"/>
    <path id="prefix__Tracé_702" d="M29.557 18v6.077h-3.038L25 21.038z" class="prefix__cls-1" data-name="Tracé 702" transform="translate(11.459 7.825)"/>
    <path id="prefix__Tracé_703" d="M74.613 32.191l1.519-1.519-1.519-4.557-7.6-6.077v-1.519H60.94l-6.077 1.519h-6.076L47.268 17h-7.6l-3.038 4.557h6.077L44.23 24.6l-4.557 1.519h-3.039l-7.6 7.6v4.557h1.519l6.077-6.077h3.038l3.038 6.077h4.557v3.038h-7.6l-1.519-1.519h-3.029L26 47.383v6.077l3.038 3.04h7.6v1.519l1.519 3.038v4.557l1.519 7.6h6.077l4.557-7.6v-1.521l-1.519-3.038 4.557-3.038v-3.038h-7.6v-9.115h3.038l1.519 4.557h4.557v-4.557l-1.519-3.038 6.077 1.519v6.077h1.52l4.56-4.558 1.519 6.077v6.077h3.038V51.94h3.038v-1.519l-3.038-3.038h1.519l1.519-4.557v-3.039h3.038V35.23l-1.519-1.519z" class="prefix__cls-1" data-name="Tracé 703" transform="translate(11.979 7.306)"/>
    <path id="prefix__Tracé_704" d="M25.268 14.557l-6.077 1.519-9.115 7.6L4 29.749v3.038h3.038v13.672l3.16 2.1 1.4.942 4.557 6.077v6.077l3.038 1.519 1.519 9.115h3.038l4.557-6.077V63.17l1.519-3.038-4.557-4.557-3.039-4.558h-6.077l-1.519-4.557H11.6v-3.039h4.557v-3.038l1.519-1.519 1.519-1.519v-3.039l4.557-1.519v-1.519L22.23 28.23h-4.558l-1.519 3.038-3.038-1.519 1.519-3.038 1.519-1.519 1.519-1.519 1.519 1.519 3.038-1.519v-3.039l-1.519-1.519h6.077v7.6h3.038v-3.043l4.557-1.519 4.557-6.077v-1.519l1.519-1.519V10z" class="prefix__cls-1" data-name="Tracé 704" transform="translate(.557 3.672)"/>
    <path id="prefix__Tracé_705" d="M1 48.088a47.093 47.093 0 1 1 86.515 25.78l-4.481-2.993-4.557 3.038v10.149A47.094 47.094 0 0 1 1 48.088zm34.94-21.267l4.56-6.077v-1.519l1.519-1.519v-3.039l-15.194 4.558-6.077 1.519-9.115 7.6-6.076 6.072v3.038H8.6v13.673l3.16 2.1 1.4.942 4.557 6.077v6.077l3.038 1.519 1.519 9.115h3.038l4.557-6.077v-3.043l1.514-3.037-4.557-4.557-3.038-4.557h-6.077l-1.519-4.557h-3.039v-3.041h4.557V45.05l1.519-1.519 1.519-1.519v-3.038l4.557-1.519v-1.52L23.787 32.9H19.23l-1.519 3.038-3.038-1.519 1.519-3.038 1.519-1.519 1.519-1.522 1.519 1.519 3.038-1.519V25.3l-1.519-1.519h6.077v7.6h3.038V28.34zm1.519 3.038l1.52 3.041h3.038v-6.079zM66.323 63.28h-7.6v-9.115h3.038l1.519 4.557h4.557v-4.557l-1.519-3.038 6.082 1.519v6.077h1.519l4.557-4.557L80 60.242v6.077h3.038v-6.077h3.038v-1.52l-3.038-3.038h1.519l1.519-4.557v-3.039h3.034v-4.557l-1.519-1.519v-1.519l1.519-1.519-1.519-4.557L80 28.34v-1.519h-6.081l-6.077 1.519h-6.076l-1.519-3.04h-7.6l-3.038 4.557h6.077l1.522 3.043-4.557 1.519h-3.038l-7.6 7.6v4.557h1.519l6.077-6.077h3.038l3.038 6.077h4.557v3.038h-7.6l-1.519-1.519h-3.029l-9.115 7.6v6.077l3.038 3.028h7.6v1.519l1.519 3.038v4.557l1.519 7.6h6.077l4.557-7.6v-1.519l-1.519-3.038 4.557-3.038z" data-name="Tracé 705" transform="translate(-1 -.995)" style="fill:#34c1ad"/>
    <path id="prefix__Tracé_706" d="M52 51.871V59.6a47.043 47.043 0 0 0 9.039-10.19l-1.926-1.287A46.86 46.86 0 0 1 52 51.871z" class="prefix__cls-3" data-name="Tracé 706" transform="translate(25.476 23.464)"/>
    <path id="prefix__Tracé_707" d="M41.229 54.757l.921-1.534a47.44 47.44 0 0 1-7.444-.682l.447 2.216z" class="prefix__cls-3" data-name="Tracé 707" transform="translate(16.498 25.757)"/>
    <path id="prefix__Tracé_708" d="M4 25.627v3.038h3.038v13.673l3.16 2.1 1.4.942 4.557 6.077v6.077l3.038 1.519 1.519 9.115h3.038l4.557-6.077v-2.013A47.3 47.3 0 0 1 17.475 46.9h-1.322l-1.519-4.557H11.6V39.3h2.519a46.789 46.789 0 0 1-2.1-21.361l-1.934 1.612z" class="prefix__cls-3" data-name="Tracé 708" transform="translate(.557 7.794)"/>
    <path id="prefix__Tracé_709" d="M9 35.038h3.038l1.519 4.562h1.322a46.774 46.774 0 0 1-3.36-7.6H9z" class="prefix__cls-4" data-name="Tracé 709" transform="translate(3.153 15.093)"/>
    <path id="prefix__Tracé_710" d="M60.164 76.335c-.2 0-.4-.012-.6-.015l-.921 1.534h-6.074l-.444-2.216a46.908 46.908 0 0 1-22.343-10.426v2.008l-4.558 6.08h-3.038l-1.519-9.115-3.038-1.519v-6.079l-4.558-6.077-1.4-.942-3.16-2.1V33.8H5.475v-3.039l6.077-6.077 1.934-1.612A46.774 46.774 0 0 1 18.111 8.05 47.091 47.091 0 1 0 78.4 80.41v-7.736a46.942 46.942 0 0 1-18.23 3.661z" class="prefix__cls-4" data-name="Tracé 710" transform="translate(-.918 2.66)"/>
    <path id="prefix__Tracé_711" d="M58.608 50.531a46.9 46.9 0 0 0 2.605-4.568 47.49 47.49 0 0 1-4.532 3.281z" class="prefix__cls-4" data-name="Tracé 711" transform="translate(27.907 22.342)"/>
    <path id="prefix__Tracé_712" d="M45.644 11.557H37V7c5.545.076 7.808 2.917 8.644 4.557z" data-name="Tracé 712" transform="translate(17.689 2.115)" style="fill:#96e0ff"/>
    <path id="prefix__Tracé_713" d="M22.067 11.133L16.75 1h5.317l11.409 9.647c-3.676.2-7.626.41-11.409.623z" data-name="Tracé 713" transform="translate(7.177 -1)" style="fill:#d4d4d4"/>
    <path id="prefix__Tracé_714" d="M55.689 13.115h8.644a4.915 4.915 0 0 1 .471 1.139s0 3.418-5.317 3.418H48.276L31.261 29.825h-7.094L34.1 17.672H8.155a5.141 5.141 0 0 1-5.241-3.813L1 4h3.98l6.654 6.836s8.765-.562 18.61-1.124c3.783-.213 7.732-.425 11.409-.623 6.046-.3 11.318-.532 13.839-.532h.2z" data-name="Tracé 714" transform="translate(-1 .557)" style="fill:#e3e3e3"/>
    <path id="prefix__Tracé_715" d="M11.6 17.557h12.442l-1.2 1.467v1.018L28.6 13h-7.277l-6.077 1.519z" class="prefix__cls-3" data-name="Tracé 715" transform="translate(4.503 5.23)"/>
    <path id="prefix__Tracé_716" d="M15.734 22l-2.484 3.038h5.7L17.428 22z" class="prefix__cls-3" data-name="Tracé 716" transform="translate(5.36 9.902)"/>
    <path id="prefix__Tracé_717" d="M18.441 14.519L24.518 13H8.59a47.107 47.107 0 0 0-3.145 4.557H14.8z" class="prefix__cls-4" data-name="Tracé 717" transform="translate(1.308 5.23)"/>
    <path id="prefix__Tracé_718" d="M24.053 25.157h-7.094l4.178-5.11v-1.018l-6.251 7.647h1.694l1.52 3.039h1.4l17.01-12.153h11.211c5.317 0 5.317-3.418 5.317-3.418A4.915 4.915 0 0 0 52.567 13v-.012c-.1 0-.182.012-.283.012H41.067L24.175 25.071v.087z" class="prefix__cls-4" data-name="Tracé 718" transform="translate(6.208 5.226)"/>
    <path id="prefix__Tracé_719" d="M26.351 8.6a3.038 3.038 0 0 1-2.528-1.353L19.662 1H16.75l5.317 10.133v.137c3.783-.213 7.732-.425 11.409-.623L31.05 8.6z" class="prefix__cls-8" data-name="Tracé 719" transform="translate(7.177 -1)"/>
    <path id="prefix__Tracé_720" d="M9.115 16.153a4.557 4.557 0 0 1-4.42-3.453L2.519 4H1l1.914 9.859a5.141 5.141 0 0 0 5.241 3.813h25.76l2.025-1.519z" class="prefix__cls-8" data-name="Tracé 720" transform="translate(-1 .557)"/>
    <path id="prefix__Tracé_721" d="M45.672 12.771H33.519L32 14.29l.027.111.152-.111h11.215c5.317 0 5.317-3.418 5.317-3.418s-.033-.137-.114-.357a3.038 3.038 0 0 1-2.925 2.256z" class="prefix__cls-8" data-name="Tracé 721" transform="translate(15.094 3.94)"/>
    <path id="prefix__Tracé_722" d="M39.519 10h4.557A9.173 9.173 0 0 0 38 7.078v1.4A1.519 1.519 0 0 0 39.519 10z" data-name="Tracé 722" transform="translate(18.208 2.155)" style="fill:#b3f5ff"/>
</svg>
