<svg xmlns="http://www.w3.org/2000/svg" id="prefix__Coronovirus_home_stay" width="91.961" height="93.273" data-name="Coronovirus home stay" viewBox="0 0 91.961 93.273">
    <defs>
        <style>
            .prefix__cls-1{fill:#bde5ec}.prefix__cls-2{fill:#e44450}.prefix__cls-3{fill:#2652e4}.prefix__cls-5{fill:#ffc298}.prefix__cls-6{fill:#fff}
        </style>
    </defs>
    <path id="prefix__Rectangle_41" d="M0 0H67.113V53.575H0z" class="prefix__cls-1" data-name="Rectangle 41" transform="translate(13.425 39.698)"/>
    <path id="prefix__Tracé_396" d="M91.473 42.674H.3L46.494 0z" class="prefix__cls-1" data-name="Tracé 396" transform="translate(.487 .44)"/>
    <path id="prefix__Tracé_397" d="M33.58 63.746V53.229c0-.355.321-.529.971-.529h.564c.65 0 .971.174.971.529v4.04h4.369v-4.04c0-.355.321-.529.971-.529h.564c.65 0 .971.174.971.529v10.517c0 .348-.321.522-.971.522h-.564c-.65 0-.971-.174-.971-.522v-4.3h-4.369v4.294c0 .348-.321.522-.971.522h-.564c-.671.006-.971-.168-.971-.516z" class="prefix__cls-2" data-name="Tracé 397" transform="translate(-9.032 -14.039)"/>
    <path id="prefix__Tracé_398" d="M50.647 62.811a6.348 6.348 0 0 1-1.347-4.352 6.37 6.37 0 0 1 1.342-4.352 4.85 4.85 0 0 1 3.848-1.523 4.835 4.835 0 0 1 3.87 1.5 6.407 6.407 0 0 1 1.34 4.354 6.385 6.385 0 0 1-1.335 4.352 4.836 4.836 0 0 1-3.841 1.523 4.849 4.849 0 0 1-3.877-1.502zm1.885-1.581a2.5 2.5 0 0 0 3.92 0 4.862 4.862 0 0 0 .664-2.778 4.81 4.81 0 0 0-.664-2.771 2.51 2.51 0 0 0-3.92 0 4.751 4.751 0 0 0-.671 2.77 4.8 4.8 0 0 0 .67 2.779z" class="prefix__cls-2" data-name="Tracé 398" transform="translate(-13.525 -14.003)"/>
    <path id="prefix__Tracé_399" d="M66.41 63.741V53.225c0-.355.328-.529.971-.529h.878a1.057 1.057 0 0 1 1.021.442l2.856 5.142 2.856-5.142a1.057 1.057 0 0 1 1.021-.442h.814c.643 0 .971.174.971.529v10.516c0 .348-.328.522-.971.522h-.471c-.65 0-.971-.174-.971-.522v-6.8h-.065L72.978 61.2a.76.76 0 0 1-.65.312h-.471a.71.71 0 0 1-.643-.312l-2.349-4.257H68.8v6.8c0 .348-.321.522-.971.522h-.469c-.622-.001-.95-.175-.95-.524z" class="prefix__cls-2" data-name="Tracé 399" transform="translate(-18.422 -14.034)"/>
    <path id="prefix__Tracé_400" d="M85.508 63.59V53.4a.586.586 0 0 1 .164-.491.566.566 0 0 1 .485-.161h5.919c.328 0 .486.268.486.82v.508c0 .551-.157.82-.486.82H88v2.386h3.641c.328 0 .485.276.485.82v.508c0 .551-.157.827-.485.827H88V62.1h4.1c.321 0 .485.276.485.82v.508c0 .551-.164.827-.485.827h-5.94a.573.573 0 0 1-.485-.167.593.593 0 0 1-.167-.498z" class="prefix__cls-2" data-name="Tracé 400" transform="translate(-23.883 -14.05)"/>
    <path id="prefix__Tracé_401" d="M36.821 44.774a.464.464 0 0 1 0-.116l.421-2.263h-.614c-.286 0-.428-.247-.428-.725v-.123c0-.486.143-.725.428-.725h.914l.307-1.617h-.714c-.286 0-.428-.239-.428-.725v-.145q0-.725.428-.725h.985l.378-2.082c.057-.3.328-.457.807-.457h.195c.428 0 .65.109.65.319a.574.574 0 0 1 0 .138l-.378 2.081h1.357l.378-2.081q.086-.457.814-.457h.164c.436 0 .65.109.65.319a.574.574 0 0 1 0 .138l-.378 2.081h.478c.293 0 .436.247.436.725v.145c0 .493-.143.725-.436.725h-.75l-.307 1.617h.607c.293 0 .436.247.436.725v.154c0 .486-.143.725-.436.725h-.9l-.421 2.263q-.086.457-.792.457h-.193c-.443 0-.664-.116-.664-.341a.464.464 0 0 1 0-.116l.421-2.263h-1.323l-.413 2.262c-.057.3-.328.457-.8.457h-.214c-.444-.029-.665-.144-.665-.37zm2.356-4h1.357l.307-1.617h-1.357z" class="prefix__cls-3" data-name="Tracé 401" transform="translate(-9.781 -9.195)"/>
    <path id="prefix__Tracé_402" d="M47.3 43.751a1.566 1.566 0 0 1 .328-.827c.221-.319.414-.486.564-.486a1.161 1.161 0 0 1 .378.167 3.529 3.529 0 0 0 1.749.508c.907 0 1.364-.355 1.364-1.066a.975.975 0 0 0-.436-.8 4.513 4.513 0 0 0-1.05-.587 12.235 12.235 0 0 1-1.221-.558 2.78 2.78 0 0 1-1.042-.972 2.936 2.936 0 0 1-.436-1.654 2.779 2.779 0 0 1 .521-1.7 3.368 3.368 0 0 1 2.908-1.276 4.69 4.69 0 0 1 1.871.363c.5.218.75.45.75.725a1.693 1.693 0 0 1-.278.805c-.178.319-.357.471-.514.471a.708.708 0 0 1-.264-.1 3.2 3.2 0 0 0-1.335-.261 1.608 1.608 0 0 0-1.057.261.854.854 0 0 0-.3.66.894.894 0 0 0 .436.725 4.869 4.869 0 0 0 1.042.544 10.059 10.059 0 0 1 1.221.551 2.7 2.7 0 0 1 1.449 2.5 4.015 4.015 0 0 1-.286 1.574 2.44 2.44 0 0 1-.771 1.023 3.877 3.877 0 0 1-2.342.725 5.633 5.633 0 0 1-2.328-.428c-.607-.307-.921-.597-.921-.887z" class="prefix__cls-3" data-name="Tracé 402" transform="translate(-12.956 -9.035)"/>
    <path id="prefix__Tracé_403" d="M59.9 44.547v-7.92h-2.32c-.286 0-.436-.247-.436-.725v-.457c0-.493.15-.725.436-.725h6.84c.293 0 .436.239.436.725v.455c0 .486-.143.725-.436.725h-2.3v7.92c0 .312-.286.471-.864.471h-.507c-.582.003-.849-.157-.849-.469z" class="prefix__cls-3" data-name="Tracé 403" transform="translate(-15.771 -9.099)"/>
    <path id="prefix__Tracé_404" d="M68.1 44.684a1.648 1.648 0 0 1 .057-.261l3.184-9.428c.079-.2.35-.3.821-.3h.757c.471 0 .714.1.821.3l3.184 9.428a.9.9 0 0 1 .043.261c0 .218-.243.326-.714.326h-.635c-.478 0-.714-.109-.814-.312l-.585-1.806h-3.413l-.578 1.791c-.064.2-.293.312-.664.312h-.578c-.593.015-.886-.095-.886-.311zm3.327-3.713h2.142l-.821-2.618-.221-.943h-.057a7.767 7.767 0 0 1-.214.943z" class="prefix__cls-3" data-name="Tracé 404" transform="translate(-18.906 -9.091)"/>
    <path id="prefix__Tracé_405" d="M83.429 44.52v-4.5l-2.856-4.714a.915.915 0 0 1-.143-.37c0-.2.307-.29.921-.29h.628c.471 0 .757.087.864.276l1.763 3.148 1.757-3.17c.107-.189.4-.276.871-.276h.521c.607 0 .907.094.907.29a.791.791 0 0 1-.129.37l-2.856 4.758v4.453c0 .312-.286.471-.864.471h-.493c-.627.025-.891-.134-.891-.446z" class="prefix__cls-3" data-name="Tracé 405" transform="translate(-22.433 -9.072)"/>
    <path id="prefix__Rectangle_42" d="M0 0H13.772V27.98H0z" data-name="Rectangle 42" transform="translate(39.785 62.177)" style="fill:#892e1d"/>
    <path id="prefix__Rectangle_43" d="M0 0H21.423V3.109H0z" class="prefix__cls-5" data-name="Rectangle 43" transform="translate(35.195 90.156)"/>
    <ellipse id="prefix__Ellipse_79" cx="1.53" cy="1.554" class="prefix__cls-5" data-name="Ellipse 79" rx="1.53" ry="1.554" transform="translate(41.316 74.612)"/>
    <path id="prefix__Rectangle_44" d="M0 0H10.711V15.544H0z" class="prefix__cls-6" data-name="Rectangle 44" transform="translate(61.208 62.177)"/>
    <path id="prefix__Rectangle_45" d="M0 0H9.181V15.544H0z" class="prefix__cls-6" data-name="Rectangle 45" transform="translate(21.423 62.177)"/>
    <path id="prefix__Rectangle_46" d="M0 0H91.812V93.265H0z" data-name="Rectangle 46" style="fill:none"/>
</svg>
