<svg xmlns="http://www.w3.org/2000/svg" id="prefix__Cough" width="85.072" height="94.187" viewBox="0 0 85.072 94.187">
    <defs>
        <style>
            .prefix__cls-1{fill:#f2a283}.prefix__cls-2{fill:#34c1ad}.prefix__cls-4{fill:#5e3616}.prefix__cls-5{fill:#452810}
        </style>
    </defs>
    <path id="prefix__Tracé_646" d="M48 31s4.557 0 4.557 3.038S48 38.6 48 38.6z" class="prefix__cls-1" data-name="Tracé 646" transform="translate(18.842 14.574)"/>
    <path id="prefix__Tracé_647" d="M63.459 67.672H27a4.557 4.557 0 0 1 4.557-4.557L58.9 54h4.557z" class="prefix__cls-2" data-name="Tracé 647" transform="translate(7.94 26.515)"/>
    <path id="prefix__Tracé_648" d="M57.043 35.787h12.988a5.862 5.862 0 0 1 5.769 5.545V44.9c0 2.689-.577 4.649-2.886 6.137l-6.228 2.978v21.27L39.345 84.4V73.583a22.778 22.778 0 0 1-14.615-7.611l7.018-2.841a3.047 3.047 0 0 0-3.038-3.038H20.6a30.428 30.428 0 0 1-2.522-6.077L14.6 52.285a4.709 4.709 0 0 1-2.6-4.208v-.061a4.747 4.747 0 0 1 .942-2.826c1.717-2.279 5.135-7.125 5.135-9.4V19.077A10.376 10.376 0 0 0 24.153 13c9.115 0 19.384 22.787 30.383 22.787zm9.647 4.557v7.6s4.557-1.519 4.557-4.557-4.558-3.042-4.558-3.042z" data-name="Tracé 648" transform="translate(.153 5.23)" style="fill:#f2c4b2"/>
    <path id="prefix__Tracé_649" d="M69.17 71.549v.851h-4.557V60.247l6.228-2.978c2.309-1.489 2.886-3.448 2.886-6.137v-3.57a5.862 5.862 0 0 0-5.773-5.545h-15.5c-11 0-21.268-22.787-30.383-22.787A10.376 10.376 0 0 1 16 25.306v-1.519a22.2 22.2 0 0 1 6.988-16.1A24.387 24.387 0 0 1 39.866 1h14.325c15.83 0 28.651 12.244 28.651 27.345V40.5c0 4.557-2.112 14.523-7.6 19.749l-2.37 2.37a12.651 12.651 0 0 0-3.707 8.933z" class="prefix__cls-4" data-name="Tracé 649" transform="translate(2.229 -1)"/>
    <path id="prefix__Tracé_650" d="M23.6 19.077s4.557 1.519 6.077 4.557c1.434 2.868 6.942 11.143 21.614 12.06C40.73 34.184 30.866 13 22.077 13A10.376 10.376 0 0 1 16 19.077v5.674c2.3-.704 6.5-2.404 7.6-5.674z" class="prefix__cls-1" data-name="Tracé 650" transform="translate(2.229 5.23)"/>
    <path id="prefix__Tracé_651" d="M44.877 48.5A57.066 57.066 0 0 1 30 55.653v10.634l19.749-6.582v-8.782a3.038 3.038 0 0 0-4.872-2.423z" class="prefix__cls-1" data-name="Tracé 651" transform="translate(9.498 23.342)"/>
    <path id="prefix__Tracé_652" d="M5.518 53.09a1.519 1.519 0 0 1-.48-2.959l12.153-4.052a1.521 1.521 0 1 1 .96 2.886L6 53.017a1.52 1.52 0 0 1-.482.073z" class="prefix__cls-2" data-name="Tracé 652" transform="translate(-3.999 22.362)"/>
    <path id="prefix__Tracé_653" d="M5.519 60.09a1.519 1.519 0 0 1-.482-2.959l12.153-4.052a1.521 1.521 0 0 1 .96 2.886L6 60.017a1.52 1.52 0 0 1-.481.073z" class="prefix__cls-2" data-name="Tracé 653" transform="translate(-4 25.996)"/>
    <path id="prefix__Tracé_654" d="M9.519 54.729a1.519 1.519 0 0 1-.479-2.961l6.077-2.02a1.52 1.52 0 1 1 .957 2.886L10 54.654a1.545 1.545 0 0 1-.481.075z" class="prefix__cls-2" data-name="Tracé 654" transform="translate(-1.924 24.267)"/>
    <path id="prefix__Tracé_655" d="M17.52 51.544a1.519 1.519 0 0 1-.48-2.961l1.519-.506a1.521 1.521 0 1 1 .96 2.886L18 51.47a1.561 1.561 0 0 1-.48.074z" class="prefix__cls-2" data-name="Tracé 655" transform="translate(2.229 23.4)"/>
    <path id="prefix__Tracé_656" d="M5.519 48.225a1.519 1.519 0 0 1-.479-2.961l4.56-1.519a1.52 1.52 0 0 1 .957 2.886L6 48.15a1.556 1.556 0 0 1-.479.074z" class="prefix__cls-2" data-name="Tracé 656" transform="translate(-4 21.15)"/>
    <path id="prefix__Tracé_657" d="M12.52 45.544a1.519 1.519 0 0 1-.48-2.961l1.519-.506a1.521 1.521 0 1 1 .96 2.886L13 45.47a1.561 1.561 0 0 1-.48.074z" class="prefix__cls-2" data-name="Tracé 657" transform="translate(-.367 20.285)"/>
    <path id="prefix__Tracé_658" d="M28.114 36.827a1.519 1.519 0 0 1-.842-.255l-7.6-5.059a1.519 1.519 0 0 1 0-2.528l7.6-5.063a1.519 1.519 0 1 1 1.686 2.528l-5.706 3.8 5.692 3.8a1.519 1.519 0 0 1-.831 2.78z" class="prefix__cls-4" data-name="Tracé 658" transform="translate(3.787 10.767)"/>
    <path id="prefix__Tracé_659" d="M28.955 19.529c.041-.009.084-.017.125-.023.608-.082 1.074.643 1.074 1.133 0 .138-.068 3.418-6.077 3.418S18 20.778 18 20.639a1.145 1.145 0 0 1 .682-1.025 1.086 1.086 0 0 1 1.215.3c.169.152.3.346.477.492a2.373 2.373 0 0 0 .608.324 10.613 10.613 0 0 0 1.679.573 6.11 6.11 0 0 0 4.513-.746 6.574 6.574 0 0 1 1.781-1.028z" class="prefix__cls-5" data-name="Tracé 659" transform="translate(3.268 8.604)"/>
    <path id="prefix__Tracé_660" d="M69.17 35.439h-3.038C40.914 34.112 33.087 8.424 31.517 1.965a24.077 24.077 0 0 0-8.528 5.218A22.2 22.2 0 0 0 16 23.286v1.519a10.376 10.376 0 0 0 6.077-6.077c9.115 0 19.384 22.787 30.383 22.787h15.5a5.862 5.862 0 0 1 5.773 5.545V40a4.557 4.557 0 0 0-4.563-4.561z" class="prefix__cls-5" data-name="Tracé 660" transform="translate(2.229 -.499)"/>
    <path id="prefix__Tracé_661" d="M52.421 38.609L48 40.722v12.153h4.557v-.851a12.624 12.624 0 0 1 2.543-7.56 5.954 5.954 0 0 1-2.675-5.855z" class="prefix__cls-5" data-name="Tracé 661" transform="translate(18.842 18.525)"/>
    <path id="prefix__Tracé_662" d="M60.421 62.7H43.39a2.695 2.695 0 0 1-1.458-4.977l-10.375 3.459A4.557 4.557 0 0 0 27 65.739h36.459v-6.077a3.038 3.038 0 0 1-3.038 3.038z" data-name="Tracé 662" transform="translate(7.94 28.448)" style="fill:#107c82"/>
</svg>
