<svg xmlns="http://www.w3.org/2000/svg" id="prefix__Home_quarantine" width="91.812" height="93.273" data-name="Home quarantine" viewBox="0 0 91.812 93.273">
    <defs>
        <style>
            .prefix__cls-1{fill:#bde5ec}.prefix__cls-3{fill:#ffc298}.prefix__cls-5{fill:#892e1d}.prefix__cls-6{fill:#e44450}.prefix__cls-7{fill:#fff}
        </style>
    </defs>
    <path id="prefix__Rectangle_22" d="M0 0H62.829V53.597H0z" class="prefix__cls-1" data-name="Rectangle 22" transform="translate(14.812 39.677)"/>
    <path id="prefix__Tracé_232" d="M91.473 42.645H.3L46.494 0z" class="prefix__cls-1" data-name="Tracé 232" transform="translate(-.267 .44)"/>
    <g id="prefix__Groupe_111" data-name="Groupe 111" transform="translate(28.02 45.788)">
        <path id="prefix__Tracé_233" d="M53.28 106.318c-1.285.363-4.141 1.088-6.426 1.668a6.182 6.182 0 0 0-4.427 4.279l-2.927 9.718h37.412l-2.57-9.719a6.451 6.451 0 0 0-4.284-4.424l-6-1.741z" data-name="Tracé 233" transform="translate(-39.5 -74.498)" style="fill:#2652e4"/>
        <path id="prefix__Tracé_234" d="M59.485 95.717l-.785 5.875s6.64 6.817 10.852-.218c-2-5.657-.357-9.066-.357-9.066L68.91 88.9l-5.855.653z" class="prefix__cls-3" data-name="Tracé 234" transform="translate(-44.992 -69.773)"/>
        <path id="prefix__Tracé_235" d="M67.411 91.148c0-.145 1.714-1.16 1.785-1.305l-.143-.943-5.855.653-3.5 6.092-.5 4.134a9.572 9.572 0 0 0 4.569-1.233c2.573-1.233 3.358-3.626 3.644-7.398z" data-name="Tracé 235" transform="translate(-45.135 -69.773)" style="fill:#e1927a"/>
        <path id="prefix__Tracé_236" d="M53.352 90.456a6.493 6.493 0 0 0 7.925 1.015c2-1.16 5.212-3.916 5.854-7.833s.643-7.18-2-10.806c-2.713-3.7-13.137-2.9-13.494-2.321-2.783 4.714-.998 17.044 1.715 19.945z" class="prefix__cls-3" data-name="Tracé 236" transform="translate(-42.571 -64.583)"/>
        <path id="prefix__Tracé_237" d="M45.338 66.351a5.506 5.506 0 0 0 3.57 6.6c4.712 1.741 9.781-1.813 9.781-1.813a20.412 20.412 0 0 0 6.64 13.853c5.783-1.523 8.853-15.883-.928-20.815-10.138-5.15-15.921 3.408-15.921 3.408z" class="prefix__cls-5" data-name="Tracé 237" transform="translate(-41.126 -62.527)"/>
        <path id="prefix__Tracé_238" d="M67.828 86.565s2.784 1.015 2.713-1.378S67.4 80.11 66.4 83.809" class="prefix__cls-3" data-name="Tracé 238" transform="translate(-47.194 -67.872)"/>
        <path id="prefix__Tracé_239" d="M50.3 68.177a2.539 2.539 0 0 1 0-5.077" class="prefix__cls-5" data-name="Tracé 239" transform="translate(-41.874 -62.684)"/>
    </g>
    <g id="prefix__Groupe_112" data-name="Groupe 112" transform="translate(36.588 14.51)">
        <path id="prefix__Tracé_240" d="M51.5 31.512v-.29c0-.58.214-.943.571-.943H54.5v-8.268l-2.427.363c-.214 0-.357-.145-.428-.508a4.97 4.97 0 0 1-.143-1.015.55.55 0 0 1 .5-.58l4.5-.87a1.8 1.8 0 0 1 .5.145c.143.073.286.218.286.29v10.3h1.928c.357 0 .571.29.571.943v.29c0 .58-.214.943-.571.943h-7c-.502.07-.716-.22-.716-.8z" class="prefix__cls-6" data-name="Tracé 240" transform="translate(-51.5 -19.4)"/>
        <path id="prefix__Tracé_241" d="M64.943 29.9q-.214 0-.428-.653a3.319 3.319 0 0 1-.215-.947c0-.218 0-.29.071-.363l5.355-7.978c.143-.218.5-.363 1.071-.363h.5c.714 0 1.071.218 1.071.58v7.543h.714c.357 0 .571.29.571.943v.29c0 .58-.214.943-.571.943h-.714v2.031c0 .363-.357.58-1.071.58h-.5c-.714 0-1.071-.218-1.071-.58V29.9zm4.712-2.176v-4.208h-.071l-2.642 4.207z" class="prefix__cls-6" data-name="Tracé 241" transform="translate(-55.161 -19.455)"/>
    </g>
    <g id="prefix__Groupe_113" data-name="Groupe 113" transform="translate(31.376 30.611)">
        <path id="prefix__Tracé_242" d="M44.2 50.386v-7.978c0-.363.143-.508.5-.508h2.856a3.794 3.794 0 0 1 3 1.16 4.787 4.787 0 0 1 1.069 3.34 4.787 4.787 0 0 1-1.071 3.336 3.794 3.794 0 0 1-3 1.16H44.7c-.357-.003-.5-.148-.5-.51zm1.928-1.16h1.357a1.827 1.827 0 0 0 1.571-.725 3.516 3.516 0 0 0 .5-2.1 3.516 3.516 0 0 0-.5-2.1 1.745 1.745 0 0 0-1.571-.725h-1.357z" class="prefix__cls-7" data-name="Tracé 242" transform="translate(-44.2 -41.682)"/>
        <path id="prefix__Tracé_243" d="M55.3 50.576a.362.362 0 0 1 .071-.218l2.784-8.268c.071-.145.286-.29.714-.29h.643c.428 0 .643.073.714.29l2.784 8.268c0 .073.071.145.071.218 0 .218-.214.29-.643.29h-.571c-.428 0-.643-.073-.714-.29l-.5-1.6h-3l-.5 1.668a.636.636 0 0 1-.571.29h-.5c-.496-.068-.782-.141-.782-.358zm2.927-3.264h1.928l-.714-2.321-.214-.8h-.071a2.844 2.844 0 0 1-.214.8z" class="prefix__cls-7" data-name="Tracé 243" transform="translate(-47.375 -41.655)"/>
        <path id="prefix__Tracé_244" d="M68.742 50.531v-3.917l-2.5-4.134c-.071-.145-.143-.218-.143-.29 0-.145.286-.29.785-.29h.571a1.02 1.02 0 0 1 .785.218l1.571 2.756 1.571-2.756c.071-.145.357-.218.785-.218h.433c.5 0 .785.073.785.29a.553.553 0 0 1-.143.29l-2.5 4.207V50.6c0 .29-.286.435-.785.435h-.428c-.502-.142-.787-.287-.787-.504z" class="prefix__cls-7" data-name="Tracé 244" transform="translate(-50.464 -41.682)"/>
        <path id="prefix__Tracé_245" d="M76.5 49.8a1.183 1.183 0 0 1 .286-.725c.214-.29.357-.435.5-.435.071 0 .143.073.357.145a3.216 3.216 0 0 0 1.571.435c.785 0 1.214-.29 1.214-.943a1.013 1.013 0 0 0-.357-.725 3.828 3.828 0 0 0-.928-.508 7.153 7.153 0 0 1-1.071-.508 2.631 2.631 0 0 1-.928-.87 2.309 2.309 0 0 1-.357-1.451 2.712 2.712 0 0 1 .428-1.523 3.072 3.072 0 0 1 2.57-1.088 3.711 3.711 0 0 1 1.642.29c.428.218.643.363.643.653a1.64 1.64 0 0 1-.214.725q-.214.435-.428.435a.349.349 0 0 1-.214-.073 2.919 2.919 0 0 0-1.142-.218 1.455 1.455 0 0 0-.928.218.9.9 0 0 0-.286.58 1.007 1.007 0 0 0 .357.653c.286.145.571.363.928.508a7.154 7.154 0 0 1 1.071.508 2.631 2.631 0 0 1 .928.87 2.215 2.215 0 0 1 .357 1.378 3.982 3.982 0 0 1-.214 1.378 1.688 1.688 0 0 1-.714.87 3.223 3.223 0 0 1-2.071.653 5.887 5.887 0 0 1-2.07-.363c-.644-.369-.93-.656-.93-.869z" class="prefix__cls-7" data-name="Tracé 245" transform="translate(-53.439 -41.6)"/>
    </g>
    <path id="prefix__Rectangle_23" d="M0 0H91.812V93.265H0z" data-name="Rectangle 23" style="fill:none"/>
</svg>
