<svg xmlns="http://www.w3.org/2000/svg" width="115.901" height="93.468" viewBox="0 0 115.901 93.468">
  <g id="_13-Mask" data-name="13-Mask" transform="translate(0 0)">
    <path id="Tracé_868" data-name="Tracé 868" d="M14.086,49l3.739,5.608L9.281,59.487a3.492,3.492,0,0,1-2.673.748,5.672,5.672,0,0,1-4.767-2.5L1,56.477Z" transform="translate(-1 29.514)" fill="#21abab"/>
    <path id="Tracé_869" data-name="Tracé 869" d="M2.57,27.225,14.086,19v5.608L1,33.955V30.272a3.739,3.739,0,0,1,1.57-3.047Z" transform="translate(-1 3.432)" fill="#21abab"/>
    <path id="Tracé_870" data-name="Tracé 870" d="M56,19l11.515,8.225a3.739,3.739,0,0,1,1.57,3.047v3.683L56,24.608Z" transform="translate(46.815 3.432)" fill="#21abab"/>
    <path id="Tracé_871" data-name="Tracé 871" d="M70.824,56.477l-.841,1.252a5.672,5.672,0,0,1-4.767,2.5,3.492,3.492,0,0,1-2.673-.748L54,54.608,57.739,49Z" transform="translate(45.076 29.514)" fill="#21abab"/>
    <path id="Tracé_872" data-name="Tracé 872" d="M22.955,19v5.608H8V19H22.955Z" transform="translate(5.086 3.432)" fill="#34c1ad"/>
    <path id="Tracé_873" data-name="Tracé 873" d="M43.3,39.869C60.126,39.869,67.6,38,67.6,38V60.432a86.024,86.024,0,0,1-24.3,3.739A86.025,86.025,0,0,1,19,60.432V38S26.477,39.869,43.3,39.869Z" transform="translate(14.649 19.95)" fill="#34c1ad"/>
    <path id="Tracé_874" data-name="Tracé 874" d="M12.374,48.991,17.347,46l3.739,5.608-3.832,2.3-5.515,3.309L8,51.608Z" transform="translate(5.086 26.905)" fill="#34c1ad"/>
    <path id="Tracé_875" data-name="Tracé 875" d="M62.086,51.608l-3.739,5.608-5.515-3.309L49,51.608,52.739,46l4.973,2.991Z" transform="translate(40.73 26.905)" fill="#34c1ad"/>
    <path id="Tracé_876" data-name="Tracé 876" d="M52.767,19H62.955v5.608H48V19Z" transform="translate(39.86 3.432)" fill="#34c1ad"/>
    <path id="Tracé_877" data-name="Tracé 877" d="M87.252,85.514l3.832,2.3-.093.168c-7.72,6.8-19.086,12.487-35.518,12.487s-27.8-5.683-35.518-12.487l-.093-.168,3.832-2.3-3.739-5.608L14.983,82.9a51.781,51.781,0,0,1-6.8-10.188A29.291,29.291,0,0,1,5,59.3V55.6C5,45.1,9.617,41.06,15.6,35.041h9.964V29.432H20.8c.953-1.14,1.925-2.374,2.9-3.739A60.128,60.128,0,0,1,41.752,9.318,16.621,16.621,0,0,1,50.258,7H60.689a16.621,16.621,0,0,1,8.506,2.318A60.128,60.128,0,0,1,87.252,25.694c.972,1.365,1.944,2.6,2.9,3.739H85.383v5.608h9.964c5.982,6.019,10.6,10.057,10.6,20.563v3.7a29.291,29.291,0,0,1-3.178,13.4,51.782,51.782,0,0,1-6.8,10.188l-4.973-2.991Zm-7.477,1.869V64.95S72.3,66.82,55.473,66.82s-24.3-1.869-24.3-1.869V87.383a86.025,86.025,0,0,0,24.3,3.739,86.024,86.024,0,0,0,24.3-3.739Z" transform="translate(2.477 -7)" fill="#f5f5f5"/>
    <path id="Tracé_878" data-name="Tracé 878" d="M61,74.709l3.739,2.137v-48.6L61,25.571Z" transform="translate(51.162 9.145)" fill="#107c82"/>
    <path id="Tracé_879" data-name="Tracé 879" d="M4.739,25.571,1,28.242v48.6l3.739-2.137Z" transform="translate(-1 9.145)" fill="#107c82"/>
    <path id="Tracé_880" data-name="Tracé 880" d="M25.373,23.824h2.172a10.1,10.1,0,0,0,6.674-2.5c1.963-1.7,4.486-3.982,6.225-5.832a9.293,9.293,0,0,1,6.711-2.879H49.1a9.293,9.293,0,0,1,6.711,2.879c1.739,1.851,4.262,4.131,6.225,5.832a10.1,10.1,0,0,0,6.674,2.5h2.172a3.738,3.738,0,0,1,2.643,1.095l4.513,4.513H82.8c-.953-1.14-1.925-2.374-2.9-3.739A60.128,60.128,0,0,0,61.848,9.318,16.621,16.621,0,0,0,53.342,7H42.911a16.621,16.621,0,0,0-8.506,2.318A60.128,60.128,0,0,0,16.348,25.694c-.972,1.365-1.944,2.6-2.9,3.739h4.767L22.73,24.92A3.739,3.739,0,0,1,25.373,23.824Z" transform="translate(9.824 -7)" fill="#e3e3e3"/>
    <path id="Tracé_881" data-name="Tracé 881" d="M63.884,20.216a8.252,8.252,0,0,1-5.448-2.055c-1.474-1.278-4.222-3.718-6.1-5.716A11.229,11.229,0,0,0,44.274,9H42.33a11.233,11.233,0,0,0-8.072,3.468c-1.869,1.985-4.615,4.425-6.1,5.709a8.242,8.242,0,0,1-5.44,2.039H20.869A1.869,1.869,0,0,0,19,22.086h0a1.869,1.869,0,0,0,1.869,1.869H22.72a11.964,11.964,0,0,0,7.9-2.961c1.527-1.324,4.384-3.858,6.356-5.952a7.378,7.378,0,0,1,5.356-2.3h1.944a7.365,7.365,0,0,1,5.348,2.29c1.98,2.107,4.836,4.642,6.356,5.958a11.975,11.975,0,0,0,7.906,2.969h1.851A1.869,1.869,0,0,0,67.6,22.086h0a1.869,1.869,0,0,0-1.869-1.869Z" transform="translate(14.649 -5.261)" fill="#d4d4d4"/>
    <path id="Tracé_882" data-name="Tracé 882" d="M19,46.256v7a86.025,86.025,0,0,0,24.3,3.739,86.024,86.024,0,0,0,24.3-3.739v-7a79.092,79.092,0,0,1-24.3,3.26A79.093,79.093,0,0,1,19,46.256Z" transform="translate(14.649 27.128)" fill="#21abab"/>
    <path id="Tracé_883" data-name="Tracé 883" d="M95.347,22H85.383s13.086,1.869,13.086,22.432c0,11.908-7.291,19.152-18.694,22.911v7a86.024,86.024,0,0,1-24.3,3.739,86.024,86.024,0,0,1-24.3-3.739v-7c-11.4-3.759-18.694-11-18.694-22.911C12.478,23.869,25.563,22,25.563,22H15.6C9.617,28.019,5,32.057,5,42.563v3.7a29.291,29.291,0,0,0,3.178,13.4,51.782,51.782,0,0,0,6.8,10.188l4.973-2.991,3.739,5.608-3.832,2.3.093.168c7.72,6.8,19.086,12.487,35.518,12.487s27.8-5.683,35.518-12.487l.093-.168-3.832-2.3,3.739-5.608,4.973,2.991a51.782,51.782,0,0,0,6.8-10.188,29.291,29.291,0,0,0,3.178-13.4v-3.7C105.946,32.057,101.329,28.019,95.347,22Z" transform="translate(2.477 6.041)" fill="#e3e3e3"/>
    <path id="Tracé_884" data-name="Tracé 884" d="M28.477,43.869H26.608V42H22.869v1.869H21v3.739h1.869v1.869h3.739V47.608h1.869Z" transform="translate(16.387 23.428)" fill="#f5f5f5"/>
    <rect id="Rectangle_103" data-name="Rectangle 103" width="19" height="4" rx="1" transform="translate(48.075 62.968)" fill="#f5f5f5"/>
    <rect id="Rectangle_104" data-name="Rectangle 104" width="24" height="4" rx="1" transform="translate(46.075 68.968)" fill="#f5f5f5"/>
    <rect id="Rectangle_105" data-name="Rectangle 105" width="24" height="3" rx="1" transform="translate(46.075 74.968)" fill="#f5f5f5"/>
  </g>
</svg>
