<svg xmlns="http://www.w3.org/2000/svg" id="prefix__Spreading" width="93.321" height="95.082" viewBox="0 0 93.321 95.082">
    <defs>
        <style>
            .prefix__cls-1{fill:#e7544c}.prefix__cls-2{fill:#34c1ad}.prefix__cls-3{fill:#21abab}.prefix__cls-4{fill:#c74841}
        </style>
    </defs>
    <path id="prefix__Tracé_621" d="M17.43 15.058h3.1a1.529 1.529 0 0 0 0-3.058h-6.025a1.467 1.467 0 0 0-.521.107 1.232 1.232 0 0 0-.129.057 1.5 1.5 0 0 0-.361.248.71.71 0 0 0-.065.054 1.554 1.554 0 0 0-.263.364c-.011.021-.014.046-.023.067a1.111 1.111 0 0 0-.041.119 1.55 1.55 0 0 0-.087.434c0 .028-.015.052-.015.08v6.116a1.505 1.505 0 1 0 3.01 0V18.3l12.323 17.523a1.494 1.494 0 0 0 2.635-.226 1.549 1.549 0 0 0-.188-1.551z" class="prefix__cls-1" data-name="Tracé 621" transform="translate(5.062 5.103)"/>
    <path id="prefix__Tracé_622" d="M28.333 40.624L16.01 58.148V56.8a1.505 1.505 0 1 0-3.01 0v6.116c0 .028.014.052.015.08a1.55 1.55 0 0 0 .087.434 1.237 1.237 0 0 0 .041.119c.009.021.012.046.023.067a1.554 1.554 0 0 0 .263.364c.02.021.044.034.065.054a1.5 1.5 0 0 0 .361.248 1.229 1.229 0 0 0 .129.057 1.467 1.467 0 0 0 .521.107h6.021a1.529 1.529 0 0 0 0-3.058h-3.1L30.781 42.4a1.545 1.545 0 0 0-.382-2.085 1.49 1.49 0 0 0-2.066.309z" class="prefix__cls-1" data-name="Tracé 622" transform="translate(5.062 19.931)"/>
    <path id="prefix__Tracé_623" d="M55.568 55.307a1.517 1.517 0 0 0-1.505 1.529v1.346L41.74 40.657a1.494 1.494 0 0 0-2.635.226 1.549 1.549 0 0 0 .188 1.551l13.351 18.989h-3.1a1.529 1.529 0 0 0 0 3.058h6.021a1.467 1.467 0 0 0 .521-.107 1.234 1.234 0 0 0 .129-.057 1.5 1.5 0 0 0 .361-.248c.021-.02.045-.032.065-.054a1.554 1.554 0 0 0 .263-.364c.011-.021.014-.046.023-.067a1.133 1.133 0 0 0 .041-.121 1.485 1.485 0 0 0 .087-.433c0-.028.015-.052.015-.079v-6.115a1.517 1.517 0 0 0-1.502-1.529z" class="prefix__cls-1" data-name="Tracé 623" transform="translate(18.186 19.898)"/>
    <path id="prefix__Tracé_624" d="M57.058 13.449a1.485 1.485 0 0 0-.087-.433 1.03 1.03 0 0 0-.041-.121c-.011-.021-.012-.046-.023-.067a1.554 1.554 0 0 0-.263-.364.711.711 0 0 0-.065-.054 1.5 1.5 0 0 0-.361-.248c-.042-.02-.084-.04-.129-.057a1.467 1.467 0 0 0-.521-.105h-6.02a1.529 1.529 0 0 0 0 3.058h3.1L39.293 34.047A1.549 1.549 0 0 0 39.1 35.6a1.494 1.494 0 0 0 2.635.226L54.063 18.3v1.346a1.505 1.505 0 1 0 3.01 0v-6.117c0-.029-.013-.052-.015-.08z" class="prefix__cls-1" data-name="Tracé 624" transform="translate(18.186 5.103)"/>
    <ellipse id="prefix__Ellipse_118" cx="4" cy="5" class="prefix__cls-2" data-name="Ellipse 118" rx="4" ry="5" transform="translate(4.224)"/>
    <path id="prefix__Tracé_625" d="M8.526 7a7.586 7.586 0 0 1 7.526 7.645v7.645a3.044 3.044 0 0 1-3.01 3.058v9.174a3.044 3.044 0 0 1-3.01 3.058H7.021a3.044 3.044 0 0 1-3.01-3.058v-9.174A3.044 3.044 0 0 1 1 22.29v-7.645A7.586 7.586 0 0 1 8.526 7z" class="prefix__cls-2" data-name="Tracé 625" transform="translate(-1 2.458)"/>
    <ellipse id="prefix__Ellipse_119" cx="4" cy="4.5" class="prefix__cls-2" data-name="Ellipse 119" rx="4" ry="4.5" transform="translate(4.224 55)"/>
    <path id="prefix__Tracé_626" d="M8.526 43a7.586 7.586 0 0 1 7.526 7.645v7.645a3.044 3.044 0 0 1-3.01 3.058v9.174a3.044 3.044 0 0 1-3.01 3.058H7.021a3.044 3.044 0 0 1-3.01-3.058v-9.174A3.044 3.044 0 0 1 1 58.29v-7.645A7.586 7.586 0 0 1 8.526 43z" class="prefix__cls-2" data-name="Tracé 626" transform="translate(-1 21.502)"/>
    <path id="prefix__Tracé_627" d="M60.526 43a7.586 7.586 0 0 1 7.526 7.645v7.645a3.044 3.044 0 0 1-3.01 3.058v9.174a3.044 3.044 0 0 1-3.01 3.058h-3.01a3.044 3.044 0 0 1-3.01-3.058v-9.174A3.044 3.044 0 0 1 53 58.29v-7.645A7.586 7.586 0 0 1 60.526 43z" class="prefix__cls-2" data-name="Tracé 627" transform="translate(25.269 21.502)"/>
    <circle id="prefix__Ellipse_120" cx="4.5" cy="4.5" r="4.5" class="prefix__cls-2" data-name="Ellipse 120" transform="translate(81.224 55)"/>
    <ellipse id="prefix__Ellipse_121" cx="4.5" cy="5" class="prefix__cls-2" data-name="Ellipse 121" rx="4.5" ry="5" transform="translate(81.224)"/>
    <path id="prefix__Tracé_628" d="M60.526 7a7.586 7.586 0 0 1 7.526 7.645v7.645a3.044 3.044 0 0 1-3.01 3.058v9.174a3.044 3.044 0 0 1-3.01 3.058h-3.01a3.044 3.044 0 0 1-3.01-3.058v-9.174A3.044 3.044 0 0 1 53 22.29v-7.645A7.586 7.586 0 0 1 60.526 7z" class="prefix__cls-2" data-name="Tracé 628" transform="translate(25.269 2.458)"/>
    <path id="prefix__Tracé_629" d="M4.5 2.129c0-.127.027-.248.036-.373A4.625 4.625 0 0 0 3.455 7.2a4.485 4.485 0 0 0 4.887 2.5 4.55 4.55 0 0 0 3.652-4.14 4.445 4.445 0 0 1-4.84.752A4.575 4.575 0 0 1 4.5 2.129z" class="prefix__cls-3" data-name="Tracé 629" transform="translate(.011 -.316)"/>
    <path id="prefix__Tracé_630" d="M7.021 34.523v-9.174a3.044 3.044 0 0 1-3.01-3.058v-7.645a7.617 7.617 0 0 1 6.022-7.492 7.439 7.439 0 0 0-6.267 1.568A7.693 7.693 0 0 0 1 14.646v7.645a3.044 3.044 0 0 0 3.01 3.058v9.174a3.044 3.044 0 0 0 3.01 3.058h3.01a3.044 3.044 0 0 1-3.009-3.058z" class="prefix__cls-3" data-name="Tracé 630" transform="translate(-1 2.457)"/>
    <path id="prefix__Tracé_631" d="M4.5 38.129c0-.127.027-.248.036-.373A4.625 4.625 0 0 0 3.455 43.2a4.485 4.485 0 0 0 4.887 2.5 4.55 4.55 0 0 0 3.652-4.135 4.445 4.445 0 0 1-4.84.752A4.575 4.575 0 0 1 4.5 38.129z" class="prefix__cls-3" data-name="Tracé 631" transform="translate(.011 18.728)"/>
    <path id="prefix__Tracé_632" d="M7.021 70.523v-9.174a3.044 3.044 0 0 1-3.01-3.058v-7.645a7.617 7.617 0 0 1 6.022-7.492 7.439 7.439 0 0 0-6.267 1.569A7.693 7.693 0 0 0 1 50.646v7.645a3.044 3.044 0 0 0 3.01 3.058v9.174a3.044 3.044 0 0 0 3.01 3.058h3.01a3.044 3.044 0 0 1-3.009-3.058z" class="prefix__cls-3" data-name="Tracé 632" transform="translate(-1 21.501)"/>
    <path id="prefix__Tracé_633" d="M56.5 2.129c0-.127.027-.248.036-.373A4.625 4.625 0 0 0 55.455 7.2a4.485 4.485 0 0 0 4.887 2.5 4.55 4.55 0 0 0 3.652-4.14 4.445 4.445 0 0 1-4.84.752A4.575 4.575 0 0 1 56.5 2.129z" class="prefix__cls-3" data-name="Tracé 633" transform="translate(26.28 -.316)"/>
    <path id="prefix__Tracé_634" d="M59.021 34.523v-9.174a3.044 3.044 0 0 1-3.01-3.058v-7.645a7.617 7.617 0 0 1 6.022-7.492 7.439 7.439 0 0 0-6.267 1.569A7.693 7.693 0 0 0 53 14.646v7.645a3.044 3.044 0 0 0 3.01 3.058v9.174a3.044 3.044 0 0 0 3.01 3.058h3.01a3.044 3.044 0 0 1-3.009-3.058z" class="prefix__cls-3" data-name="Tracé 634" transform="translate(25.269 2.457)"/>
    <path id="prefix__Tracé_635" d="M56.5 38.129c0-.127.027-.248.036-.373a4.625 4.625 0 0 0-1.081 5.444 4.485 4.485 0 0 0 4.887 2.5 4.55 4.55 0 0 0 3.653-4.135 4.445 4.445 0 0 1-4.84.752 4.575 4.575 0 0 1-2.655-4.188z" class="prefix__cls-3" data-name="Tracé 635" transform="translate(26.28 18.728)"/>
    <path id="prefix__Tracé_636" d="M59.021 70.523v-9.174a3.044 3.044 0 0 1-3.01-3.058v-7.645a7.617 7.617 0 0 1 6.022-7.492 7.439 7.439 0 0 0-6.267 1.569A7.693 7.693 0 0 0 53 50.646v7.645a3.044 3.044 0 0 0 3.01 3.058v9.174a3.044 3.044 0 0 0 3.01 3.058h3.01a3.044 3.044 0 0 1-3.009-3.058z" class="prefix__cls-3" data-name="Tracé 636" transform="translate(25.269 21.501)"/>
    <circle id="prefix__Ellipse_122" cx="6" cy="6" r="6" class="prefix__cls-1" data-name="Ellipse 122" transform="translate(41.224 26)"/>
    <path id="prefix__Tracé_637" d="M42.052 34.645v7.645a3.044 3.044 0 0 1-3.01 3.058v9.174a3.044 3.044 0 0 1-3.01 3.058h-3.01a3.044 3.044 0 0 1-3.01-3.058v-9.174A3.044 3.044 0 0 1 27 42.29v-7.645a7.527 7.527 0 1 1 15.052 0z" class="prefix__cls-1" data-name="Tracé 637" transform="translate(12.135 13.038)"/>
    <path id="prefix__Tracé_638" d="M31.017 19.868a6.173 6.173 0 0 1 .54-2.509 6.135 6.135 0 0 0-3.511 6.441A6.069 6.069 0 0 0 33.17 29a6 6 0 0 0 6.338-3.566 5.921 5.921 0 0 1-5.744-.425 6.121 6.121 0 0 1-2.747-5.141z" class="prefix__cls-4" data-name="Tracé 638" transform="translate(12.633 7.938)"/>
    <path id="prefix__Tracé_639" d="M33.021 54.523v-9.174a3.044 3.044 0 0 1-3.01-3.058v-7.645a7.617 7.617 0 0 1 6.022-7.492 7.439 7.439 0 0 0-6.267 1.569A7.693 7.693 0 0 0 27 34.646v7.645a3.044 3.044 0 0 0 3.01 3.058v9.174a3.044 3.044 0 0 0 3.01 3.058h3.01a3.044 3.044 0 0 1-3.01-3.058z" class="prefix__cls-4" data-name="Tracé 639" transform="translate(12.135 13.037)"/>
</svg>
