<svg id="Sore_throat" data-name="Sore throat" xmlns="http://www.w3.org/2000/svg" width="89.073" height="95.231" viewBox="0 0 89.073 95.231">
  <path id="Tracé_885" data-name="Tracé 885" d="M40.286,41.679H28S28,34,34.143,34,40.286,41.679,40.286,41.679Z" transform="translate(7.322 16.688)" fill="#d9896d"/>
  <path id="Tracé_886" data-name="Tracé 886" d="M78.364,34.943l-4.792,5.989-.169.015a7.5,7.5,0,0,0,.169-1.551V37.861A3.081,3.081,0,0,0,70.5,34.789H67.43V28.646c-7.679,0-7.679-12.286-7.679-12.286s-4.607,7.679-9.214,7.679l1.52-6.112c-.461.63-8,10.72-18.414,10.72V19.432l-9.214,7.679v7.679H21.357a3.081,3.081,0,0,0-3.071,3.071V39.4a8.293,8.293,0,0,0,1.52,4.592c-.461-.184-7.663-3.3-7.663-10.735a16.586,16.586,0,0,1,6.143-12.286A13.227,13.227,0,0,1,6,13.289s12.286-1.536,18.429-4.607S33.643,1,45.929,1A18.1,18.1,0,0,1,61.287,8.682,6.654,6.654,0,0,1,67.43,5.61c4.607,0,12.286,3.071,12.286,12.286V31.1a6.127,6.127,0,0,1-1.352,3.84Z" transform="translate(-4.464 -0.994)" fill="#5e3616"/>
  <path id="Tracé_887" data-name="Tracé 887" d="M50.858,58.04A20.221,20.221,0,0,1,21.679,43.251a11.885,11.885,0,0,1-6.143-4.607l-.015-.015A8.293,8.293,0,0,1,14,34.036V32.5a3.081,3.081,0,0,1,3.071-3.071h3.071V21.75l9.214-7.679v9.215c10.412,0,17.953-10.09,18.414-10.72l-1.52,6.112c4.607,0,9.214-7.679,9.214-7.679s0,12.286,7.679,12.286v6.143h3.071A3.081,3.081,0,0,1,69.287,32.5v1.536a7.5,7.5,0,0,1-.169,1.551,11.381,11.381,0,0,1-7.51,7.663A20.653,20.653,0,0,1,50.858,58.04ZM35.5,54H47.786s0-7.679-6.143-7.679S35.5,54,35.5,54Z" transform="translate(-0.178 4.366)" fill="#f2c4b2"/>
  <path id="Tracé_888" data-name="Tracé 888" d="M69.965,65.214V66.75H50a8.327,8.327,0,0,0,6.926-3.271A12.934,12.934,0,0,0,59.2,56h.015Z" transform="translate(19.109 28.475)" fill="#21abab"/>
  <path id="Tracé_889" data-name="Tracé 889" d="M71.037,70.442H5V63.9a9.23,9.23,0,0,1,7.08-8.969l22.806-5.421a2.755,2.755,0,0,0,.921-.4,12.2,12.2,0,0,0,10.658,5.974h3.993l9.829,9.767Z" transform="translate(-5 24.783)" fill="#34c1ad"/>
  <path id="Tracé_890" data-name="Tracé 890" d="M19.071,25H17.536A1.536,1.536,0,0,0,16,26.536v1.536c0,1.7,1.374,4.607,3.071,4.607h0Z" transform="translate(0.893 11.866)" fill="#f2a283"/>
  <path id="Tracé_891" data-name="Tracé 891" d="M46,25h1.536a1.536,1.536,0,0,1,1.536,1.536v1.536c0,1.7-1.382,4.607-3.071,4.607h0Z" transform="translate(16.966 11.866)" fill="#f2a283"/>
  <path id="Tracé_892" data-name="Tracé 892" d="M16.143,14A16.586,16.586,0,0,0,10,26.286c0,7.433,7.2,10.551,7.663,10.735a8.293,8.293,0,0,1-1.52-4.592V30.893a3.081,3.081,0,0,1,3.072-3.071h3.071V20.143l-9.214,3.071A13.453,13.453,0,0,1,16.143,14Z" transform="translate(-2.321 5.973)" fill="#3b220e"/>
  <path id="Tracé_893" data-name="Tracé 893" d="M46,19v6.143h3.071a3.081,3.081,0,0,1,3.071,3.071V22.071Z" transform="translate(16.966 8.652)" fill="#3b220e"/>
  <path id="Tracé_894" data-name="Tracé 894" d="M27.214,13,18,20.679V23.75l9.214-7.679Z" transform="translate(1.965 5.437)" fill="#d9896d"/>
  <path id="Tracé_895" data-name="Tracé 895" d="M44.214,14.071s0,12.286,7.679,12.286V23.286C44.214,23.286,44.214,11,44.214,11s-4.1,6.825-8.431,7.6L35,21.75C39.607,21.75,44.214,14.071,44.214,14.071Z" transform="translate(11.072 4.366)" fill="#d9896d"/>
  <path id="Tracé_896" data-name="Tracé 896" d="M41.309,16.458l1.1-4.438c-.461.63-8,10.72-18.414,10.72v3.071C32.33,25.811,38.811,19.361,41.309,16.458Z" transform="translate(5.179 4.912)" fill="#d9896d"/>
  <path id="Tracé_897" data-name="Tracé 897" d="M36.268,30.06a.768.768,0,0,1-.768-.768c0-3.873,5.174-5.767,8.258-6.552a.768.768,0,0,1,.378,1.488c-1.864.475-5.891,1.74-6.877,4.013a17.313,17.313,0,0,1,6.842-.107.769.769,0,1,1-.307,1.507,16.005,16.005,0,0,0-7.29.381A.768.768,0,0,1,36.268,30.06Z" transform="translate(11.34 10.646)" fill="#5e3616"/>
  <path id="Tracé_898" data-name="Tracé 898" d="M42.806,19.529c.032-.009.063-.017.1-.023.461-.083.814.65.814,1.146,0,.14-.052,3.455-4.607,3.455S34.5,20.792,34.5,20.652a1.213,1.213,0,0,1,.518-1.037c.335-.2.66-.014.921.307.127.154.226.35.361.5a1.726,1.726,0,0,0,.461.327,6.848,6.848,0,0,0,1.273.579,3.677,3.677,0,0,0,3.423-.754A4.862,4.862,0,0,1,42.806,19.529Z" transform="translate(10.804 8.92)" fill="#3b220e"/>
  <path id="Tracé_899" data-name="Tracé 899" d="M30.947,30.06a.779.779,0,0,0,.45-.146.768.768,0,0,0,.318-.622c0-3.873-5.174-5.767-8.258-6.552a.768.768,0,0,0-.378,1.488c1.864.475,5.891,1.74,6.877,4.013a17.313,17.313,0,0,0-6.842-.108.769.769,0,0,0,.307,1.507,16.009,16.009,0,0,1,7.29.381.754.754,0,0,0,.235.038Z" transform="translate(4.375 10.646)" fill="#5e3616"/>
  <path id="Tracé_900" data-name="Tracé 900" d="M24.411,19.529c-.032-.009-.063-.017-.1-.023-.461-.083-.814.65-.814,1.146,0,.14.052,3.455,4.607,3.455s4.607-3.316,4.607-3.455a1.213,1.213,0,0,0-.518-1.037c-.336-.2-.66-.014-.921.307-.127.154-.226.35-.362.5a1.7,1.7,0,0,1-.461.327,6.791,6.791,0,0,1-1.272.579,3.677,3.677,0,0,1-3.423-.754,4.884,4.884,0,0,0-1.348-1.043Z" transform="translate(4.912 8.92)" fill="#3b220e"/>
  <ellipse id="Ellipse_131" data-name="Ellipse 131" cx="0.871" cy="3.483" rx="0.871" ry="3.483" transform="translate(40.679 41.082)" fill="#d9896d"/>
  <path id="Tracé_901" data-name="Tracé 901" d="M32.822,37.683A7.657,7.657,0,0,0,19,33.108a21.447,21.447,0,0,0,6.882,12.178A7.653,7.653,0,0,0,32.822,37.683Z" transform="translate(2.5 14.541)" fill="#f2a283"/>
  <path id="Tracé_902" data-name="Tracé 902" d="M37,38.681a7.656,7.656,0,0,0,4.331,6.88,21.144,21.144,0,0,0,7.955-12.994A7.643,7.643,0,0,0,37,38.681Z" transform="translate(12.144 15.079)" fill="#f2a283"/>
  <path id="Tracé_903" data-name="Tracé 903" d="M52.082,64.851l-9.829-9.767H38.261A12.2,12.2,0,0,1,27.6,49.11a2.755,2.755,0,0,1-.921.4l-6.367,1.514c1.227,3.125,5.579,8.668,21.018,8.668l6.143,10.75H62.833Z" transform="translate(3.204 24.783)" fill="#21abab"/>
  <path id="Tracé_904" data-name="Tracé 904" d="M38,51.488h0l6.143,5.394Z" transform="translate(12.68 26.057)" fill="none"/>
  <path id="Tracé_905" data-name="Tracé 905" d="M36.43,50.11l2.411,2.116h0Z" transform="translate(11.839 25.319)" fill="none"/>
  <path id="Tracé_906" data-name="Tracé 906" d="M38.134,47.577h0a2.928,2.928,0,0,0-.384-.037,2.927,2.927,0,0,1,.384.037Z" transform="translate(12.546 23.942)" fill="none"/>
  <path id="Tracé_907" data-name="Tracé 907" d="M46.285,61.429l-6.143-5.394v.154L38.744,55a2.918,2.918,0,0,0-2.058-.829,3.052,3.052,0,0,0-1.49.4,2.208,2.208,0,0,0-.537,3.532l.261.261,9.829,9.766,10.75,5.59H58.57A8.327,8.327,0,0,0,65.5,70.444a12.934,12.934,0,0,0,2.273-7.479,3.741,3.741,0,0,0,.015-.415l-3.071-4.193V47.607a3.071,3.071,0,1,0-6.143,0v4.607l-9.015-8.385A2.852,2.852,0,0,0,47.5,43a2.979,2.979,0,0,0-1.52.415,2.093,2.093,0,0,0-.6,3.394l7.049,6.942-7.541-7.126a2.843,2.843,0,0,0-2.043-.829,2.909,2.909,0,0,0-1.505.4,2.281,2.281,0,0,0-.461,3.594l1.282,1.29-.346-.276a2.866,2.866,0,0,0-1.674-.792v6.026Z" transform="translate(10.538 21.51)" fill="#f2bca7"/>
  <path id="Tracé_908" data-name="Tracé 908" d="M37.2,47.939a2.224,2.224,0,0,0-.538,3.548L39.07,53.6V47.577a2.928,2.928,0,0,0-.384-.037A3.052,3.052,0,0,0,37.2,47.939Z" transform="translate(11.61 23.942)" fill="#f2bca7"/>
  <path id="Tracé_909" data-name="Tracé 909" d="M36.53,48.178a2.17,2.17,0,0,0,.127,2.967l6.922,6.077a2.319,2.319,0,0,0,3.168-.1h0Z" transform="translate(11.611 24.284)" fill="#f2ab8f"/>
  <path id="Tracé_910" data-name="Tracé 910" d="M53.234,65.5l-7.387-3.167A6.2,6.2,0,0,1,43.9,61.023l-8.82-8.82a1.51,1.51,0,0,1-.384-1.422,2.167,2.167,0,0,0-.041,3.147l.261.261,9.829,9.767,10.75,5.59h3.071A8.327,8.327,0,0,0,65.5,66.275a12.9,12.9,0,0,0,2.265-7.382,8.834,8.834,0,0,1-7.783,7.436A11.841,11.841,0,0,1,53.234,65.5Z" transform="translate(10.538 25.679)" fill="#f2ab8f"/>
  <path id="Tracé_911" data-name="Tracé 911" d="M47.961,56.3a1.086,1.086,0,0,0,0-1.536L38.6,45.4a2.251,2.251,0,0,0,.115,3.095L40,49.79l-.346-.276c-.025-.025-.055-.041-.081-.066L46.425,56.3a1.086,1.086,0,0,0,1.536,0Z" transform="translate(12.701 22.798)" fill="#f2ab8f"/>
  <path id="Tracé_912" data-name="Tracé 912" d="M50.977,54.25a1.086,1.086,0,0,0,0-1.536L41.762,43.5a2.093,2.093,0,0,0-.531,2.54l7.442,7.442.768.768A1.086,1.086,0,0,0,50.977,54.25Z" transform="translate(14.293 21.778)" fill="#f2ab8f"/>
  <path id="Tracé_913" data-name="Tracé 913" d="M39.45,58.83a2.208,2.208,0,0,1,.538-3.532,3.052,3.052,0,0,1,1.49-.4,2.918,2.918,0,0,1,2.058.829l1.4,1.193v-.154l-2.411-2.115a2.224,2.224,0,0,1,.538-3.548,3.052,3.052,0,0,1,1.49-.4,2.928,2.928,0,0,1,.384.037V41.63a21.23,21.23,0,0,1-18.429,0v8.892a3.038,3.038,0,0,1-1.444,2.6,12.2,12.2,0,0,0,10.658,5.974h3.993Z" transform="translate(5.747 20.776)" fill="#ff5d54"/>
  <path id="Tracé_914" data-name="Tracé 914" d="M53.071,45.536a1.536,1.536,0,0,1,.877-1.382A2.746,2.746,0,0,0,53.071,44,3.207,3.207,0,0,0,50,47.071v4.607l3.072,3.072Z" transform="translate(19.109 22.046)" fill="#f2ab8f"/>
  <path id="Tracé_915" data-name="Tracé 915" d="M44.933,41.63a21.23,21.23,0,0,1-18.429,0v8.892a3.038,3.038,0,0,1-1.444,2.6,11.573,11.573,0,0,0,1.832,2.362l18.04-10.824Z" transform="translate(5.747 20.776)" fill="#e7544c"/>
  <path id="Tracé_916" data-name="Tracé 916" d="M22.75,47.358a1.527,1.527,0,0,1-.921-.307l-6.143-4.607a1.536,1.536,0,0,1-.164-2.314l1.82-1.82-4.727-3.545a1.536,1.536,0,1,1,1.843-2.457L20.6,36.914a1.536,1.536,0,0,1,.164,2.314l-1.82,1.82,4.727,3.545a1.536,1.536,0,0,1-.921,2.764Z" transform="translate(-1.25 15.617)" fill="#ff5d54"/>
  <path id="Tracé_917" data-name="Tracé 917" d="M22.893,46.679H13.679A1.536,1.536,0,0,1,12.4,44.291l1.48-2.219H7.536a1.536,1.536,0,1,1,0-3.071H16.75a1.536,1.536,0,0,1,1.278,2.388l-1.48,2.219h6.346a1.536,1.536,0,1,1,0,3.071Z" transform="translate(-4.464 19.367)" fill="#ff5d54"/>
  <path id="Tracé_918" data-name="Tracé 918" d="M20.75,52.679H11.536a1.536,1.536,0,0,1,0-3.072h6.346L16.4,47.388A1.536,1.536,0,0,1,17.679,45h9.214a1.536,1.536,0,0,1,0,3.071H20.548l1.48,2.219a1.536,1.536,0,0,1-1.278,2.388Z" transform="translate(-2.321 22.581)" fill="#ff5d54"/>
  <path id="Tracé_919" data-name="Tracé 919" d="M46.536,46.358a1.536,1.536,0,0,1-.921-2.764l4.727-3.545-1.82-1.82a1.536,1.536,0,0,1,.164-2.314l6.143-4.607a1.536,1.536,0,0,1,1.843,2.457l-4.727,3.545,1.82,1.82a1.536,1.536,0,0,1-.164,2.314L47.457,46.05A1.526,1.526,0,0,1,46.536,46.358Z" transform="translate(16.43 15.081)" fill="#ff5d54"/>
  <path id="Tracé_920" data-name="Tracé 920" d="M57.75,45.679H48.536a1.536,1.536,0,1,1,0-3.071h6.346L53.4,40.388A1.536,1.536,0,0,1,54.679,38h9.214a1.536,1.536,0,0,1,0,3.071H57.548l1.48,2.219a1.536,1.536,0,0,1-1.278,2.388Z" transform="translate(17.501 18.831)" fill="#ff5d54"/>
  <path id="Tracé_921" data-name="Tracé 921" d="M40.221,55.479l-.261-.261a2.227,2.227,0,0,1-.631-1.275h-3.1a10.624,10.624,0,0,1-9.368-5.291,1.493,1.493,0,0,0-.217-.28A3.021,3.021,0,0,1,25.568,49.5a2.755,2.755,0,0,1-.921.4l-.539.127c.012.026.049.1.121.227a13.714,13.714,0,0,0,12,6.756h4.607a1.49,1.49,0,0,0,.723-.206Z" transform="translate(5.237 24.389)" fill="#e3e3e3"/>
</svg>
