<svg id="Fever" xmlns="http://www.w3.org/2000/svg" width="95.217" height="96.281" viewBox="0 0 95.217 96.281">
  <path id="Tracé_1003" data-name="Tracé 1003" d="M70.5,64.607H6L27.5,60s3.071,3.072,10.75,3.072S49,60,49,60Z" transform="translate(1.679 31.674)" fill="#34c1ad"/>
  <path id="Tracé_1004" data-name="Tracé 1004" d="M35.286,50.607H23S23,46,29.143,46,35.286,50.607,35.286,50.607Z" transform="translate(10.786 24.173)" fill="#8f312c"/>
  <path id="Tracé_1005" data-name="Tracé 1005" d="M11.75,52a12.086,12.086,0,0,0,.369,2.979l-.369.092S7.143,52,7.143,42.786,13.286,30.5,13.286,30.5A13.227,13.227,0,0,1,1,22.822a66.893,66.893,0,0,0,19.965-7.679C31.715,9,36.322,9,42.465,9c7.679,0,13.822,7.679,13.822,7.679s1.444-2.9,7.157-3.072c6.189-.169,11.272,7.617,11.272,13.822V44.153a6.171,6.171,0,0,1-.875,3.164l-3.732,6.22-.092-.015A12.437,12.437,0,0,0,70.109,52V50.465A4.607,4.607,0,0,0,65.5,45.858H62.43V39.715a11.825,11.825,0,0,1-4.607-4.377V28.965a42.21,42.21,0,0,0-4.607-1.444,50.143,50.143,0,0,0-12.286-1.628,50.144,50.144,0,0,0-12.286,1.628,42.207,42.207,0,0,0-4.607,1.444V34.34l-4.607,3.839v7.679H16.357a4.607,4.607,0,0,0-4.607,4.607Z" transform="translate(-1 4.35)" fill="#5e3616"/>
  <path id="Tracé_1006" data-name="Tracé 1006" d="M37.179,30.875a50.692,50.692,0,0,1,16.893,3.072V26.5a11.825,11.825,0,0,0,4.607,4.377v6.143h3.072a4.607,4.607,0,0,1,4.607,4.607v1.536a12.439,12.439,0,0,1-.092,1.52,10.577,10.577,0,0,1-7.587,9.23,20.926,20.926,0,0,1-10.75,14.206,22.844,22.844,0,0,1-21.5,0,20.926,20.926,0,0,1-10.75-14.206,10.32,10.32,0,0,1-7.31-7.771A12.086,12.086,0,0,1,8,43.161V41.625a4.607,4.607,0,0,1,4.607-4.607h3.071V29.339L20.286,25.5v8.447a50.692,50.692,0,0,1,16.893-3.071ZM31.036,61.59H43.322s0-4.607-6.143-4.607S31.036,61.59,31.036,61.59Z" transform="translate(2.75 13.19)" fill="#d47470"/>
  <path id="Tracé_1007" data-name="Tracé 1007" d="M41.5,53.25V63.616s-3.071,3.072-10.75,3.072S20,63.616,20,63.616V53.25a22.844,22.844,0,0,0,21.5,0Z" transform="translate(9.179 28.057)" fill="#f2b59d"/>
  <path id="Tracé_1008" data-name="Tracé 1008" d="M41.5,53.25a22.844,22.844,0,0,1-21.5,0V63.616a8.354,8.354,0,0,0,2.039,1.319L41.5,56.6Z" transform="translate(9.179 28.057)" fill="#ed9776"/>
  <path id="Tracé_1009" data-name="Tracé 1009" d="M56,33.286C49.858,30.214,48.322,21,48.322,21a11.454,11.454,0,0,1-9.214,7.679l1.52-6.112a30.113,30.113,0,0,1-12.286,9.568,17.454,17.454,0,0,1-6.128,1.152V24.071L13,31.75v7.679H56Z" transform="translate(5.429 10.779)" fill="#d47470"/>
  <path id="Tracé_1010" data-name="Tracé 1010" d="M11.143,23S5,26.071,5,35.286,9.607,47.572,9.607,47.572l.369-.092A12.086,12.086,0,0,1,9.607,44.5V42.965a4.607,4.607,0,0,1,4.607-4.607h3.071V30.679L9.607,33.75C6.536,29.143,11.143,23,11.143,23Z" transform="translate(1.143 11.851)" fill="#3b220e"/>
  <path id="Tracé_1011" data-name="Tracé 1011" d="M41,29v6.143h3.071a4.607,4.607,0,0,1,4.607,4.607V32.071A11.75,11.75,0,0,1,41,29Z" transform="translate(20.43 15.065)" fill="#3b220e"/>
  <path id="Tracé_1012" data-name="Tracé 1012" d="M29.071,10.586H26A5.632,5.632,0,0,1,27.964,6.45c.748-.779,1.107-1.187,1.107-2.007s-.359-1.229-1.107-2.007L30.179.307a5.632,5.632,0,0,1,1.964,4.136,5.632,5.632,0,0,1-1.964,4.136C29.431,9.357,29.071,9.766,29.071,10.586Z" transform="translate(12.394 -0.307)" fill="#c74841"/>
  <path id="Tracé_1013" data-name="Tracé 1013" d="M37.071,10.586H34A5.632,5.632,0,0,1,35.964,6.45c.748-.779,1.107-1.187,1.107-2.007s-.359-1.229-1.107-2.007L38.179.307a5.632,5.632,0,0,1,1.964,4.136,5.632,5.632,0,0,1-1.964,4.136C37.431,9.357,37.071,9.766,37.071,10.586Z" transform="translate(16.68 -0.307)" fill="#c74841"/>
  <path id="Tracé_1014" data-name="Tracé 1014" d="M21.071,10.586H18A5.632,5.632,0,0,1,19.964,6.45c.748-.779,1.107-1.187,1.107-2.007s-.359-1.229-1.107-2.007L22.179.307a5.632,5.632,0,0,1,1.964,4.136,5.632,5.632,0,0,1-1.964,4.136C21.431,9.357,21.071,9.766,21.071,10.586Z" transform="translate(8.108 -0.307)" fill="#c74841"/>
  <path id="Tracé_1015" data-name="Tracé 1015" d="M32.005,37.522a4.768,4.768,0,0,1,2.119-4.362,13.426,13.426,0,0,0,2.979.921,5.658,5.658,0,0,1,1.044,3.44c0,2.549-1.382,4.607-3.071,4.607S32.005,40.071,32.005,37.522Z" transform="translate(15.603 17.294)" fill="#5e3616"/>
  <path id="Tracé_1016" data-name="Tracé 1016" d="M22.024,33.16a4.768,4.768,0,0,1,2.119,4.362c0,2.549-1.382,4.607-3.071,4.607S18,40.071,18,37.522a5.658,5.658,0,0,1,1.044-3.44,13.426,13.426,0,0,0,2.979-.921Z" transform="translate(8.107 17.294)" fill="#5e3616"/>
  <path id="Tracé_1017" data-name="Tracé 1017" d="M41,45.75V35h1.536a3.071,3.071,0,0,1,3.071,3.071v1.715a6.143,6.143,0,0,1-4.2,5.836Z" transform="translate(20.43 18.28)" fill="#b8514d"/>
  <path id="Tracé_1018" data-name="Tracé 1018" d="M14.607,45.75V35H13.071A3.071,3.071,0,0,0,10,38.071v1.715a6.143,6.143,0,0,0,4.2,5.836Z" transform="translate(3.822 18.28)" fill="#b8514d"/>
  <ellipse id="Ellipse_136" data-name="Ellipse 136" cx="1.536" cy="3.071" rx="1.536" ry="3.071" transform="translate(38.394 57.887)" fill="#b54f4a"/>
  <path id="Tracé_1019" data-name="Tracé 1019" d="M52.929,28.482A14.436,14.436,0,0,1,51.394,26.5v7.448A50.692,50.692,0,0,0,34.5,30.875a50.692,50.692,0,0,0-16.893,3.071V25.5l-1.536,1.279L13,29.339v3.072l3.071-3.072v7.679A59.683,59.683,0,0,1,34.5,33.947a59.684,59.684,0,0,1,18.429,3.072V31.041A14.265,14.265,0,0,0,56,32.411V30.875a10.5,10.5,0,0,1-3.071-2.393Z" transform="translate(5.429 13.19)" fill="#b8514d"/>
  <path id="Tracé_1020" data-name="Tracé 1020" d="M41.922,37.143a22.626,22.626,0,0,1-4.414-.4,15.019,15.019,0,0,1-3.314-1.029,10.015,10.015,0,0,1-3.081-2.106,1.538,1.538,0,0,1,2.208-2.142,6.958,6.958,0,0,0,2.139,1.451,11.979,11.979,0,0,0,2.638.811,19.5,19.5,0,0,0,3.822.341,1.536,1.536,0,0,1,0,3.072Z" transform="translate(14.901 16.137)" fill="#3b220e"/>
  <path id="Tracé_1021" data-name="Tracé 1021" d="M16.536,37.143a1.536,1.536,0,0,1,0-3.071,19.544,19.544,0,0,0,3.818-.339A11.98,11.98,0,0,0,23,32.918a6.957,6.957,0,0,0,2.138-1.45,1.536,1.536,0,0,1,2.21,2.135,9.992,9.992,0,0,1-3.079,2.113,15.062,15.062,0,0,1-3.322,1.029A22.543,22.543,0,0,1,16.536,37.143Z" transform="translate(6.5 16.137)" fill="#3b220e"/>
  <path id="Tracé_1022" data-name="Tracé 1022" d="M49.786,36.325a50.692,50.692,0,0,0-16.893-3.072A50.692,50.692,0,0,0,16,36.325V22.5a42.21,42.21,0,0,1,4.607-1.444v9.122a42.5,42.5,0,0,1,12.286-1.536,42.5,42.5,0,0,1,12.286,1.536V21.06A42.211,42.211,0,0,1,49.786,22.5Z" transform="translate(7.036 10.811)" fill="#cee5dd"/>
  <path id="Tracé_1023" data-name="Tracé 1023" d="M43.572,21.628V30.75a42.5,42.5,0,0,0-12.286-1.536A42.5,42.5,0,0,0,19,30.75V21.628A50.144,50.144,0,0,1,31.286,20a50.143,50.143,0,0,1,12.286,1.628Z" transform="translate(8.643 10.244)" fill="#66b9de"/>
  <path id="Tracé_1024" data-name="Tracé 1024" d="M31.822,30.182a63.369,63.369,0,0,1,13.822,1.536V21.485c-.471-.138-.975-.28-1.536-.425v9.122a42.5,42.5,0,0,0-12.286-1.536,42.5,42.5,0,0,0-12.286,1.536V21.06c-.561.154-1.064.287-1.536.425V31.718a63.37,63.37,0,0,1,13.822-1.536Z" transform="translate(8.108 10.811)" fill="#55add4"/>
  <path id="Tracé_1025" data-name="Tracé 1025" d="M42.923,27.654V21.628A50.144,50.144,0,0,0,30.637,20a48.97,48.97,0,0,0-10.426,1.189C21.963,24.71,31.339,27.43,42.923,27.654Z" transform="translate(9.292 10.244)" fill="#75d5ff"/>
  <path id="Tracé_1026" data-name="Tracé 1026" d="M65.286,11.75v4.607H53V7.143a6.143,6.143,0,0,1,12.286,0Z" transform="translate(26.859 0.064)" fill="#d4d4d4"/>
  <path id="Tracé_1027" data-name="Tracé 1027" d="M66.358,37.937a9.214,9.214,0,1,1-12.286,0V11H66.358Z" transform="translate(25.787 5.422)" fill="#e7544c"/>
  <path id="Tracé_1028" data-name="Tracé 1028" d="M57.607,7.141a6.143,6.143,0,0,1,3.839-5.682A6.131,6.131,0,0,0,53,7.141v9.214h4.607Z" transform="translate(26.859 0.067)" fill="#bfbfbf"/>
  <path id="Tracé_1029" data-name="Tracé 1029" d="M55.61,44.786a9.214,9.214,0,0,1,3.071-6.849V11H54.074V37.937a9.193,9.193,0,0,0,8.447,15.757A9.214,9.214,0,0,1,55.61,44.786Z" transform="translate(25.785 5.422)" fill="#c74841"/>
  <path id="Tracé_1030" data-name="Tracé 1030" d="M66.358,43.295V7.143a6.143,6.143,0,1,0-12.286,0V43.295a9.214,9.214,0,1,0,12.286,0ZM60.215,57.823A7.665,7.665,0,0,1,55.1,44.436a1.536,1.536,0,0,0,.507-1.141V7.143a4.607,4.607,0,1,1,9.214,0V43.295a1.536,1.536,0,0,0,.508,1.141,7.666,7.666,0,0,1-5.116,13.387Z" transform="translate(25.787 0.064)" fill="#e3e3e3"/>
  <path id="Tracé_1031" data-name="Tracé 1031" d="M59.536,25h3.071v3.071H59.536A1.536,1.536,0,0,1,58,26.536h0A1.536,1.536,0,0,1,59.536,25Z" transform="translate(29.538 12.922)" fill="#e3e3e3"/>
  <path id="Tracé_1032" data-name="Tracé 1032" d="M59.536,19h3.071v3.071H59.536A1.536,1.536,0,0,1,58,20.536h0A1.536,1.536,0,0,1,59.536,19Z" transform="translate(29.538 9.708)" fill="#e3e3e3"/>
  <path id="Tracé_1033" data-name="Tracé 1033" d="M59.536,13h3.071v3.071H59.536A1.536,1.536,0,0,1,58,14.536h0A1.536,1.536,0,0,1,59.536,13Z" transform="translate(29.538 6.493)" fill="#e3e3e3"/>
  <path id="Tracé_1034" data-name="Tracé 1034" d="M59.536,7h3.071v3.072H59.536A1.536,1.536,0,0,1,58,8.536h0A1.536,1.536,0,0,1,59.536,7Z" transform="translate(29.538 3.279)" fill="#e3e3e3"/>
  <path id="Tracé_1035" data-name="Tracé 1035" d="M61.477,36.118c1.093.253,1.7-1.318,1.662-2.317a3.646,3.646,0,0,0-1.947-3.4,4.366,4.366,0,0,0-2.755-.307,2.027,2.027,0,0,0-1.06.471,1.186,1.186,0,0,0-.33,1.178,1.62,1.62,0,0,0,.428.6L60.6,35.5A1.957,1.957,0,0,0,61.477,36.118Z" transform="translate(29.004 15.599)" fill="#fff"/>
  <path id="Tracé_1036" data-name="Tracé 1036" d="M43.488,60.316,42.015,60s-3.071,3.072-10.75,3.072S20.514,60,20.514,60l-1.474.316a1.5,1.5,0,0,0,.389.768c.144.144,3.615,3.523,11.836,3.523S42.956,61.229,43.1,61.086A1.483,1.483,0,0,0,43.488,60.316Z" transform="translate(8.665 31.674)" fill="#e3e3e3"/>
</svg>
