<svg id="Dizziness" xmlns="http://www.w3.org/2000/svg" width="96.333" height="96.333" viewBox="0 0 96.333 96.333">
  <path id="Tracé_1037" data-name="Tracé 1037" d="M76.258,64.661H11L32.753,60s3.108,3.108,10.876,3.108S54.505,60,54.505,60Z" transform="translate(4.538 31.672)" fill="#34c1ad"/>
  <path id="Tracé_1038" data-name="Tracé 1038" d="M11.053,15.43,7.215,13.3,4.154,15l-.777.435.73-4.49L1,7.755l4.288-.668L7.215,3,9.142,7.086l4.288.668-2.657,2.719-.451.466Z" transform="translate(-1 0.108)" fill="#fedb03"/>
  <path id="Tracé_1039" data-name="Tracé 1039" d="M50.992,6.951l.4,2.5.14.87L48.661,8.738l-2.874,1.585.28-1.787.264-1.585L44,4.558l3.216-.482L48.661,1l1.445,3.076,3.216.482Z" transform="translate(22.812 -1)" fill="#fedb03"/>
  <path id="Tracé_1040" data-name="Tracé 1040" d="M61.215,8l1.927,4.086,4.288.668L64.323,15.94l.73,4.49L61.215,18.3,57.377,20.43l.7-4.273.031-.218L55,12.755l4.288-.668.746-1.585Z" transform="translate(28.903 2.876)" fill="#fedb03"/>
  <path id="Tracé_1041" data-name="Tracé 1041" d="M77.287,18.307a10.214,10.214,0,0,0-8.111-4.646c-5.78.171-7.241,3.108-7.241,3.108S55.72,9,47.952,9C41.737,9,37.075,9,26.2,15.215a73.412,73.412,0,0,1-8.546,4.164A59.665,59.665,0,0,1,6,22.984a13.383,13.383,0,0,0,12.43,7.769s-6.215,3.108-6.215,12.43,4.661,12.43,4.661,12.43l.373-.093a12.228,12.228,0,0,1-.373-3.014V50.952a4.661,4.661,0,0,1,4.661-4.661h3.108V38.522l9.323-7.769v9.323a17.659,17.659,0,0,0,6.2-1.165A30.466,30.466,0,0,0,52.6,29.23l-1.538,6.184a11.588,11.588,0,0,0,9.323-7.769s1.554,9.323,7.769,12.43V46.29h3.108a4.661,4.661,0,0,1,4.661,4.661v1.554a12.585,12.585,0,0,1-.093,1.538l.093.016,3.776-6.293a6.243,6.243,0,0,0,.886-3.2V27.645a16.329,16.329,0,0,0-3.294-9.338Z" transform="translate(1.769 3.43)" fill="#5e3616"/>
  <path id="Tracé_1042" data-name="Tracé 1042" d="M46.753,53.25V63.738s-3.108,3.108-10.876,3.108S25,63.738,25,63.738V53.25a23.112,23.112,0,0,0,21.753,0Z" transform="translate(12.29 27.934)" fill="#f2b59d"/>
  <path id="Tracé_1043" data-name="Tracé 1043" d="M53.4,71.109a23.112,23.112,0,0,1-21.753,0A21.172,21.172,0,0,1,20.769,56.737a10.441,10.441,0,0,1-7.4-7.862A12.228,12.228,0,0,1,13,45.86V44.306a4.661,4.661,0,0,1,4.661-4.661h3.108V31.876l9.323-7.769V33.43a17.659,17.659,0,0,0,6.2-1.165,30.466,30.466,0,0,0,12.43-9.68l-1.538,6.184A11.588,11.588,0,0,0,56.505,21s1.554,9.323,7.769,12.43v6.215h3.108a4.661,4.661,0,0,1,4.661,4.661V45.86A12.585,12.585,0,0,1,71.95,47.4a10.7,10.7,0,0,1-7.676,9.338A21.172,21.172,0,0,1,53.4,71.109Z" transform="translate(5.645 10.075)" fill="#f2c4b2"/>
  <path id="Tracé_1044" data-name="Tracé 1044" d="M46.753,53.25A23.112,23.112,0,0,1,25,53.25V63.738a8.452,8.452,0,0,0,2.063,1.335l19.689-8.437Z" transform="translate(12.29 27.934)" fill="#ed9776"/>
  <path id="Tracé_1045" data-name="Tracé 1045" d="M46,45.876V35h1.554a3.108,3.108,0,0,1,3.108,3.108v1.736a6.215,6.215,0,0,1-4.25,5.9Z" transform="translate(23.919 17.828)" fill="#f2a283"/>
  <path id="Tracé_1046" data-name="Tracé 1046" d="M19.661,45.876V35H18.108A3.108,3.108,0,0,0,15,38.108v1.736a6.215,6.215,0,0,0,4.25,5.9Z" transform="translate(6.753 17.828)" fill="#f2a283"/>
  <ellipse id="Ellipse_137" data-name="Ellipse 137" cx="1" cy="3.5" rx="1" ry="3.5" transform="translate(47.598 57.251)" fill="#d9896d"/>
  <path id="Tracé_1047" data-name="Tracé 1047" d="M40.43,53.769H28S28,46,34.215,46,40.43,53.769,40.43,53.769Z" transform="translate(13.952 23.919)" fill="#d9896d"/>
  <path id="Tracé_1048" data-name="Tracé 1048" d="M61.505,33.43C55.29,30.323,53.737,21,53.737,21a11.588,11.588,0,0,1-9.323,7.769l1.538-6.184a30.466,30.466,0,0,1-12.43,9.68,17.659,17.659,0,0,1-6.2,1.165V24.108L18,31.876v7.769H61.505Z" transform="translate(8.414 10.075)" fill="#ad706d"/>
  <path id="Tracé_1049" data-name="Tracé 1049" d="M30.2,36.361a29.351,29.351,0,0,0,11.273-8.252c-.129.03-.247.068-.381.095L42.63,22.02A30.466,30.466,0,0,1,30.2,31.7,17.658,17.658,0,0,1,24,32.865v4.661A17.658,17.658,0,0,0,30.2,36.361Z" transform="translate(11.737 10.64)" fill="#875755"/>
  <path id="Tracé_1050" data-name="Tracé 1050" d="M44.323,25.661s1.554,9.323,7.769,12.43V33.43C45.876,30.323,44.323,21,44.323,21a11.42,11.42,0,0,1-8.08,7.458L35,33.43A11.588,11.588,0,0,0,44.323,25.661Z" transform="translate(17.828 10.075)" fill="#875755"/>
  <path id="Tracé_1051" data-name="Tracé 1051" d="M27.323,23,18,30.769V35.43l9.323-7.769Z" transform="translate(8.414 11.183)" fill="#875755"/>
  <path id="Tracé_1052" data-name="Tracé 1052" d="M16.215,23S10,26.108,10,35.43s4.661,12.43,4.661,12.43l.373-.093a12.228,12.228,0,0,1-.373-3.014V43.2a4.661,4.661,0,0,1,4.661-4.661H22.43V30.769l-7.769,3.108C11.554,29.215,16.215,23,16.215,23Z" transform="translate(3.984 11.183)" fill="#3b220e"/>
  <path id="Tracé_1053" data-name="Tracé 1053" d="M46,29v6.215h3.108a4.661,4.661,0,0,1,4.661,4.661V32.108A11.888,11.888,0,0,1,46,29Z" transform="translate(23.919 14.505)" fill="#3b220e"/>
  <path id="Tracé_1054" data-name="Tracé 1054" d="M44.769,41a7.769,7.769,0,1,0,0,15.538c.045,0,.085-.012.131-.012a20.612,20.612,0,0,0,6.085-10.864c.263-.067.5-.174.755-.261a7.742,7.742,0,0,0-6.97-4.4Z" transform="translate(18.935 21.151)" fill="#f2a283"/>
  <path id="Tracé_1055" data-name="Tracé 1055" d="M32.255,48.769a7.752,7.752,0,0,0-14.744-3.362c.252.087.5.188.76.255a20.612,20.612,0,0,0,6.085,10.864c.045,0,.085.012.131.012A7.769,7.769,0,0,0,32.255,48.769Z" transform="translate(8.143 21.151)" fill="#f2a283"/>
  <path id="Tracé_1056" data-name="Tracé 1056" d="M29.046,48.038h-.777a7.769,7.769,0,1,1,0-15.538h.777a5.438,5.438,0,0,1,0,10.876h-.777a3.108,3.108,0,0,1,0-6.215H30.6a.777.777,0,0,1,0,1.554H28.269a1.554,1.554,0,1,0,0,3.108h.777a3.884,3.884,0,1,0,0-7.769h-.777a6.215,6.215,0,0,0,0,12.43h.777a.777.777,0,1,1,0,1.554Z" transform="translate(9.798 16.444)" fill="#754c4a"/>
  <path id="Tracé_1057" data-name="Tracé 1057" d="M43.046,48.038h-.777a7.769,7.769,0,1,1,0-15.538h.777a5.438,5.438,0,0,1,0,10.876h-.777a3.108,3.108,0,0,1,0-6.215H44.6a.777.777,0,1,1,0,1.554H42.269a1.554,1.554,0,0,0,0,3.108h.777a3.884,3.884,0,0,0,0-7.769h-.777a6.215,6.215,0,0,0,0,12.43h.777a.777.777,0,1,1,0,1.554Z" transform="translate(17.551 16.444)" fill="#754c4a"/>
  <path id="Tracé_1058" data-name="Tracé 1058" d="M45.6,36.768a11.106,11.106,0,0,1-9.922-5.491,1.554,1.554,0,1,1,2.752-1.443A7.986,7.986,0,0,0,45.6,33.661a1.554,1.554,0,1,1,0,3.108Z" transform="translate(18.104 14.506)" fill="#3b220e"/>
  <path id="Tracé_1059" data-name="Tracé 1059" d="M22.554,36.769a1.554,1.554,0,0,1,0-3.108,7.974,7.974,0,0,0,7.172-3.825,1.554,1.554,0,0,1,2.756,1.436,11.1,11.1,0,0,1-9.929,5.5Z" transform="translate(10.075 14.505)" fill="#3b220e"/>
  <path id="Tracé_1060" data-name="Tracé 1060" d="M74.058,7.663a.634.634,0,0,1-.131-.051l.036.219L71.089,6.246,68.214,7.831l.191-1.221a.743.743,0,0,1-.521.127A180.145,180.145,0,0,0,46.229,5.5C31.3,5.5,17.617,7.118,9.639,9.826l-.452.155a.752.752,0,0,1-.174.028l.656,4.037L5.831,11.917,3.946,12.958v.014a1.99,1.99,0,0,0-.409.8,1.252,1.252,0,0,0-.037.277c0,1.759,4.1,4.518,15.668,6.507a163.427,163.427,0,0,0,27.06,2.039,147.177,147.177,0,0,0,32.259-3.108,34.674,34.674,0,0,0,7.7-2.615l-2.669-2.73,4.288-.668.392-.833c-.062-.061-.109-.123-.176-.183C86.022,10.639,81.059,8.933,74.058,7.663Z" transform="translate(0.384 1.492)" fill="none"/>
  <path id="Tracé_1061" data-name="Tracé 1061" d="M48.9,7.389a.634.634,0,0,0,.131.051C56.035,8.71,61,10.416,63,12.232c.067.061.113.123.176.183l.354-.752.342-.724c-2.94-2.5-9.507-4.108-14.56-5.028a.777.777,0,0,0-.622.166l.107.66Z" transform="translate(25.408 1.714)" fill="#d4d4d4"/>
  <path id="Tracé_1062" data-name="Tracé 1062" d="M7,10.109l.075.454a.752.752,0,0,0,.174-.028L7.7,10.38c7.979-2.708,21.656-4.326,36.59-4.326A180.15,180.15,0,0,1,65.947,7.3a.743.743,0,0,0,.521-.127l.089-.566.093-.561a.761.761,0,0,0-.51-.287A181.76,181.76,0,0,0,44.29,4.5C30.014,4.5,16.845,5.976,8.6,8.464L7.451,9.643Z" transform="translate(2.323 0.938)" fill="#d4d4d4"/>
  <path id="Tracé_1063" data-name="Tracé 1063" d="M87.18,14.666l-.438-.449a34.674,34.674,0,0,1-7.7,2.609,147.177,147.177,0,0,1-32.259,3.108,163.425,163.425,0,0,1-27.06-2.039C8.158,15.905,4.054,13.146,4.054,11.387a1.252,1.252,0,0,1,.03-.275,1.99,1.99,0,0,1,.409-.8V10.3l-1.176.651-.777.435.166-1.025a3.093,3.093,0,0,0-.155.421,2.77,2.77,0,0,0-.05.6c0,4.234,9.223,6.708,16.959,8.038a164.865,164.865,0,0,0,27.323,2.062,148.811,148.811,0,0,0,32.629-3.143A37.735,37.735,0,0,0,87,15.806l.155-.923Z" transform="translate(-0.17 4.151)" fill="#d4d4d4"/>
</svg>
