<svg id="Shortness_of_breath" data-name="Shortness of breath" xmlns="http://www.w3.org/2000/svg" width="95.23" height="95.225" viewBox="0 0 95.23 95.225">
  <path id="Tracé_922" data-name="Tracé 922" d="M57.518,39.071a4.274,4.274,0,0,1,3.839,4.607,4.274,4.274,0,0,1-3.839,4.607,4.076,4.076,0,0,1-3.839,3.072c-2.288,0-3.072-1.536-3.072-4.607L46,45.214V42.143l4.607-1.536c0-3.072.783-4.607,3.072-4.607a4.076,4.076,0,0,1,3.839,3.072Z" transform="translate(23.107 17.76)" fill="#f2f2f2"/>
  <path id="Tracé_923" data-name="Tracé 923" d="M64.518,29.071a4.274,4.274,0,0,1,3.839,4.607,4.274,4.274,0,0,1-3.839,4.607,4.076,4.076,0,0,1-3.839,3.071c-2.288,0-3.072-1.536-3.072-4.607L53,35.214V32.143l4.607-1.536c0-3.071.783-4.607,3.072-4.607a4.076,4.076,0,0,1,3.839,3.071Z" transform="translate(26.858 12.402)" fill="#f2f2f2"/>
  <path id="Tracé_924" data-name="Tracé 924" d="M13.286,7.143H4.071A3.071,3.071,0,0,1,1.046,3.55,3.182,3.182,0,0,1,4.24,1h.415a6.932,6.932,0,0,1,2.012.292C9.339,2.137,13.286,4.041,13.286,7.143Z" transform="translate(-1.001 -0.992)" fill="#b3f5ff"/>
  <path id="Tracé_925" data-name="Tracé 925" d="M12.217,16,8.27,23.679a2.984,2.984,0,0,1-2.641,1.536A2.884,2.884,0,0,1,3,22.143a2.764,2.764,0,0,1,.031-.353,3.465,3.465,0,0,1,.108-.6.015.015,0,0,1,.015-.015,1.3,1.3,0,0,1,.077-.261C3.77,19.118,5.644,16,12.217,16Z" transform="translate(0.068 7.045)" fill="#b3f5ff"/>
  <path id="Tracé_926" data-name="Tracé 926" d="M40.2,39.17a1.546,1.546,0,0,1-1.536,1.981H29.608a1.547,1.547,0,0,1-1.536-1.981,5.777,5.777,0,0,1,6.066-4.162A5.777,5.777,0,0,1,40.2,39.17Z" transform="translate(13.469 17.216)" fill="#d9896d"/>
  <path id="Tracé_927" data-name="Tracé 927" d="M78.364,34.943l-4.792,5.989-.169.015a7.5,7.5,0,0,0,.169-1.551V37.861A3.081,3.081,0,0,0,70.5,34.789H67.43V28.646c-7.679,0-7.679-12.286-7.679-12.286s-4.607,7.679-9.214,7.679l1.52-6.112c-.461.63-8,10.72-18.414,10.72V19.432l-9.214,7.679v7.679H21.357a3.081,3.081,0,0,0-3.071,3.071V39.4a8.293,8.293,0,0,0,1.52,4.592c-.461-.184-7.663-3.3-7.663-10.735a16.586,16.586,0,0,1,6.143-12.286A13.227,13.227,0,0,1,6,13.289s12.286-1.536,18.429-4.607S33.643,1,45.929,1A18.1,18.1,0,0,1,61.287,8.682,6.654,6.654,0,0,1,67.43,5.61c4.607,0,12.286,3.071,12.286,12.286V31.1a6.127,6.127,0,0,1-1.352,3.84Z" transform="translate(1.677 -0.994)" fill="#5e3616"/>
  <path id="Tracé_928" data-name="Tracé 928" d="M55.465,11s0,12.286,7.679,12.286v6.143h3.071A3.081,3.081,0,0,1,69.287,32.5v1.536a7.5,7.5,0,0,1-.169,1.551,11.381,11.381,0,0,1-7.51,7.663A20.653,20.653,0,0,1,50.858,58.04,20.221,20.221,0,0,1,21.679,43.251a11.885,11.885,0,0,1-6.143-4.607l-.015-.015A8.293,8.293,0,0,1,14,34.036V32.5a3.081,3.081,0,0,1,3.071-3.071h3.071V21.75l9.214-7.679v9.215c10.412,0,17.953-10.09,18.414-10.72l-1.52,6.112C50.858,18.679,55.465,11,55.465,11ZM46.174,54A1.547,1.547,0,0,0,47.71,52.02a5.777,5.777,0,0,0-6.066-4.162,5.777,5.777,0,0,0-6.066,4.162A1.547,1.547,0,0,0,37.113,54Z" transform="translate(5.963 4.366)" fill="#f2c4b2"/>
  <path id="Tracé_929" data-name="Tracé 929" d="M46.355,51.566a10.577,10.577,0,0,1-2.887,2.473,3.133,3.133,0,0,0-1.321-.307,2.517,2.517,0,0,0-1.828.753L38.784,56.02l-.046-.031,2.38-2.4A2.291,2.291,0,0,0,40.658,50a2.909,2.909,0,0,0-1.505-.4,2.843,2.843,0,0,0-2.043.829l-7.464,7.049,6.972-6.865a2.093,2.093,0,0,0-.6-3.394,2.979,2.979,0,0,0-1.52-.415,2.852,2.852,0,0,0-2.058.829L26.59,53.087a10.29,10.29,0,0,1-1.52-1.52,3.016,3.016,0,0,0,1.428-2.58V41.63a21.23,21.23,0,0,0,18.429,0v7.356a3.016,3.016,0,0,0,1.428,2.58Z" transform="translate(11.894 20.776)" fill="#ed9776"/>
  <path id="Tracé_930" data-name="Tracé 930" d="M40.723,54.1V58.7L38.65,56.769l1.413-1.4a2.179,2.179,0,0,0,.66-1.551h.015A1.67,1.67,0,0,0,40.723,54.1Z" transform="translate(19.17 27.307)" fill="#34c1ad"/>
  <path id="Tracé_931" data-name="Tracé 931" d="M42.052,54.65a2.179,2.179,0,0,1-.66,1.551l-1.413,1.4L36.17,54.067l1.136-.968a2.918,2.918,0,0,1,2.058-.829,3.052,3.052,0,0,1,1.49.4,2.3,2.3,0,0,1,1.2,1.981Z" transform="translate(17.841 26.476)" fill="#f2a283"/>
  <path id="Tracé_932" data-name="Tracé 932" d="M47.522,52.372a2.224,2.224,0,0,1,.538,3.548l-2.242,1.95-3.041-2.826a2.852,2.852,0,0,0-2.058-.829,2.979,2.979,0,0,0-1.52.415,2.093,2.093,0,0,0-.6,3.394l7.049,6.942-7.541-7.126a2.843,2.843,0,0,0-2.043-.829,2.909,2.909,0,0,0-1.505.4A2.291,2.291,0,0,0,34.1,61l8.523,8.569h-.046l-7.541-7.556a2.918,2.918,0,0,0-2.058-.829,3.052,3.052,0,0,0-1.49.4,2.224,2.224,0,0,0-.538,3.548l.983,1.044a2.881,2.881,0,0,0-2.027-.8,3.051,3.051,0,0,0-1.49.4,2.208,2.208,0,0,0-.538,3.532l3.348,3.333H20.293A12.179,12.179,0,0,1,18,64.965l3.072-4.607V49.607a3.207,3.207,0,0,1,3.071-3.071,3.207,3.207,0,0,1,3.072,3.072v4.607l3.164-2.933,5.851-5.452A2.852,2.852,0,0,1,38.292,45a2.979,2.979,0,0,1,1.52.415,2.093,2.093,0,0,1,.6,3.394l-6.972,6.865L40.9,48.624a2.843,2.843,0,0,1,2.043-.829,2.909,2.909,0,0,1,1.505.4,2.291,2.291,0,0,1,.461,3.594l-2.38,2.4.046.031,1.536-1.536a2.517,2.517,0,0,1,1.828-.753,3.133,3.133,0,0,1,1.321.307C47.353,52.28,47.429,52.326,47.522,52.372Z" transform="translate(8.102 22.581)" fill="#f2a283"/>
  <path id="Tracé_933" data-name="Tracé 933" d="M28.744,59.1l6,6.435H28.007L24.659,62.2a2.208,2.208,0,0,1,.538-3.532,3.051,3.051,0,0,1,1.49-.4,2.881,2.881,0,0,1,2.027.8Z" transform="translate(11.322 29.691)" fill="#f2bca7"/>
  <path id="Tracé_934" data-name="Tracé 934" d="M45.426,58.28,47.5,60.215V55.607a1.67,1.67,0,0,1,.015-.276,3.07,3.07,0,0,1,6.128.276v10.75l3.072,3.072H33.677l-6-6.435-.031-.031-.983-1.044a2.224,2.224,0,0,1,.538-3.548,3.052,3.052,0,0,1,1.49-.4,2.918,2.918,0,0,1,2.058.829l7.541,7.556h.046l-8.523-8.569a2.291,2.291,0,0,1,.461-3.594,2.909,2.909,0,0,1,1.505-.4,2.843,2.843,0,0,1,2.043.829l7.541,7.126-7.049-6.942a2.093,2.093,0,0,1,.6-3.394A2.979,2.979,0,0,1,36.426,51a2.852,2.852,0,0,1,2.058.829l3.041,2.826.092.092Z" transform="translate(12.394 25.796)" fill="#f2bca7"/>
  <path id="Tracé_935" data-name="Tracé 935" d="M27.164,49.62,24,52.554v-3.87l.706-.169a2.575,2.575,0,0,0,.937-.415A10.29,10.29,0,0,0,27.164,49.62Z" transform="translate(11.321 24.242)" fill="#21abab"/>
  <path id="Tracé_936" data-name="Tracé 936" d="M24.039,65.679H11L21.75,58a12.178,12.178,0,0,0,2.288,7.679Z" transform="translate(4.356 29.546)" fill="#21abab"/>
  <path id="Tracé_937" data-name="Tracé 937" d="M28.036,49.43v8.554l-3.071,4.607L14.214,70.27H5V62.192a9.23,9.23,0,0,1,7.08-8.969Z" transform="translate(1.142 24.955)" fill="#34c1ad"/>
  <path id="Tracé_938" data-name="Tracé 938" d="M41.378,48.515l22.806,5.421a9.23,9.23,0,0,1,7.08,8.969v8.078H51.3l-3.071-3.071V57.161a3.07,3.07,0,0,0-6.128-.276h-.015a2.3,2.3,0,0,0-1.2-1.981,3.052,3.052,0,0,0-1.49-.4,2.918,2.918,0,0,0-2.058.829L36.2,56.3l-.092-.092,2.242-1.95a2.224,2.224,0,0,0-.538-3.548c-.092-.046-.169-.092-.261-.138A10.577,10.577,0,0,0,40.441,48.1a2.576,2.576,0,0,0,.937.415Z" transform="translate(17.809 24.242)" fill="#34c1ad"/>
  <path id="Tracé_939" data-name="Tracé 939" d="M19.071,25H17.536A1.536,1.536,0,0,0,16,26.536v1.536c0,1.7,1.374,4.607,3.071,4.607h0Z" transform="translate(7.035 11.866)" fill="#f2a283"/>
  <path id="Tracé_940" data-name="Tracé 940" d="M46,25h1.536a1.536,1.536,0,0,1,1.536,1.536v1.536c0,1.7-1.382,4.607-3.071,4.607h0Z" transform="translate(23.107 11.866)" fill="#f2a283"/>
  <path id="Tracé_941" data-name="Tracé 941" d="M16.143,14A16.586,16.586,0,0,0,10,26.286c0,7.433,7.2,10.551,7.663,10.735a8.293,8.293,0,0,1-1.52-4.592V30.893a3.081,3.081,0,0,1,3.072-3.071h3.071V20.143l-9.214,3.071A13.453,13.453,0,0,1,16.143,14Z" transform="translate(3.82 5.973)" fill="#3b220e"/>
  <path id="Tracé_942" data-name="Tracé 942" d="M46,19v6.143h3.071a3.081,3.081,0,0,1,3.071,3.071V22.071Z" transform="translate(23.107 8.652)" fill="#3b220e"/>
  <path id="Tracé_943" data-name="Tracé 943" d="M39.5,34.036c18.429,0,21.5-4.607,21.5-4.607V23.286C53.322,23.286,53.322,11,53.322,11s-4.607,7.679-9.214,7.679l1.52-6.112c-.461.63-8,10.72-18.414,10.72V14.071L18,21.75v7.679S21.071,34.036,39.5,34.036Z" transform="translate(8.106 4.366)" fill="#ad706d"/>
  <ellipse id="Ellipse_132" data-name="Ellipse 132" cx="3.483" cy="4.354" rx="3.483" ry="4.354" transform="translate(33.781 34.115)" fill="#5e3616"/>
  <path id="Tracé_944" data-name="Tracé 944" d="M27.214,13,18,20.679V23.75l9.214-7.679Z" transform="translate(8.106 5.437)" fill="#875755"/>
  <path id="Tracé_945" data-name="Tracé 945" d="M44.214,14.071s0,12.286,7.679,12.286V23.286C44.214,23.286,44.214,11,44.214,11s-4.1,6.825-8.431,7.6L35,21.75C39.607,21.75,44.214,14.071,44.214,14.071Z" transform="translate(17.214 4.366)" fill="#875755"/>
  <path id="Tracé_946" data-name="Tracé 946" d="M41.309,16.458l1.1-4.438c-.461.63-8,10.72-18.414,10.72v3.071C32.33,25.811,38.811,19.361,41.309,16.458Z" transform="translate(11.321 4.912)" fill="#875755"/>
  <path id="Tracé_947" data-name="Tracé 947" d="M36.268,31.06a.768.768,0,0,1-.768-.768c0-3.873,5.174-5.767,8.258-6.552a.768.768,0,0,1,.378,1.488c-1.864.475-5.891,1.74-6.877,4.013a17.313,17.313,0,0,1,6.842-.107.769.769,0,0,1-.307,1.507,16.006,16.006,0,0,0-7.29.381A.768.768,0,0,1,36.268,31.06Z" transform="translate(17.482 11.181)" fill="#5e3616"/>
  <path id="Tracé_948" data-name="Tracé 948" d="M43.806,20.529c.032-.009.063-.017.1-.023.461-.083.814.65.814,1.146,0,.14-.052,3.455-4.607,3.455S35.5,21.792,35.5,21.652a1.213,1.213,0,0,1,.518-1.037c.335-.2.66-.014.921.307.127.154.226.35.361.5a1.726,1.726,0,0,0,.461.327,6.848,6.848,0,0,0,1.273.579,3.677,3.677,0,0,0,3.423-.754,4.862,4.862,0,0,1,1.348-1.043Z" transform="translate(17.482 9.455)" fill="#3b220e"/>
  <path id="Tracé_949" data-name="Tracé 949" d="M23.409,19.529c-.032-.009-.063-.017-.1-.023-.461-.083-.814.65-.814,1.146,0,.14.052,3.455,4.607,3.455s4.607-3.316,4.607-3.455a1.213,1.213,0,0,0-.518-1.037c-.335-.2-.66-.014-.921.307-.127.154-.226.35-.361.5a1.726,1.726,0,0,1-.461.327,6.848,6.848,0,0,1-1.273.579,3.677,3.677,0,0,1-3.423-.754A4.862,4.862,0,0,0,23.409,19.529Z" transform="translate(10.517 8.92)" fill="#3b220e"/>
  <ellipse id="Ellipse_133" data-name="Ellipse 133" cx="1.742" cy="3.483" rx="1.742" ry="3.483" transform="translate(45.973 41.082)" fill="#d9896d"/>
  <path id="Tracé_950" data-name="Tracé 950" d="M32.822,37.683A7.657,7.657,0,0,0,19,33.108a21.447,21.447,0,0,0,6.882,12.178A7.653,7.653,0,0,0,32.822,37.683Z" transform="translate(8.642 14.541)" fill="#f2a283"/>
  <path id="Tracé_951" data-name="Tracé 951" d="M37,38.681a7.656,7.656,0,0,0,4.331,6.88,21.144,21.144,0,0,0,7.955-12.994A7.643,7.643,0,0,0,37,38.681Z" transform="translate(18.286 15.079)" fill="#f2a283"/>
  <path id="Tracé_952" data-name="Tracé 952" d="M24.657,62.005l3.348,3.333h3.67l-6.7-6.7a2.182,2.182,0,0,0-.316,3.369Z" transform="translate(11.324 29.887)" fill="#f2b096"/>
  <path id="Tracé_953" data-name="Tracé 953" d="M43.072,53.091a1.517,1.517,0,0,0-.448-1.06,3.259,3.259,0,0,0-2.611,2.747,1.67,1.67,0,0,0-.012.276v4.607l3.072,3.072Z" transform="translate(19.892 26.348)" fill="#f2b096"/>
  <path id="Tracé_954" data-name="Tracé 954" d="M26.412,56.269a2.172,2.172,0,0,0,.247,2.827l.983,1.044.031.031,6,6.435h1.536V65.07Z" transform="translate(12.393 28.619)" fill="#f2b096"/>
  <path id="Tracé_955" data-name="Tracé 955" d="M40.977,60.717l-9.214-9.222a2.093,2.093,0,0,0-.531,2.54,1.777,1.777,0,0,0,.4.508l7.041,6.942.768.768a1.086,1.086,0,1,0,1.536-1.536Z" transform="translate(15.077 26.061)" fill="#f2b096"/>
  <path id="Tracé_956" data-name="Tracé 956" d="M39.493,65.837a1.086,1.086,0,0,0,0-1.536L28.6,53.4a2.284,2.284,0,0,0,.115,3.095l8.523,8.569h-.046l.768.768a1.086,1.086,0,0,0,1.536,0Z" transform="translate(13.489 27.084)" fill="#f2b096"/>
  <path id="Tracé_957" data-name="Tracé 957" d="M28.378,60.449a2.985,2.985,0,0,0-1.536-.427,3.051,3.051,0,0,0-1.49.4,2.208,2.208,0,0,0-.538,3.532l1.8,1.8h-.929a4.607,4.607,0,0,1-4.607-4.607V55L18,59.607a12.178,12.178,0,0,0,2.288,7.679H31.227l-3.348-3.333a2.2,2.2,0,0,1,.5-3.5Z" transform="translate(8.102 27.939)" fill="#ed9776"/>
  <path id="Tracé_958" data-name="Tracé 958" d="M30.207,53.25a2.985,2.985,0,0,0-3.033-.029,2.291,2.291,0,0,0-.461,3.594l.545.548A3.048,3.048,0,0,1,28.664,57a2.918,2.918,0,0,1,2.058.829l7.541,7.554h.046l-8.523-8.569a2.288,2.288,0,0,1,.422-3.563Z" transform="translate(12.416 26.772)" fill="#ed9776"/>
  <path id="Tracé_959" data-name="Tracé 959" d="M30.165,53.794a2.843,2.843,0,0,1,2.043.829l7.541,7.126L32.7,54.808a2.09,2.09,0,0,1,.585-3.379,2.993,2.993,0,0,0-3.058-.015,2.253,2.253,0,0,0-1.14,2.611A2.975,2.975,0,0,1,30.165,53.794Z" transform="translate(14.002 25.797)" fill="#ed9776"/>
  <path id="Tracé_960" data-name="Tracé 960" d="M28.224,55.972a2.981,2.981,0,0,0-1.536-.432,3.052,3.052,0,0,0-1.49.4,2.224,2.224,0,0,0-.538,3.548l.588.625a3.038,3.038,0,0,1,1.439-.379,2.881,2.881,0,0,1,2.027.8l-.983-1.044a2.216,2.216,0,0,1,.491-3.515Z" transform="translate(11.324 28.228)" fill="#ed9776"/>
  <path id="Tracé_961" data-name="Tracé 961" d="M22.521,49.071v3.971a1.536,1.536,0,0,0,2.622,1.086l.45-.45V49.071A3.207,3.207,0,0,0,22.521,46a2.87,2.87,0,0,0-1.494.448A3.059,3.059,0,0,1,22.521,49.071Z" transform="translate(9.728 23.117)" fill="#f2b096"/>
  <path id="Tracé_962" data-name="Tracé 962" d="M44.927,41.63a21.23,21.23,0,0,1-18.429,0v7.356a3.016,3.016,0,0,1-1.428,2.58,10.289,10.289,0,0,0,1.52,1.52l5.851-5.452a2.852,2.852,0,0,1,2.058-.829,2.979,2.979,0,0,1,1.52.415,2.542,2.542,0,0,1,1.075,1.2L44.927,44.5Z" transform="translate(11.894 20.776)" fill="#d9896d"/>
  <path id="Tracé_963" data-name="Tracé 963" d="M57.518,43.071a4.076,4.076,0,0,1-3.839,3.072c-2.288,0-3.072-1.536-3.072-4.607H46v1.536l4.607,1.536c0,3.071.783,4.607,3.072,4.607a4.076,4.076,0,0,0,3.839-3.072,4.274,4.274,0,0,0,3.839-4.607A5.374,5.374,0,0,0,61.123,40,3.947,3.947,0,0,1,57.518,43.071Z" transform="translate(23.107 19.903)" fill="#d4d4d4"/>
  <path id="Tracé_964" data-name="Tracé 964" d="M64.518,33.071a4.076,4.076,0,0,1-3.839,3.072c-2.288,0-3.072-1.536-3.072-4.607H53v1.536l4.607,1.536c0,3.071.783,4.607,3.072,4.607a4.076,4.076,0,0,0,3.839-3.072,4.274,4.274,0,0,0,3.839-4.607A5.376,5.376,0,0,0,68.123,30,3.947,3.947,0,0,1,64.518,33.071Z" transform="translate(26.858 14.545)" fill="#d4d4d4"/>
</svg>
