<svg xmlns="http://www.w3.org/2000/svg" width="100.802" height="101" viewBox="0 0 100.802 101">
  <g id="Contact_handshake" data-name="Contact handshake" transform="translate(0.485 -0.042)">
    <path id="Tracé_262" data-name="Tracé 262" d="M83.828,59.141c5.991,0,18.429-8.671,18.429-8.671L112.6,72.959s-15.331,12.99-19.438,15.97-28.3,19.013-36.772,19.951C52.2,96.2,61.118,67.89,61.118,67.89S71.342,59.141,83.828,59.141Z" transform="translate(-12.282 -10.209)" fill="#ffc298"/>
    <path id="Tracé_263" data-name="Tracé 263" d="M11.862,50.46s5.581,4.485,9.68,7.283,4.028,2.325,13.526,2.7a114.293,114.293,0,0,1,16.774,1.868s5.068,9.459,12.486,11.769c8.009,2.5,18.918,8.592,20.7,10.381,2.144,2.12-2.254,7.291-6.913,6.361,1.679,1.3-.93,5.778-5.218,6.054.788,2.7-5.959,4.934-8.568,4.934-2.049,2.428-6.519,3.941-12.029,3.358-4.351-.457-20.021.788-29.528-10.342A254.11,254.11,0,0,0,1,72.957Z" transform="translate(-0.79 -10.207)" fill="#aa4628"/>
    <path id="Tracé_264" data-name="Tracé 264" d="M42.972,72.7q4.186-2.672,8.332-5.392l4.162-2.7,2.081-1.356.568-.363c.331-.213.678-.394,1.025-.575a12.549,12.549,0,0,1,2.207-.891A11.343,11.343,0,0,1,63.711,61h.473l.307-.039.623-.087,2.5-.355c1.663-.244,3.326-.465,4.982-.623a30.784,30.784,0,0,1,9.916.3,7.22,7.22,0,0,1-.528,14.188,30.768,30.768,0,0,1-9.908-.441c-1.64-.276-3.279-.623-4.919-.985l-2.467-.536-.615-.134-.26-.134h-.142a.41.41,0,0,0-.079-.181.371.371,0,0,0-.15-.126h-.079l-.087.047-.134.071-.276.15L60.66,73.245,56.309,75.61q-4.351,2.365-8.671,4.816a4.524,4.524,0,1,1-4.659-7.757Z" transform="translate(-9.215 -12.151)" fill="#ffc298"/>
    <path id="Tracé_265" data-name="Tracé 265" d="M37.177,98.09a33.95,33.95,0,0,0,.386,10.712,3.321,3.321,0,1,1-6.5,1.356,3.422,3.422,0,0,1-.055-.41v-.063a39.941,39.941,0,0,1,1.127-12.5,2.57,2.57,0,0,1,5.045.891Z" transform="translate(-7.124 -19.694)" fill="#ffc298"/>
    <path id="Tracé_266" data-name="Tracé 266" d="M44.087,97.6a79.362,79.362,0,0,0,.875,13.495,3.573,3.573,0,0,1-7.055,1.135,2.665,2.665,0,0,1-.047-.607v-.055a84.539,84.539,0,0,1,1.576-14.449,2.365,2.365,0,0,1,4.611.465Z" transform="translate(-8.595 -19.736)" fill="#ffc298"/>
    <path id="Tracé_267" data-name="Tracé 267" d="M51.4,100.2a54.508,54.508,0,0,0,.52,13.243,3.571,3.571,0,1,1-7.039,1.182,3.944,3.944,0,0,1-.047-.426v-.055A60.49,60.49,0,0,1,46.1,99.416a2.68,2.68,0,0,1,5.3.788Z" transform="translate(-10.063 -20.113)" fill="#ffc298"/>
    <path id="Tracé_268" data-name="Tracé 268" d="M57.194,106.884a43.653,43.653,0,0,0,1.308,9.167,3.429,3.429,0,0,1-6.637,1.726,2.868,2.868,0,0,1-.1-.568v-.071a50,50,0,0,1,.323-10.5,2.57,2.57,0,0,1,5.108.221Z" transform="translate(-11.51 -21.638)" fill="#ffc298"/>
    <path id="Tracé_269" data-name="Tracé 269" d="M67.77,71.528s1.033,5.155,9.585,8.087c9.222,3.153,14.827-.938,16.7-3.855C96.935,71.252,91.189,64,91.189,64Z" transform="translate(-14.929 -13.074)" fill="#ffc298"/>
    <path id="Tracé_270" data-name="Tracé 270" d="M38.816,98.27a56.918,56.918,0,0,0-.686,7.811" transform="translate(-8.653 -20.331)" fill="none" stroke="#e1927a" stroke-linecap="round" stroke-miterlimit="10" stroke-width="2.5"/>
    <path id="Tracé_271" data-name="Tracé 271" d="M45.652,99.24a86.707,86.707,0,0,0-.449,11.335" transform="translate(-10.144 -20.536)" fill="none" stroke="#e1927a" stroke-linecap="round" stroke-miterlimit="10" stroke-width="2.5"/>
    <path id="Tracé_272" data-name="Tracé 272" d="M53.125,106a35.337,35.337,0,0,0-.686,7.244" transform="translate(-11.682 -21.968)" fill="none" stroke="#e1927a" stroke-linecap="round" stroke-miterlimit="10" stroke-width="2.5"/>
    <path id="Tracé_273" data-name="Tracé 273" d="M94.883,100.118A54.646,54.646,0,0,1,80.19,94.38" transform="translate(-17.559 -19.507)" fill="none" stroke="#892e1d" stroke-linecap="round" stroke-linejoin="round" stroke-width="2.5"/>
    <path id="Tracé_274" data-name="Tracé 274" d="M89.127,108.154A33.107,33.107,0,0,1,77.65,103.74" transform="translate(-17.021 -21.489)" fill="none" stroke="#892e1d" stroke-linecap="round" stroke-linejoin="round" stroke-width="2.5"/>
    <path id="Tracé_275" data-name="Tracé 275" d="M78.032,114.4s-4.1-1.852-9.222-4.477" transform="translate(-15.149 -22.798)" fill="none" stroke="#892e1d" stroke-linecap="round" stroke-linejoin="round" stroke-width="2.5"/>
    <path id="Tracé_276" data-name="Tracé 276" d="M54.552,5.3,39.2,31.884a2.932,2.932,0,0,0,2.538,4.4H72.437a2.932,2.932,0,0,0,2.538-4.4L59.628,5.3a2.932,2.932,0,0,0-5.076,0Z" transform="translate(-8.797 -0.334)" fill="#e44450"/>
    <path id="Tracé_277" data-name="Tracé 277" d="M64.018,15.5,62.433,27.213H60.084L58.5,15.5Z" transform="translate(-12.966 -2.804)" fill="#fff"/>
    <ellipse id="Ellipse_65" data-name="Ellipse 65" cx="1.971" cy="1.971" rx="1.971" ry="1.971" transform="translate(46.322 27.46)" fill="#fff"/>
    <rect id="Rectangle_25" data-name="Rectangle 25" width="100" height="101" transform="translate(-0.485 0.042)" fill="none"/>
  </g>
</svg>
