<svg xmlns="http://www.w3.org/2000/svg" width="102" height="105.01" viewBox="0 0 102 105.01">
  <g id="Distance_keep_social" data-name="Distance keep social" transform="translate(-0.647 0.352)">
    <path id="Tracé_354" data-name="Tracé 354" d="M104.277,27.978l-.457,3.483s4.022,4.079,6.526-.131c-1.224-3.353-.228-5.392-.228-5.392l-.171-2-3.54.408Z" transform="translate(-19.428 -4.179)" fill="#ffc298"/>
    <path id="Tracé_355" data-name="Tracé 355" d="M106,26.752a7.342,7.342,0,0,0,3.532-4.642c.408-2.309.408-4.258-1.224-6.436s-7.929-1.721-8.158-1.354c-1.632,2.749-.367,9.912,1.052,11.812C102.447,27.8,106,26.752,106,26.752Z" transform="translate(-18.609 -2.349)" fill="#ffc298"/>
    <path id="Tracé_356" data-name="Tracé 356" d="M96.736,12.291a3.263,3.263,0,0,0,2.154,3.924c2.831,1.044,5.89-1.06,5.89-1.06a12.008,12.008,0,0,0,4.014,8.223c3.491-.889,5.327-9.43-.563-12.359a7.342,7.342,0,0,0-9.593,2.031Z" transform="translate(-18.103 -1.617)" fill="#892e1d"/>
    <path id="Tracé_357" data-name="Tracé 357" d="M108.621,24.226s1.632-.506,1.632-1.925-.816-1.974-2.912-1.044" transform="translate(-20.076 -3.6)" fill="#ffc298"/>
    <path id="Tracé_358" data-name="Tracé 358" d="M97.572,50.322c-.082,3.753-.237,7.513-.351,11.274l-.228,5.637q-.106,2.814-.261,5.637a1.925,1.925,0,0,1-3.834.065c-.171-1.876-.326-3.744-.465-5.621l-.416-5.572c-.253-3.753-.547-7.505-.767-11.258a3.173,3.173,0,0,1,6.322-.383Z" transform="translate(-17.112 -8.486)" fill="#ffc298"/>
    <rect id="Rectangle_34" data-name="Rectangle 34" width="19.587" height="1.509" transform="translate(77.728 57.947)" fill="#172a91"/>
    <path id="Tracé_359" data-name="Tracé 359" d="M95.65,72.6l2.178,40.609,6.11.816,1.232-34.238.954.179.824,34.058,6.1-.816L115.237,72.6Z" transform="translate(-17.922 -13.143)" fill="#2652e4"/>
    <rect id="Rectangle_35" data-name="Rectangle 35" width="19.587" height="19.823" transform="translate(77.728 38.124)" fill="#bde5ec"/>
    <path id="Tracé_360" data-name="Tracé 360" d="M124.568,50.427c-.351,3.744-.816,7.489-1.167,11.233l-.62,5.637q-.3,2.806-.661,5.612a1.925,1.925,0,0,1-3.834-.212q-.049-2.831-.057-5.645V61.4c0-3.761,0-7.53.049-11.29a3.181,3.181,0,1,1,6.29.057Z" transform="translate(-22.082 -8.33)" fill="#ffc298"/>
    <path id="Tracé_361" data-name="Tracé 361" d="M103.36,31h6.208a2.17,2.17,0,0,1,2.17,2.17v6.118H101.19V33.17A2.17,2.17,0,0,1,103.36,31Z" transform="translate(-18.943 -5.479)" fill="#bde5ec"/>
    <path id="Tracé_362" data-name="Tracé 362" d="M102.2,32.9h5.245a12.237,12.237,0,0,1,12.237,12.237V49.3H91.19V43.913A11.013,11.013,0,0,1,102.2,32.9Z" transform="translate(-17.101 -5.829)" fill="#bde5ec"/>
    <path id="Tracé_363" data-name="Tracé 363" d="M122.813,126.965H109.5V123.2l6.339-.816,5.735,1.884Z" transform="translate(-20.474 -22.314)" fill="#172a91"/>
    <path id="Tracé_364" data-name="Tracé 364" d="M89.49,126.965H102.8V123.2l-6.347-.816-5.735,1.884Z" transform="translate(-16.788 -22.314)" fill="#172a91"/>
    <path id="Tracé_365" data-name="Tracé 365" d="M9.17,118.638h4.275L16.4,92.916,9.814,89.27Z" transform="translate(-1.99 -16.214)" fill="#aa4628"/>
    <path id="Tracé_366" data-name="Tracé 366" d="M31.236,49.147,31.9,71.711A1.444,1.444,0,0,1,29.042,72l-3.8-22.254a3.021,3.021,0,0,1,5.955-1.02A2.488,2.488,0,0,1,31.236,49.147Z" transform="translate(-4.943 -8.282)" fill="#aa4628"/>
    <path id="Tracé_367" data-name="Tracé 367" d="M1.77,127.159h10.6V123.39H7.929l-4.266,1.925Z" transform="translate(-0.627 -22.501)" fill="#bde5ec"/>
    <path id="Tracé_368" data-name="Tracé 368" d="M31.718,118.638H27.443L24.49,92.916l6.591-3.646Z" transform="translate(-4.812 -16.214)" fill="#aa4628"/>
    <path id="Tracé_369" data-name="Tracé 369" d="M28.309,94.754H4.35c6.159-8.859,2.3-26.806,6.983-31.464H25.642Z" transform="translate(-1.102 -11.428)" fill="#bde5ec"/>
    <ellipse id="Ellipse_75" data-name="Ellipse 75" cx="3.891" cy="3.891" rx="3.891" ry="3.891" transform="translate(7.237 24.313)" fill="#3b0b1b"/>
    <ellipse id="Ellipse_76" data-name="Ellipse 76" cx="3.891" cy="3.891" rx="3.891" ry="3.891" transform="translate(14.832 14.051)" fill="#3b0b1b"/>
    <ellipse id="Ellipse_77" data-name="Ellipse 77" cx="3.891" cy="3.891" rx="3.891" ry="3.891" transform="translate(8.763 14.051)" fill="#3b0b1b"/>
    <ellipse id="Ellipse_78" data-name="Ellipse 78" cx="3.891" cy="3.891" rx="3.891" ry="3.891" transform="translate(5.516 18.652)" fill="#3b0b1b"/>
    <path id="Tracé_370" data-name="Tracé 370" d="M23.533,23.284s1.933,7.056.726,8.867-7.636.343-7.636.343a11.078,11.078,0,0,1-.506-2.292c-.082-.571-.163-1.256-.22-2.064C15.653,24.981,19.773,18.806,23.533,23.284Z" transform="translate(-3.228 -3.768)" fill="#aa4628"/>
    <path id="Tracé_371" data-name="Tracé 371" d="M16.859,38.508l4.854.245-1.444-6.306L15.88,28.67Z" transform="translate(-3.226 -5.05)" fill="#aa4628"/>
    <path id="Tracé_372" data-name="Tracé 372" d="M27.179,58.88H12.659L11.9,46.644A7.644,7.644,0,0,1,19.536,39h0a7.644,7.644,0,0,1,7.644,7.644Z" transform="translate(-2.493 -6.953)" fill="#2652e4"/>
    <path id="Tracé_373" data-name="Tracé 373" d="M23.568,24.4c-.889.4-4.12-.726-4.12-.726a1.428,1.428,0,0,1,0,1.933,3.263,3.263,0,0,1-2.407,1.3s-2.325,2.121-.816,3.035,1.525,3.883-.163,4.895A6.526,6.526,0,0,1,12.8,29.47l.163-4.528,1.215-2.586,2.831-1.215,4.16-.237,2.056-.644Z" transform="translate(-2.659 -3.501)" fill="#3b0b1b"/>
    <path id="Tracé_374" data-name="Tracé 374" d="M38.357,127.159H27.76V123.39h4.446l4.258,1.925Z" transform="translate(-5.415 -22.501)" fill="#bde5ec"/>
    <path id="Tracé_375" data-name="Tracé 375" d="M14.017,48.066,11.455,60.115,9.334,57.667l12.065.71a1.436,1.436,0,1,1,0,2.872l-12.065.71a2.031,2.031,0,0,1-2.145-1.909,1.224,1.224,0,0,1,0-.245v-.286L8,47.234a3.021,3.021,0,1,1,6.029.408A3.54,3.54,0,0,1,14.017,48.066Z" transform="translate(-1.624 -7.951)" fill="#aa4628"/>
    <path id="Tracé_376" data-name="Tracé 376" d="M18.825,39H16.541A8.549,8.549,0,0,0,8,47.557v.726H28.092A9.267,9.267,0,0,0,18.825,39Z" transform="translate(-1.774 -6.953)" fill="#2652e4"/>
    <line id="Ligne_22" data-name="Ligne 22" x2="33.34" transform="translate(36.425 93.311)" fill="none" stroke="#e44450" stroke-miterlimit="10" stroke-width="6"/>
    <path id="Tracé_377" data-name="Tracé 377" d="M44.824,118.824l-10.564-6.11,10.564-6.094Z" transform="translate(-6.612 -19.411)" fill="#e44450"/>
    <path id="Tracé_378" data-name="Tracé 378" d="M83.7,118.824l10.564-6.11L83.7,106.62Z" transform="translate(-15.721 -19.411)" fill="#e44450"/>
    <path id="Tracé_380" data-name="Tracé 380" d="M61.83,97.254v-5.8a12.46,12.46,0,0,0-.106-1.925,5.953,5.953,0,0,1-.114-.661c0-.188.245-.334.742-.432a6.259,6.259,0,0,1,1.109-.147,1.061,1.061,0,0,1,.481.073.5.5,0,0,1,.2.228,2.487,2.487,0,0,1,.106.253,2.689,2.689,0,0,1,.082.343,2.27,2.27,0,0,0,.065.286,3.736,3.736,0,0,1,1.158-.987,3.263,3.263,0,0,1,1.55-.4,2.292,2.292,0,0,1,2.447,1.387,3.85,3.85,0,0,1,1.207-.987,3.426,3.426,0,0,1,1.632-.4,2.586,2.586,0,0,1,2.023.726,3.263,3.263,0,0,1,.653,2.235v6.208c0,.392-.367.579-1.1.579h-.514c-.726,0-1.093-.188-1.093-.579v-5.8c0-.759-.359-1.134-1.085-1.134a1.631,1.631,0,0,0-1.444,1.06v5.873c0,.392-.359.579-1.093.579h-.514c-.734,0-1.1-.188-1.1-.579v-5.8c0-.759-.359-1.134-1.077-1.134A1.631,1.631,0,0,0,64.6,91.38v5.873c0,.392-.367.579-1.1.579h-.506C62.2,97.8,61.83,97.645,61.83,97.254Z" transform="translate(-11.651 -15.992)" fill="#e44450"/>
    <rect id="Rectangle_36" data-name="Rectangle 36" width="102" height="105" transform="translate(0.647 -0.351)" fill="none"/>
    <text id="_1" data-name="1" transform="translate(38.647 81.648)" fill="#e44450" font-size="21" font-family="SFCompactRounded-Medium, SF Compact Rounded" font-weight="500"><tspan x="0" y="0">1</tspan></text>
  </g>
</svg>
