<svg id="Hand_soap_wash" data-name="Hand soap wash" xmlns="http://www.w3.org/2000/svg" width="89.499" height="99.322" viewBox="0 0 89.499 99.322">
  <g id="Groupe_6" data-name="Groupe 6" transform="translate(0 20.931)">
    <g id="Groupe_1" data-name="Groupe 1" transform="translate(19.576)">
      <path id="Tracé_1" data-name="Tracé 1" d="M67.833,35.685c-2.049,1.971-4.02,3.7-6.148,5.518Q58.61,43.922,55.3,46.4a119.47,119.47,0,0,1-13.873,9.538A5.9,5.9,0,1,1,35.594,45.7c.158-.079.394-.236.552-.315h0a116.315,116.315,0,0,0,13.4-7.173c2.207-1.34,4.414-2.838,6.542-4.257,2.128-1.5,4.335-3,6.306-4.493l.079-.079a4.143,4.143,0,0,1,5.36,6.306Z" transform="translate(-32.592 -28.554)" fill="#e1927a"/>
    </g>
    <g id="Groupe_2" data-name="Groupe 2" transform="translate(25.128 10.135)">
      <path id="Tracé_2" data-name="Tracé 2" d="M74.527,48.5c-2.049,1.655-4.178,3.311-6.227,4.966-2.128,1.655-4.178,3.232-6.306,4.808C57.737,61.424,53.4,64.5,48.751,67.415A5.937,5.937,0,0,1,42.366,57.4,1.584,1.584,0,0,1,43,57.089c4.493-2.128,9.065-4.572,13.558-7.094,2.207-1.261,4.493-2.6,6.7-3.941s4.493-2.68,6.621-4.02h0a3.976,3.976,0,0,1,5.518,1.261A4.018,4.018,0,0,1,74.527,48.5Z" transform="translate(-39.635 -41.412)" fill="#e1927a"/>
    </g>
    <g id="Groupe_3" data-name="Groupe 3" transform="translate(29.936 20.148)">
      <path id="Tracé_3" data-name="Tracé 3" d="M78.735,61.749,54.851,76.884a5.937,5.937,0,0,1-6.385-10.011,4.4,4.4,0,0,0,.631-.394L74.715,54.5a4.093,4.093,0,0,1,5.439,1.971A3.991,3.991,0,0,1,78.735,61.749Z" transform="translate(-45.735 -54.115)" fill="#e1927a"/>
    </g>
    <g id="Groupe_4" data-name="Groupe 4" transform="translate(31.632 32.069)">
      <path id="Tracé_4" data-name="Tracé 4" d="M78.245,76.46a40.12,40.12,0,0,1-5.439,4.02c-1.813,1.182-3.7,2.128-5.518,3.153-1.892.946-3.7,1.892-5.6,2.759s-3.7,1.655-5.754,2.444h0A5.914,5.914,0,1,1,51.681,77.8c.236-.079.552-.158.788-.236,1.734-.394,3.626-.946,5.439-1.419,1.813-.552,3.626-1.1,5.439-1.734a51.006,51.006,0,0,0,5.2-2.049A31.027,31.027,0,0,0,73.121,70l.158-.079A4.26,4.26,0,0,1,79.112,71.1,4.434,4.434,0,0,1,78.245,76.46Z" transform="translate(-47.888 -69.238)" fill="#e1927a"/>
    </g>
    <path id="Tracé_5" data-name="Tracé 5" d="M57.135,79.343C50.12,81.787,40.188,98.892,28.443,98.734S5.9,86.358,8.028,76.032c1.025-4.887,6.7-17.578,8.828-21.283,7.252-12.612,18.918-5.36,22.229-3.468C43.42,53.725,57.135,79.343,57.135,79.343Z" transform="translate(-7.758 -32.564)" fill="#e1927a"/>
    <path id="Tracé_6" data-name="Tracé 6" d="M37.078,49l2.759,19.47a9.475,9.475,0,1,1-18.76,2.68,10.06,10.06,0,0,1,.079-3.074l4.966-13.085Z" transform="translate(-10.56 -32.884)" fill="#c1705d"/>
    <g id="Groupe_5" data-name="Groupe 5" transform="translate(0.725 3.501)">
      <path id="Tracé_7" data-name="Tracé 7" d="M38.491,40.093c-1.813,2.522-3.547,5.124-5.281,7.8-.867,1.34-1.655,2.68-2.522,4.02-.236.394-.315.552-.473.788-.079.236-.236.473-.315.709a5.5,5.5,0,0,0-.473,1.5c-.236,1.1-.236,1.734-.473,3.626-.158,1.576-.394,3.153-.552,4.729-.315,3.153-.631,6.306-.788,9.459A9.408,9.408,0,0,1,17.6,81.634,9.526,9.526,0,0,1,8.7,71.544,8.767,8.767,0,0,1,9.641,68c1.419-2.838,2.68-5.754,3.941-8.671.631-1.419,1.261-2.917,1.892-4.335.315-.788.552-1.34,1.025-2.444a15.9,15.9,0,0,1,1.419-2.838,21.307,21.307,0,0,1,1.734-2.6l.946-1.182a13.125,13.125,0,0,1,.946-1.025c1.1-1.1,2.207-2.207,3.311-3.389,2.207-2.286,4.257-4.572,6.306-6.937a4.6,4.6,0,0,1,6.464-.473A4.352,4.352,0,0,1,38.491,40.093Z" transform="translate(-8.678 -32.996)" fill="#e1927a"/>
    </g>
  </g>
  <g id="Groupe_13" data-name="Groupe 13" transform="translate(19.976 23.569)">
    <g id="Groupe_7" data-name="Groupe 7" transform="translate(48.871 22.465)">
      <ellipse id="Ellipse_1" data-name="Ellipse 1" cx="10.326" cy="10.326" rx="10.326" ry="10.326" fill="#bde5ec"/>
      <ellipse id="Ellipse_2" data-name="Ellipse 2" cx="2.68" cy="1.655" rx="2.68" ry="1.655" transform="matrix(0.806, -0.592, 0.592, 0.806, 3.315, 5.633)" fill="#fff"/>
    </g>
    <g id="Groupe_8" data-name="Groupe 8" transform="translate(0 22.938)">
      <ellipse id="Ellipse_3" data-name="Ellipse 3" cx="14.819" cy="14.819" rx="14.819" ry="14.819" fill="#bde5ec"/>
      <ellipse id="Ellipse_4" data-name="Ellipse 4" cx="3.862" cy="2.286" rx="3.862" ry="2.286" transform="matrix(0.806, -0.592, 0.592, 0.806, 4.828, 8.231)" fill="#fff"/>
    </g>
    <g id="Groupe_9" data-name="Groupe 9" transform="translate(12.454 8.434)">
      <ellipse id="Ellipse_5" data-name="Ellipse 5" cx="10.326" cy="10.326" rx="10.326" ry="10.326" fill="#bde5ec"/>
      <ellipse id="Ellipse_6" data-name="Ellipse 6" cx="2.68" cy="1.655" rx="2.68" ry="1.655" transform="matrix(0.806, -0.592, 0.592, 0.806, 3.335, 5.691)" fill="#fff"/>
    </g>
    <g id="Groupe_10" data-name="Groupe 10" transform="translate(24.593)">
      <ellipse id="Ellipse_7" data-name="Ellipse 7" cx="15.45" cy="15.45" rx="15.45" ry="15.45" fill="#bde5ec"/>
      <ellipse id="Ellipse_8" data-name="Ellipse 8" cx="4.02" cy="2.444" rx="4.02" ry="2.444" transform="matrix(0.806, -0.592, 0.592, 0.806, 5.023, 8.501)" fill="#fff"/>
    </g>
    <g id="Groupe_11" data-name="Groupe 11" transform="translate(22.859 22.229)">
      <ellipse id="Ellipse_9" data-name="Ellipse 9" cx="10.326" cy="10.326" rx="10.326" ry="10.326" fill="#bde5ec"/>
      <ellipse id="Ellipse_10" data-name="Ellipse 10" cx="2.68" cy="1.655" rx="2.68" ry="1.655" transform="matrix(0.806, -0.592, 0.592, 0.806, 3.307, 5.622)" fill="#fff"/>
    </g>
    <g id="Groupe_12" data-name="Groupe 12" transform="translate(47.925 9.222)">
      <ellipse id="Ellipse_11" data-name="Ellipse 11" cx="10.326" cy="10.326" rx="10.326" ry="10.326" fill="#bde5ec"/>
      <ellipse id="Ellipse_12" data-name="Ellipse 12" cx="2.68" cy="1.655" rx="2.68" ry="1.655" transform="matrix(0.806, -0.592, 0.592, 0.806, 3.322, 5.68)" fill="#fff"/>
    </g>
  </g>
  <g id="Groupe_20" data-name="Groupe 20" transform="translate(13.749 36.374)">
    <g id="Groupe_19" data-name="Groupe 19">
      <g id="Groupe_14" data-name="Groupe 14" transform="translate(27.415 14.11)">
        <path id="Tracé_8" data-name="Tracé 8" d="M98.068,72.867l-.394.709-.315.552a11.527,11.527,0,0,1-.709,1.025,18.5,18.5,0,0,1-1.5,1.971c-.473.631-1.025,1.261-1.576,1.892S92.55,80.277,92,80.829A61.751,61.751,0,0,1,84.9,87.371L83.013,88.79c-.631.473-1.261.946-1.971,1.419l-1.971,1.34L77.022,92.81c-1.34.867-2.838,1.576-4.178,2.286-1.419.709-2.917,1.34-4.335,2.049a6,6,0,0,1-5.045-10.878,1.332,1.332,0,0,1,.394-.158l.394-.158c1.261-.473,2.522-.867,3.784-1.419s2.522-1.025,3.7-1.655l1.813-.867,1.813-.946A12.548,12.548,0,0,0,77.1,80.04c.552-.394,1.182-.709,1.734-1.1a49.37,49.37,0,0,0,6.385-4.966c.473-.473,1.025-.946,1.5-1.419l1.419-1.419a11.527,11.527,0,0,0,1.261-1.5,4.332,4.332,0,0,0,.552-.709l.473-.631.315-.473a4.421,4.421,0,0,1,6.227-.867A4.748,4.748,0,0,1,98.068,72.867Z" transform="translate(-59.98 -66.046)" fill="#ffc298"/>
      </g>
      <g id="Groupe_15" data-name="Groupe 15" transform="translate(31.109 25.44)">
        <path id="Tracé_9" data-name="Tracé 9" d="M102.686,88.05a8.653,8.653,0,0,1-.946.867l-.867.788a15.761,15.761,0,0,1-1.734,1.5c-1.1,1.025-2.286,1.971-3.468,2.917-2.286,1.892-4.729,3.626-7.094,5.36-2.444,1.734-4.887,3.311-7.331,4.887-1.261.788-2.522,1.576-3.784,2.286l-3.784,2.207a5.989,5.989,0,0,1-6.07-10.326l.473-.236.079-.079,3.784-1.813c1.261-.631,2.522-1.261,3.7-1.892,2.444-1.261,4.887-2.6,7.252-4.02s4.729-2.838,7.015-4.335c1.1-.788,2.286-1.5,3.389-2.365.552-.394,1.1-.788,1.577-1.182l.788-.631.788-.315.236-.236a4.5,4.5,0,0,1,6.306.631A4.562,4.562,0,0,1,102.686,88.05Z" transform="translate(-64.667 -80.419)" fill="#ffc298"/>
      </g>
      <g id="Groupe_16" data-name="Groupe 16" transform="translate(28.134 41.69)">
        <path id="Tracé_10" data-name="Tracé 10" d="M99.207,107.55c-2.6.709-5.36,1.5-8.119,2.286-2.68.788-5.439,1.655-8.119,2.522-5.36,1.734-10.8,3.468-16.159,5.36a4.462,4.462,0,0,1-2.917-8.434c.079,0,.158-.079.315-.079,5.518-1.5,11.114-3,16.632-4.335,2.759-.709,5.6-1.34,8.355-1.971,2.838-.631,5.6-1.261,8.513-1.813a3.44,3.44,0,0,1,3.941,2.68,3.278,3.278,0,0,1-2.444,3.784Z" transform="translate(-60.891 -101.036)" fill="#ffc298"/>
      </g>
      <g id="Groupe_17" data-name="Groupe 17" transform="translate(23.668 8.161)">
        <path id="Tracé_11" data-name="Tracé 11" d="M95.406,65.831l-.473.631-.394.552c-.315.315-.552.631-.867.946-.552.631-1.1,1.261-1.655,1.813s-1.182,1.182-1.734,1.655c-.631.552-1.182,1.1-1.813,1.576a67.189,67.189,0,0,1-7.8,5.6c-.709.394-1.419.788-2.049,1.182-.709.394-1.419.788-2.128,1.1l-2.128,1.1-2.207.946c-1.419.709-3,1.182-4.493,1.813-1.5.552-3.074,1.025-4.572,1.5a6.008,6.008,0,0,1-3.7-11.43c.158-.079.315-.079.473-.158l.394-.079c1.34-.315,2.68-.552,3.941-.946s2.6-.709,3.862-1.182l1.892-.631,1.892-.788a19.249,19.249,0,0,0,1.892-.788c.631-.315,1.261-.552,1.813-.867A47.64,47.64,0,0,0,82.479,65.2l1.655-1.182c.552-.394,1.025-.867,1.576-1.261.473-.394,1.025-.867,1.5-1.34a5.1,5.1,0,0,1,.709-.631l.552-.552.394-.394a4.473,4.473,0,0,1,6.306-.079A4.768,4.768,0,0,1,95.406,65.831Z" transform="translate(-55.226 -58.499)" fill="#ffc298"/>
      </g>
      <g id="Groupe_18" data-name="Groupe 18">
        <path id="Tracé_12" data-name="Tracé 12" d="M52.316,54.494l-4.1,9.774-2.049,4.887-.236.631a.474.474,0,0,0-.079.315.794.794,0,0,1-.079.236c.079.079.158.079.315.158H46.4c0-.079,0,.079.079.158l.079.315.079.552c.473,3.311,1.025,6.858,1.576,10.326l.867,5.2.473,2.6.236,1.261c0,.236.079.394.079.631l.079.315h0v-.473a12.378,12.378,0,1,1-24.751.473l.079-.552v-.552l.079-.394.158-.709.394-1.34.709-2.6,1.5-5.2c1.025-3.468,2.049-6.937,3.153-10.562l.236-.709.079-.394a1.588,1.588,0,0,0,.158-.473,23.69,23.69,0,0,1,.867-2.522,13.341,13.341,0,0,1,1.34-2.286,1.107,1.107,0,0,1,.315-.315l.236-.236.394-.552,3.232-4.1,6.385-8.277.079-.158a4.515,4.515,0,0,1,6.306-.867A4.675,4.675,0,0,1,52.316,54.494Z" transform="translate(-25.2 -48.146)" fill="#ffc298"/>
      </g>
      <path id="Tracé_13" data-name="Tracé 13" d="M47.356,71.1c-.867,3.784,1.182,7.567,9.3,5.6,8.04-1.971,10.957,30.9,2.286,34.525-8.671,3.547-25.854,11.43-32.712-7.094C19.689,86.313,47.356,71.1,47.356,71.1Z" transform="translate(-25.206 -53.006)" fill="#ffc298"/>
    </g>
    <path id="Tracé_14" data-name="Tracé 14" d="M78.9,87.3a14.119,14.119,0,0,0,5.754-2.6" transform="translate(-36.571 -55.886)" fill="none" stroke="#e1927a" stroke-linecap="round" stroke-miterlimit="10" stroke-width="2.837"/>
    <path id="Tracé_15" data-name="Tracé 15" d="M103.224,67.6A51.26,51.26,0,0,1,91.4,78.241" transform="translate(-39.218 -52.265)" fill="none" stroke="#e1927a" stroke-linecap="round" stroke-miterlimit="10" stroke-width="2.837"/>
    <path id="Tracé_16" data-name="Tracé 16" d="M84.4,95.085c.158-.158,11.193-7.331,14.819-13.085" transform="translate(-37.736 -55.315)" fill="none" stroke="#e1927a" stroke-linecap="round" stroke-miterlimit="10" stroke-width="2.837"/>
    <path id="Tracé_17" data-name="Tracé 17" d="M85.2,107.342c.315-.158,7.567-3.074,11.981-6.542" transform="translate(-37.905 -59.295)" fill="none" stroke="#e1927a" stroke-linecap="round" stroke-miterlimit="10" stroke-width="2.837"/>
  </g>
  <path id="Tracé_18" data-name="Tracé 18" d="M107.621,19.026h0a6.09,6.09,0,0,1-8.592,0h0A6.087,6.087,0,0,1,98,11.853L103.364,2l5.281,9.853A5.971,5.971,0,0,1,107.621,19.026Z" transform="translate(-26.713 -2)" fill="#2652e4"/>
  <path id="Tracé_19" data-name="Tracé 19" d="M87.028,21.143h0a4.806,4.806,0,0,1-6.7,0h0a4.666,4.666,0,0,1-.788-5.6L83.717,7.9,87.9,15.546A4.764,4.764,0,0,1,87.028,21.143Z" transform="translate(-22.831 -3.249)" fill="#2652e4"/>
</svg>
