<svg id="Mouth_tissue" data-name="Mouth tissue" xmlns="http://www.w3.org/2000/svg" width="73.543" height="96.215" viewBox="0 0 73.543 96.215">
  <path id="Tracé_115" data-name="Tracé 115" d="M34.076,87.586C25.326,94.6,18.7,105.243,15,118.958H63.871c-2.365-6.306-5.518-10.247-8.434-18.051L38.569,85.3Z" transform="translate(-12.714 -22.743)" fill="#bde5ec"/>
  <path id="Tracé_116" data-name="Tracé 116" d="M80.914,27.191C82.1,35.467,76.263,40.2,75,41.616S50.488,53.124,48.359,61.558s-.394,9.459-.394,9.459a23.908,23.908,0,0,0-10.247,3.074c-15.213,9.538-23.1-1.34-25.618-9.38,10.168-13.794,2.286-40.122,22.7-53.522C51.906,0,78,7.327,80.914,27.191Z" transform="translate(-12.1 -5.938)" fill="#892e1d"/>
  <path id="Tracé_117" data-name="Tracé 117" d="M64.721,74.406s-4.178,16.553-3,20.021C48.562,95.689,44.936,86.466,44.7,84.417c3.389-3.468,4.966-11.351,5.518-29.717C64.643,65.42,64.721,74.406,64.721,74.406Z" transform="translate(-19.003 -16.264)" fill="#ffc298"/>
  <path id="Tracé_118" data-name="Tracé 118" d="M54.68,67.476c-.631,5.833,2.68,14.5,10.011,18.918.946-4.808,2.049-9.38,2.049-9.38S54.995,64.48,54.68,67.476Z" transform="translate(-21.1 -18.871)" fill="#e1927a"/>
  <path id="Tracé_119" data-name="Tracé 119" d="M82.488,75.941C81.148,72.631,75,72,75,72s.788,5.518,5.124,7.725" transform="translate(-25.419 -19.927)" fill="#e44450"/>
  <path id="Tracé_120" data-name="Tracé 120" d="M82.548,35.788c.788,5.281-.946,6.779-1.1,13.321-.079,4.729.158,9.932,1.655,11.824a6.971,6.971,0,0,1-6.148,1.892A18.581,18.581,0,0,1,75.454,67c-1.655-1.34-7.488-3.941-7.488-3.941a55.79,55.79,0,0,0,5.124,7.725c-2.128,2.444-5.36,5.2-9.853,3.311C48.5,67.791,48.1,50.371,48.1,50.371s-5.833,3.311-6.621-2.049S46.6,35.946,50.151,43.75c2.286-7.882,10.09-9.774,15.292-11.587C79.159,27.354,81.681,30.507,82.548,35.788Z" transform="translate(-18.306 -10.989)" fill="#ffc298"/>
  <path id="Tracé_121" data-name="Tracé 121" d="M50.368,35.2a24.94,24.94,0,0,1,1.34,6.069S70.074,42.529,73.7,31.1c2.049,2.365,1.182,6.7,1.182,6.7s6.858.788,9.3-4.493C92.461,14.94,59.591,15.965,53.521,20.458S49.028,32.282,50.368,35.2Z" transform="translate(-19.942 -8.428)" fill="#892e1d"/>
  <g id="Groupe_67" data-name="Groupe 67" transform="translate(25.16 32.052)">
    <path id="Tracé_122" data-name="Tracé 122" d="M47.315,47.309c-.158.473-.394.867-.552,1.261a6.619,6.619,0,0,0-.315.946,3.994,3.994,0,0,0-.158,1.025c-.079.158,0,.394-.079.631a2.957,2.957,0,0,1-.079.788v.079a.448.448,0,0,1-.552.315c-.079,0-.079,0-.158-.079a5.1,5.1,0,0,1-.709-.631,2.624,2.624,0,0,1-.473-.788,2.79,2.79,0,0,1-.079-1.971,2.988,2.988,0,0,1,1.025-1.655A2.811,2.811,0,0,1,47,46.6a.441.441,0,0,1,.394.473v.158Z" transform="translate(-44.019 -46.6)" fill="#e1927a"/>
  </g>
  <path id="Tracé_123" data-name="Tracé 123" d="M94.82,75.3l7.488,7.725-1.261,6.937-3.311,6.227L90.8,92.168Z" transform="translate(-28.765 -20.626)" fill="#ffc298"/>
  <path id="Tracé_124" data-name="Tracé 124" d="M90.4,104.431l-1.5,18.445h12.06L99.226,103.8Z" transform="translate(-28.363 -26.661)" fill="#bde5ec"/>
  <path id="Tracé_125" data-name="Tracé 125" d="M94.213,80.3l3,3.862-.236,3.626L92.4,86.606Z" transform="translate(-29.104 -21.684)" fill="#e1927a"/>
  <path id="Tracé_126" data-name="Tracé 126" d="M85.8,65.6S78.311,82.311,75,86.961c9.459,5.36,10.72,5.2,10.72,5.2s6.306-11.351,10.957-21.6C93.524,69.462,85.8,65.6,85.8,65.6Z" transform="translate(-25.419 -18.572)" fill="#2652e4"/>
  <g id="Groupe_68" data-name="Groupe 68" transform="translate(59.04 56.408)">
    <path id="Tracé_127" data-name="Tracé 127" d="M90.074,78.84c.158.709.473,1.577.709,2.286a10.9,10.9,0,0,0,1.1,2.128,10.1,10.1,0,0,0,1.34,1.734A7.5,7.5,0,0,0,94.8,86.171a2.812,2.812,0,1,1-2.917,4.808,1.159,1.159,0,0,1-.473-.394h0a11.379,11.379,0,0,1-2.128-2.68,13.9,13.9,0,0,1-1.34-2.917,19.631,19.631,0,0,1-.709-2.917,18.448,18.448,0,0,1-.236-3A1.581,1.581,0,0,1,88.576,77.5a1.68,1.68,0,0,1,1.576,1.182Z" transform="translate(-87 -77.5)" fill="#ffc298"/>
  </g>
  <path id="Tracé_128" data-name="Tracé 128" d="M89.481,89.1a23,23,0,0,1,.709,7.41l6.464,1.182L98.546,86.1s-3.232-2.68-2.365-1.576S95.157,88,93.107,85.868C91.767,84.45,88.929,87.208,89.481,89.1Z" transform="translate(-28.471 -22.523)" fill="#ffc298"/>
  <path id="Tracé_129" data-name="Tracé 129" d="M100.038,109l-.473-5.2-8.828.631L90.5,107.5Z" transform="translate(-28.702 -26.661)" fill="#2652e4"/>
  <path id="Tracé_130" data-name="Tracé 130" d="M90.288,99.8l9.7.709.631,5.6L89.5,105.554Z" transform="translate(-28.49 -25.814)" fill="#bde5ec"/>
  <ellipse id="Ellipse_29" data-name="Ellipse 29" cx="1.104" cy="1.104" rx="1.104" ry="1.104" transform="translate(62.587 76.036)" fill="#fff"/>
</svg>
